G04 #@! TF.GenerationSoftware,KiCad,Pcbnew,5.0.0-rc2-dev-unknown-c6ef0d5~62~ubuntu17.10.1*
G04 #@! TF.CreationDate,2018-03-22T21:06:56-04:00*
G04 #@! TF.ProjectId,quokka,71756F6B6B612E6B696361645F706362,rev?*
G04 #@! TF.SameCoordinates,PX9936698PY214e9c8*
G04 #@! TF.FileFunction,Paste,Bot*
G04 #@! TF.FilePolarity,Positive*
%FSLAX46Y46*%
G04 Gerber Fmt 4.6, Leading zero omitted, Abs format (unit mm)*
G04 Created by KiCad (PCBNEW 5.0.0-rc2-dev-unknown-c6ef0d5~62~ubuntu17.10.1) date Thu Mar 22 21:06:56 2018*
%MOMM*%
%LPD*%
G01*
G04 APERTURE LIST*
%ADD10R,0.670000X1.000000*%
%ADD11R,1.000000X0.670000*%
%ADD12R,1.800000X1.070000*%
%ADD13R,0.900000X0.800000*%
%ADD14R,0.800000X0.900000*%
%ADD15R,1.070000X1.800000*%
G04 APERTURE END LIST*
D10*
X39610000Y-153035000D03*
X37860000Y-153035000D03*
X44859000Y-46355000D03*
X46609000Y-46355000D03*
X51209000Y-52705000D03*
X52959000Y-52705000D03*
D11*
X34290000Y-81675000D03*
X34290000Y-83425000D03*
D10*
X40513000Y-79375000D03*
X38763000Y-79375000D03*
X50449000Y-66307000D03*
X52199000Y-66307000D03*
X50449000Y-72657000D03*
X52199000Y-72657000D03*
X52199000Y-67577000D03*
X50449000Y-67577000D03*
X50449000Y-62496800D03*
X52199000Y-62496800D03*
D11*
X60960000Y-57545000D03*
X60960000Y-59295000D03*
X52705000Y-59295000D03*
X52705000Y-57545000D03*
X59690000Y-57545000D03*
X59690000Y-59295000D03*
X67945000Y-59295000D03*
X67945000Y-57545000D03*
D10*
X70090000Y-68580000D03*
X68340000Y-68580000D03*
X68340000Y-73025000D03*
X70090000Y-73025000D03*
X70090000Y-67310000D03*
X68340000Y-67310000D03*
X68340000Y-61595000D03*
X70090000Y-61595000D03*
D11*
X59690000Y-77075000D03*
X59690000Y-75325000D03*
X60960000Y-77075000D03*
X60960000Y-75325000D03*
X67945000Y-77075000D03*
X67945000Y-75325000D03*
X52705000Y-75325000D03*
X52705000Y-77075000D03*
D10*
X52199000Y-71387000D03*
X50449000Y-71387000D03*
X50449000Y-70117000D03*
X52199000Y-70117000D03*
X52199000Y-65036800D03*
X50449000Y-65036800D03*
X50449000Y-63766800D03*
X52199000Y-63766800D03*
X68340000Y-64092000D03*
X70090000Y-64092000D03*
X70090000Y-62822000D03*
X68340000Y-62822000D03*
X68340000Y-71120000D03*
X70090000Y-71120000D03*
X70090000Y-69850000D03*
X68340000Y-69850000D03*
X45480000Y-71120000D03*
X47230000Y-71120000D03*
X47230000Y-69850000D03*
X45480000Y-69850000D03*
X45480000Y-64770000D03*
X47230000Y-64770000D03*
X47230000Y-63131800D03*
X45480000Y-63131800D03*
X75805000Y-70485000D03*
X74055000Y-70485000D03*
X74055000Y-69215000D03*
X75805000Y-69215000D03*
X75805000Y-64770000D03*
X74055000Y-64770000D03*
X74055000Y-63500000D03*
X75805000Y-63500000D03*
X76265000Y-36247500D03*
X78015000Y-36247500D03*
D11*
X77140000Y-43343800D03*
X77140000Y-41593800D03*
D10*
X72300000Y-36118800D03*
X70550000Y-36118800D03*
X76265000Y-37517500D03*
X78015000Y-37517500D03*
X69915000Y-40563800D03*
X71665000Y-40563800D03*
D11*
X75870000Y-43343800D03*
X75870000Y-41593800D03*
D10*
X35955000Y-50800000D03*
X37705000Y-50800000D03*
X39765000Y-50800000D03*
X41515000Y-50800000D03*
D11*
X99060000Y-41162000D03*
X99060000Y-42912000D03*
D10*
X93712000Y-49530000D03*
X91962000Y-49530000D03*
X91962000Y-60960000D03*
X93712000Y-60960000D03*
D11*
X99060000Y-73039000D03*
X99060000Y-74789000D03*
D10*
X93585000Y-92710000D03*
X91835000Y-92710000D03*
X93839000Y-81153000D03*
X92089000Y-81153000D03*
D11*
X102616000Y-12079000D03*
X102616000Y-13829000D03*
D10*
X91962000Y-29210000D03*
X93712000Y-29210000D03*
X93712000Y-17653000D03*
X91962000Y-17653000D03*
D11*
X56515000Y-145655000D03*
X56515000Y-143905000D03*
D10*
X37860000Y-125730000D03*
X39610000Y-125730000D03*
D11*
X13589000Y-143256000D03*
X13589000Y-141506000D03*
D12*
X8509000Y-141751000D03*
X8509000Y-144761000D03*
D10*
X37860000Y-144145000D03*
X39610000Y-144145000D03*
X39610000Y-135255000D03*
X37860000Y-135255000D03*
D11*
X40640000Y-61595000D03*
X40640000Y-63345000D03*
X61595000Y-91680000D03*
X61595000Y-89930000D03*
D10*
X82945000Y-59690000D03*
X84695000Y-59690000D03*
D11*
X43815000Y-91680000D03*
X43815000Y-89930000D03*
X70485000Y-91680000D03*
X70485000Y-89930000D03*
D10*
X82945000Y-77470000D03*
X84695000Y-77470000D03*
X84695000Y-68580000D03*
X82945000Y-68580000D03*
D11*
X52705000Y-89930000D03*
X52705000Y-91680000D03*
X61595000Y-87870000D03*
X61595000Y-86120000D03*
D10*
X79135000Y-59690000D03*
X80885000Y-59690000D03*
D11*
X43815000Y-87870000D03*
X43815000Y-86120000D03*
X70485000Y-87870000D03*
X70485000Y-86120000D03*
D10*
X79135000Y-77470000D03*
X80885000Y-77470000D03*
X80885000Y-68580000D03*
X79135000Y-68580000D03*
D11*
X52705000Y-86120000D03*
X52705000Y-87870000D03*
D10*
X59450000Y-44450000D03*
X61200000Y-44450000D03*
D13*
X155453000Y-42750600D03*
X155453000Y-44650600D03*
X153453000Y-43700600D03*
X128053000Y-43446600D03*
X130053000Y-44396600D03*
X130053000Y-42496600D03*
X193689000Y-42176200D03*
X193689000Y-44076200D03*
X191689000Y-43126200D03*
X217089000Y-43126200D03*
X219089000Y-44076200D03*
X219089000Y-42176200D03*
D14*
X143751000Y-42709300D03*
X142801000Y-44709300D03*
X144701000Y-44709300D03*
D13*
X117353000Y-42750600D03*
X117353000Y-44650600D03*
X115353000Y-43700600D03*
X178989000Y-43380200D03*
X180989000Y-44330200D03*
X180989000Y-42430200D03*
D14*
X207318000Y-42082700D03*
X206368000Y-44082700D03*
X208268000Y-44082700D03*
X221095000Y-75838000D03*
X219195000Y-75838000D03*
X220145000Y-73838000D03*
D13*
X178994000Y-74749000D03*
X180994000Y-75699000D03*
X180994000Y-73799000D03*
X128394000Y-74997000D03*
X130394000Y-75947000D03*
X130394000Y-74047000D03*
D14*
X157601000Y-75784000D03*
X155701000Y-75784000D03*
X156651000Y-73784000D03*
D13*
X204394000Y-75003000D03*
X206394000Y-75953000D03*
X206394000Y-74053000D03*
D14*
X170295000Y-75838000D03*
X168395000Y-75838000D03*
X169345000Y-73838000D03*
D13*
X141094000Y-74997000D03*
X143094000Y-75947000D03*
X143094000Y-74047000D03*
X165971000Y-9208900D03*
X165971000Y-11108900D03*
X163971000Y-10158900D03*
X198737000Y-10732900D03*
X198737000Y-12632900D03*
X196737000Y-11682900D03*
X130191000Y-13081300D03*
X130191000Y-11181300D03*
X132191000Y-12131300D03*
X149876000Y-12379700D03*
X151876000Y-13329700D03*
X151876000Y-11429700D03*
X184037000Y-11936900D03*
X186037000Y-12886900D03*
X186037000Y-10986900D03*
X115459000Y-12252700D03*
X117459000Y-13202700D03*
X117459000Y-11302700D03*
X189498000Y-6475900D03*
X191498000Y-7425900D03*
X191498000Y-5525900D03*
X56150000Y-53020000D03*
X56150000Y-51120000D03*
X58150000Y-52070000D03*
X88630000Y-53340000D03*
X86630000Y-52390000D03*
X86630000Y-54290000D03*
D14*
X87310000Y-61325000D03*
X85410000Y-61325000D03*
X86360000Y-59325000D03*
D13*
X80375000Y-53025000D03*
X80375000Y-54925000D03*
X78375000Y-53975000D03*
D10*
X30720000Y-51435000D03*
X28970000Y-51435000D03*
X28970000Y-53975000D03*
X30720000Y-53975000D03*
X28970000Y-56515000D03*
X30720000Y-56515000D03*
X30720000Y-59055000D03*
X28970000Y-59055000D03*
X28970000Y-61595000D03*
X30720000Y-61595000D03*
X30720000Y-64135000D03*
X28970000Y-64135000D03*
X28970000Y-66675000D03*
X30720000Y-66675000D03*
X30720000Y-69215000D03*
X28970000Y-69215000D03*
D11*
X156993000Y-42825600D03*
X156993000Y-44575600D03*
X126513000Y-44321600D03*
X126513000Y-42571600D03*
X190149000Y-44001200D03*
X190149000Y-42251200D03*
X220629000Y-44001200D03*
X220629000Y-42251200D03*
X146291000Y-42834300D03*
X146291000Y-44584300D03*
X113813000Y-42825600D03*
X113813000Y-44575600D03*
X177449000Y-42505200D03*
X177449000Y-44255200D03*
X209858000Y-43957700D03*
X209858000Y-42207700D03*
D15*
X102529000Y-69152000D03*
X99519000Y-69152000D03*
X102529000Y-66612000D03*
X99519000Y-66612000D03*
X102529000Y-64071900D03*
X99519000Y-64071900D03*
X102529000Y-61531900D03*
X99519000Y-61531900D03*
X102529000Y-58991900D03*
X99519000Y-58991900D03*
X102529000Y-53911900D03*
X99519000Y-53911900D03*
X99519000Y-56451900D03*
X102529000Y-56451900D03*
X99519000Y-51371900D03*
X102529000Y-51371900D03*
D11*
X222685000Y-73963000D03*
X222685000Y-75713000D03*
X177454000Y-73874000D03*
X177454000Y-75624000D03*
X126854000Y-75872000D03*
X126854000Y-74122000D03*
X159191000Y-73909000D03*
X159191000Y-75659000D03*
X202854000Y-74128000D03*
X202854000Y-75878000D03*
X171885000Y-73963000D03*
X171885000Y-75713000D03*
X139554000Y-74122000D03*
X139554000Y-75872000D03*
D15*
X99421000Y-100910000D03*
X102431000Y-100910000D03*
X99421000Y-98370000D03*
X102431000Y-98370000D03*
X102431000Y-95830000D03*
X99421000Y-95830000D03*
X99421000Y-93290000D03*
X102431000Y-93290000D03*
X99421000Y-90750000D03*
X102431000Y-90750000D03*
X102431000Y-85670000D03*
X99421000Y-85670000D03*
X99421000Y-88210000D03*
X102431000Y-88210000D03*
X99421000Y-83130000D03*
X102431000Y-83130000D03*
D11*
X162431000Y-9283900D03*
X162431000Y-11033900D03*
X195275000Y-12584400D03*
X195275000Y-10834400D03*
X133731000Y-11256300D03*
X133731000Y-13006300D03*
X148412000Y-13254700D03*
X148412000Y-11504700D03*
X182497000Y-11061900D03*
X182497000Y-12811900D03*
X113919000Y-13127700D03*
X113919000Y-11377700D03*
X188036000Y-5602000D03*
X188036000Y-7352000D03*
D15*
X99449000Y-37472800D03*
X102459000Y-37472800D03*
X99449000Y-34932800D03*
X102459000Y-34932800D03*
X99449000Y-32392800D03*
X102459000Y-32392800D03*
X99449000Y-29852800D03*
X102459000Y-29852800D03*
X102459000Y-27312800D03*
X99449000Y-27312800D03*
X99449000Y-22232800D03*
X102459000Y-22232800D03*
X99449000Y-24772800D03*
X102459000Y-24772800D03*
D11*
X13081000Y-126252000D03*
X13081000Y-128002000D03*
X24037000Y-135976000D03*
X24037000Y-134226000D03*
D10*
X55612000Y-54737000D03*
X53862000Y-54737000D03*
D11*
X59690000Y-51195000D03*
X59690000Y-52945000D03*
D10*
X58660000Y-54737000D03*
X56910000Y-54737000D03*
D11*
X90170000Y-54370000D03*
X90170000Y-56120000D03*
D10*
X86755000Y-55880000D03*
X88505000Y-55880000D03*
X89568000Y-58420000D03*
X87818000Y-58420000D03*
D11*
X88693000Y-61761700D03*
X88693000Y-60011700D03*
X76835000Y-53100000D03*
X76835000Y-54850000D03*
D10*
X76902000Y-51737500D03*
X78652000Y-51737500D03*
X84455000Y-53340000D03*
X82705000Y-53340000D03*
X59450000Y-42545000D03*
X61200000Y-42545000D03*
X66280000Y-41275000D03*
X64530000Y-41275000D03*
M02*
