G04 #@! TF.GenerationSoftware,KiCad,Pcbnew,5.0.0-rc2-dev-unknown-c6ef0d5~62~ubuntu17.10.1*
G04 #@! TF.CreationDate,2018-03-22T21:06:56-04:00*
G04 #@! TF.ProjectId,quokka,71756F6B6B612E6B696361645F706362,rev?*
G04 #@! TF.SameCoordinates,PX9936698PY214e9c8*
G04 #@! TF.FileFunction,Copper,L4,Bot,Signal*
G04 #@! TF.FilePolarity,Positive*
%FSLAX46Y46*%
G04 Gerber Fmt 4.6, Leading zero omitted, Abs format (unit mm)*
G04 Created by KiCad (PCBNEW 5.0.0-rc2-dev-unknown-c6ef0d5~62~ubuntu17.10.1) date Thu Mar 22 21:06:56 2018*
%MOMM*%
%LPD*%
G01*
G04 APERTURE LIST*
%ADD10C,1.000000*%
%ADD11O,1.700000X1.700000*%
%ADD12R,1.700000X1.700000*%
%ADD13C,1.600000*%
%ADD14R,0.670000X1.000000*%
%ADD15R,1.600000X1.600000*%
%ADD16R,1.000000X0.670000*%
%ADD17R,1.800000X1.070000*%
%ADD18R,2.600000X2.600000*%
%ADD19C,2.600000*%
%ADD20C,1.700000*%
%ADD21C,3.400000*%
%ADD22R,0.900000X0.800000*%
%ADD23R,0.800000X0.900000*%
%ADD24R,1.070000X1.800000*%
%ADD25C,2.200000*%
%ADD26O,1.600000X1.600000*%
%ADD27C,0.800000*%
%ADD28C,0.250000*%
%ADD29C,0.177800*%
G04 APERTURE END LIST*
D10*
X8255000Y-1905000D03*
X1905000Y-182245000D03*
X226695000Y-1905000D03*
D11*
X24765000Y-71755000D03*
X24765000Y-69215000D03*
X24765000Y-66675000D03*
X24765000Y-64135000D03*
X24765000Y-61595000D03*
X24765000Y-59055000D03*
X24765000Y-56515000D03*
X24765000Y-53975000D03*
D12*
X24765000Y-51435000D03*
D13*
X10160000Y-86360000D03*
X10160000Y-83820000D03*
X10160000Y-81280000D03*
X10160000Y-78740000D03*
X10160000Y-76200000D03*
X10160000Y-73660000D03*
X10160000Y-71120000D03*
X10160000Y-68580000D03*
X10160000Y-66040000D03*
X10160000Y-63500000D03*
X10160000Y-60960000D03*
X10160000Y-58420000D03*
X10160000Y-55880000D03*
X10160000Y-53340000D03*
X10160000Y-50800000D03*
X10160000Y-48260000D03*
X10160000Y-45720000D03*
X10160000Y-43180000D03*
X10160000Y-40640000D03*
X10160000Y-38100000D03*
X10160000Y-35560000D03*
X10160000Y-33020000D03*
X10160000Y-30480000D03*
X10160000Y-27940000D03*
X10160000Y-25400000D03*
X10160000Y-22860000D03*
X10160000Y-20320000D03*
X10160000Y-17780000D03*
X10160000Y-15240000D03*
X10160000Y-12700000D03*
X10160000Y-10160000D03*
X10160000Y-7620000D03*
X7620000Y-86360000D03*
X7620000Y-83820000D03*
X7620000Y-81280000D03*
X7620000Y-78740000D03*
X7620000Y-76200000D03*
X7620000Y-73660000D03*
X7620000Y-71120000D03*
X7620000Y-68580000D03*
X7620000Y-66040000D03*
X7620000Y-63500000D03*
X7620000Y-60960000D03*
X7620000Y-58420000D03*
X7620000Y-55880000D03*
X7620000Y-53340000D03*
X7620000Y-50800000D03*
X7620000Y-48260000D03*
X7620000Y-45720000D03*
X7620000Y-43180000D03*
X7620000Y-40640000D03*
X7620000Y-38100000D03*
X7620000Y-35560000D03*
X7620000Y-33020000D03*
X7620000Y-30480000D03*
X7620000Y-27940000D03*
X7620000Y-25400000D03*
X7620000Y-22860000D03*
X7620000Y-20320000D03*
X7620000Y-17780000D03*
X7620000Y-15240000D03*
X7620000Y-12700000D03*
X7620000Y-10160000D03*
X7620000Y-7620000D03*
X5080000Y-86360000D03*
X5080000Y-83820000D03*
X5080000Y-81280000D03*
X5080000Y-78740000D03*
X5080000Y-76200000D03*
X5080000Y-73660000D03*
X5080000Y-71120000D03*
X5080000Y-68580000D03*
X5080000Y-66040000D03*
X5080000Y-63500000D03*
X5080000Y-60960000D03*
X5080000Y-58420000D03*
X5080000Y-55880000D03*
X5080000Y-53340000D03*
X5080000Y-50800000D03*
X5080000Y-48260000D03*
X5080000Y-45720000D03*
X5080000Y-43180000D03*
X5080000Y-40640000D03*
X5080000Y-38100000D03*
X5080000Y-35560000D03*
X5080000Y-33020000D03*
X5080000Y-30480000D03*
X5080000Y-27940000D03*
X5080000Y-25400000D03*
X5080000Y-22860000D03*
X5080000Y-20320000D03*
X5080000Y-17780000D03*
X5080000Y-15240000D03*
X5080000Y-12700000D03*
X5080000Y-10160000D03*
X5080000Y-7620000D03*
D14*
X39610000Y-153035000D03*
X37860000Y-153035000D03*
D13*
X132715000Y-31115000D03*
X132715000Y-15875000D03*
X130175000Y-31115000D03*
X130175000Y-15875000D03*
X127635000Y-31115000D03*
X127635000Y-15875000D03*
X125095000Y-31115000D03*
X125095000Y-15875000D03*
X122555000Y-31115000D03*
X122555000Y-15875000D03*
X120015000Y-31115000D03*
X120015000Y-15875000D03*
X117475000Y-31115000D03*
X117475000Y-15875000D03*
X114935000Y-31115000D03*
X114935000Y-15875000D03*
D15*
X112395000Y-31115000D03*
D13*
X112395000Y-15875000D03*
D15*
X53340000Y-4445000D03*
D13*
X50840000Y-4445000D03*
X74930000Y-12390000D03*
D15*
X74930000Y-8890000D03*
X73025000Y-20320000D03*
D13*
X76525000Y-20320000D03*
D14*
X44859000Y-46355000D03*
X46609000Y-46355000D03*
X51209000Y-52705000D03*
X52959000Y-52705000D03*
D16*
X34290000Y-81675000D03*
X34290000Y-83425000D03*
D14*
X40513000Y-79375000D03*
X38763000Y-79375000D03*
X50449000Y-66307000D03*
X52199000Y-66307000D03*
X50449000Y-72657000D03*
X52199000Y-72657000D03*
X52199000Y-67577000D03*
X50449000Y-67577000D03*
X50449000Y-62496800D03*
X52199000Y-62496800D03*
D16*
X60960000Y-57545000D03*
X60960000Y-59295000D03*
X52705000Y-59295000D03*
X52705000Y-57545000D03*
X59690000Y-57545000D03*
X59690000Y-59295000D03*
X67945000Y-59295000D03*
X67945000Y-57545000D03*
D14*
X70090000Y-68580000D03*
X68340000Y-68580000D03*
X68340000Y-73025000D03*
X70090000Y-73025000D03*
X70090000Y-67310000D03*
X68340000Y-67310000D03*
X68340000Y-61595000D03*
X70090000Y-61595000D03*
D16*
X59690000Y-77075000D03*
X59690000Y-75325000D03*
X60960000Y-77075000D03*
X60960000Y-75325000D03*
X67945000Y-77075000D03*
X67945000Y-75325000D03*
X52705000Y-75325000D03*
X52705000Y-77075000D03*
D14*
X52199000Y-71387000D03*
X50449000Y-71387000D03*
X50449000Y-70117000D03*
X52199000Y-70117000D03*
X52199000Y-65036800D03*
X50449000Y-65036800D03*
X50449000Y-63766800D03*
X52199000Y-63766800D03*
X68340000Y-64092000D03*
X70090000Y-64092000D03*
X70090000Y-62822000D03*
X68340000Y-62822000D03*
X68340000Y-71120000D03*
X70090000Y-71120000D03*
X70090000Y-69850000D03*
X68340000Y-69850000D03*
X45480000Y-71120000D03*
X47230000Y-71120000D03*
X47230000Y-69850000D03*
X45480000Y-69850000D03*
X45480000Y-64770000D03*
X47230000Y-64770000D03*
X47230000Y-63131800D03*
X45480000Y-63131800D03*
X75805000Y-70485000D03*
X74055000Y-70485000D03*
X74055000Y-69215000D03*
X75805000Y-69215000D03*
X75805000Y-64770000D03*
X74055000Y-64770000D03*
X74055000Y-63500000D03*
X75805000Y-63500000D03*
X76265000Y-36247500D03*
X78015000Y-36247500D03*
D16*
X77140000Y-43343800D03*
X77140000Y-41593800D03*
D14*
X72300000Y-36118800D03*
X70550000Y-36118800D03*
X76265000Y-37517500D03*
X78015000Y-37517500D03*
X69915000Y-40563800D03*
X71665000Y-40563800D03*
D16*
X75870000Y-43343800D03*
X75870000Y-41593800D03*
D14*
X35955000Y-50800000D03*
X37705000Y-50800000D03*
X39765000Y-50800000D03*
X41515000Y-50800000D03*
D16*
X99060000Y-41162000D03*
X99060000Y-42912000D03*
D14*
X93712000Y-49530000D03*
X91962000Y-49530000D03*
X91962000Y-60960000D03*
X93712000Y-60960000D03*
D16*
X99060000Y-73039000D03*
X99060000Y-74789000D03*
D14*
X93585000Y-92710000D03*
X91835000Y-92710000D03*
X93839000Y-81153000D03*
X92089000Y-81153000D03*
D16*
X102616000Y-12079000D03*
X102616000Y-13829000D03*
D14*
X91962000Y-29210000D03*
X93712000Y-29210000D03*
X93712000Y-17653000D03*
X91962000Y-17653000D03*
D16*
X56515000Y-145655000D03*
X56515000Y-143905000D03*
D14*
X37860000Y-125730000D03*
X39610000Y-125730000D03*
D16*
X13589000Y-143256000D03*
X13589000Y-141506000D03*
D17*
X8509000Y-141751000D03*
X8509000Y-144761000D03*
D14*
X37860000Y-144145000D03*
X39610000Y-144145000D03*
X39610000Y-135255000D03*
X37860000Y-135255000D03*
D16*
X40640000Y-61595000D03*
X40640000Y-63345000D03*
X61595000Y-91680000D03*
X61595000Y-89930000D03*
D14*
X82945000Y-59690000D03*
X84695000Y-59690000D03*
D16*
X43815000Y-91680000D03*
X43815000Y-89930000D03*
X70485000Y-91680000D03*
X70485000Y-89930000D03*
D14*
X82945000Y-77470000D03*
X84695000Y-77470000D03*
X84695000Y-68580000D03*
X82945000Y-68580000D03*
D16*
X52705000Y-89930000D03*
X52705000Y-91680000D03*
X61595000Y-87870000D03*
X61595000Y-86120000D03*
D14*
X79135000Y-59690000D03*
X80885000Y-59690000D03*
D16*
X43815000Y-87870000D03*
X43815000Y-86120000D03*
X70485000Y-87870000D03*
X70485000Y-86120000D03*
D14*
X79135000Y-77470000D03*
X80885000Y-77470000D03*
X80885000Y-68580000D03*
X79135000Y-68580000D03*
D16*
X52705000Y-86120000D03*
X52705000Y-87870000D03*
D14*
X59450000Y-44450000D03*
X61200000Y-44450000D03*
D13*
X158115000Y-62865000D03*
X158115000Y-47625000D03*
X155575000Y-62865000D03*
X155575000Y-47625000D03*
X153035000Y-62865000D03*
X153035000Y-47625000D03*
X150495000Y-62865000D03*
X150495000Y-47625000D03*
X147955000Y-62865000D03*
X147955000Y-47625000D03*
X145415000Y-62865000D03*
X145415000Y-47625000D03*
X142875000Y-62865000D03*
X142875000Y-47625000D03*
X140335000Y-62865000D03*
X140335000Y-47625000D03*
D15*
X137795000Y-62865000D03*
D13*
X137795000Y-47625000D03*
X112395000Y-47625000D03*
D15*
X112395000Y-62865000D03*
D13*
X114935000Y-47625000D03*
X114935000Y-62865000D03*
X117475000Y-47625000D03*
X117475000Y-62865000D03*
X120015000Y-47625000D03*
X120015000Y-62865000D03*
X122555000Y-47625000D03*
X122555000Y-62865000D03*
X125095000Y-47625000D03*
X125095000Y-62865000D03*
X127635000Y-47625000D03*
X127635000Y-62865000D03*
X130175000Y-47625000D03*
X130175000Y-62865000D03*
X132715000Y-47625000D03*
X132715000Y-62865000D03*
X196215000Y-62865000D03*
X196215000Y-47625000D03*
X193675000Y-62865000D03*
X193675000Y-47625000D03*
X191135000Y-62865000D03*
X191135000Y-47625000D03*
X188595000Y-62865000D03*
X188595000Y-47625000D03*
X186055000Y-62865000D03*
X186055000Y-47625000D03*
X183515000Y-62865000D03*
X183515000Y-47625000D03*
X180975000Y-62865000D03*
X180975000Y-47625000D03*
X178435000Y-62865000D03*
X178435000Y-47625000D03*
D15*
X175895000Y-62865000D03*
D13*
X175895000Y-47625000D03*
X201295000Y-47625000D03*
D15*
X201295000Y-62865000D03*
D13*
X203835000Y-47625000D03*
X203835000Y-62865000D03*
X206375000Y-47625000D03*
X206375000Y-62865000D03*
X208915000Y-47625000D03*
X208915000Y-62865000D03*
X211455000Y-47625000D03*
X211455000Y-62865000D03*
X213995000Y-47625000D03*
X213995000Y-62865000D03*
X216535000Y-47625000D03*
X216535000Y-62865000D03*
X219075000Y-47625000D03*
X219075000Y-62865000D03*
X221615000Y-47625000D03*
X221615000Y-62865000D03*
X221615000Y-94615000D03*
X221615000Y-79375000D03*
X219075000Y-94615000D03*
X219075000Y-79375000D03*
X216535000Y-94615000D03*
X216535000Y-79375000D03*
X213995000Y-94615000D03*
X213995000Y-79375000D03*
X211455000Y-94615000D03*
X211455000Y-79375000D03*
X208915000Y-94615000D03*
X208915000Y-79375000D03*
X206375000Y-94615000D03*
X206375000Y-79375000D03*
X203835000Y-94615000D03*
X203835000Y-79375000D03*
D15*
X201295000Y-94615000D03*
D13*
X201295000Y-79375000D03*
X163195000Y-79375000D03*
D15*
X163195000Y-94615000D03*
D13*
X165735000Y-79375000D03*
X165735000Y-94615000D03*
X168275000Y-79375000D03*
X168275000Y-94615000D03*
X170815000Y-79375000D03*
X170815000Y-94615000D03*
X173355000Y-79375000D03*
X173355000Y-94615000D03*
X175895000Y-79375000D03*
X175895000Y-94615000D03*
X178435000Y-79375000D03*
X178435000Y-94615000D03*
X180975000Y-79375000D03*
X180975000Y-94615000D03*
X183515000Y-79375000D03*
X183515000Y-94615000D03*
X132715000Y-94615000D03*
X132715000Y-79375000D03*
X130175000Y-94615000D03*
X130175000Y-79375000D03*
X127635000Y-94615000D03*
X127635000Y-79375000D03*
X125095000Y-94615000D03*
X125095000Y-79375000D03*
X122555000Y-94615000D03*
X122555000Y-79375000D03*
X120015000Y-94615000D03*
X120015000Y-79375000D03*
X117475000Y-94615000D03*
X117475000Y-79375000D03*
X114935000Y-94615000D03*
X114935000Y-79375000D03*
D15*
X112395000Y-94615000D03*
D13*
X112395000Y-79375000D03*
X137795000Y-79375000D03*
D15*
X137795000Y-94615000D03*
D13*
X140335000Y-79375000D03*
X140335000Y-94615000D03*
X142875000Y-79375000D03*
X142875000Y-94615000D03*
X145415000Y-79375000D03*
X145415000Y-94615000D03*
X147955000Y-79375000D03*
X147955000Y-94615000D03*
X150495000Y-79375000D03*
X150495000Y-94615000D03*
X153035000Y-79375000D03*
X153035000Y-94615000D03*
X155575000Y-79375000D03*
X155575000Y-94615000D03*
X158115000Y-79375000D03*
X158115000Y-94615000D03*
X146812000Y-15875000D03*
D15*
X146812000Y-31115000D03*
D13*
X149352000Y-15875000D03*
X149352000Y-31115000D03*
X151892000Y-15875000D03*
X151892000Y-31115000D03*
X154432000Y-15875000D03*
X154432000Y-31115000D03*
X156972000Y-15875000D03*
X156972000Y-31115000D03*
X159512000Y-15875000D03*
X159512000Y-31115000D03*
X162052000Y-15875000D03*
X162052000Y-31115000D03*
X164592000Y-15875000D03*
X164592000Y-31115000D03*
X167132000Y-15875000D03*
X167132000Y-31115000D03*
X181102000Y-15875000D03*
D15*
X181102000Y-31115000D03*
D13*
X183642000Y-15875000D03*
X183642000Y-31115000D03*
X186182000Y-15875000D03*
X186182000Y-31115000D03*
X188722000Y-15875000D03*
X188722000Y-31115000D03*
X191262000Y-15875000D03*
X191262000Y-31115000D03*
X193802000Y-15875000D03*
X193802000Y-31115000D03*
X196342000Y-15875000D03*
X196342000Y-31115000D03*
X198882000Y-15875000D03*
X198882000Y-31115000D03*
X201422000Y-15875000D03*
X201422000Y-31115000D03*
D18*
X24765000Y-13970000D03*
D19*
X24765000Y-7970000D03*
X20065000Y-10970000D03*
D12*
X75870000Y-31673800D03*
D11*
X78410000Y-31673800D03*
D12*
X56515000Y-48260000D03*
D11*
X59055000Y-48260000D03*
X61595000Y-48260000D03*
X64135000Y-48260000D03*
X66675000Y-48260000D03*
X69215000Y-48260000D03*
X71755000Y-48260000D03*
X74295000Y-48260000D03*
X76835000Y-48260000D03*
D12*
X81915000Y-43815000D03*
D11*
X81915000Y-46355000D03*
X81915000Y-48895000D03*
D20*
X88392000Y-14986000D03*
X85892000Y-14986000D03*
X88392000Y-12986000D03*
X85892000Y-12986000D03*
D21*
X93102000Y-10216000D03*
X81062000Y-10216000D03*
D12*
X87630000Y-93980000D03*
D11*
X87630000Y-91440000D03*
X87630000Y-88900000D03*
X87630000Y-86360000D03*
X87630000Y-83820000D03*
X87630000Y-81280000D03*
D12*
X37946000Y-102523000D03*
D11*
X35406000Y-102523000D03*
X35406000Y-107603000D03*
D12*
X37946000Y-107603000D03*
D22*
X155453000Y-42750600D03*
X155453000Y-44650600D03*
X153453000Y-43700600D03*
X128053000Y-43446600D03*
X130053000Y-44396600D03*
X130053000Y-42496600D03*
X193689000Y-42176200D03*
X193689000Y-44076200D03*
X191689000Y-43126200D03*
X217089000Y-43126200D03*
X219089000Y-44076200D03*
X219089000Y-42176200D03*
D23*
X143751000Y-42709300D03*
X142801000Y-44709300D03*
X144701000Y-44709300D03*
D22*
X117353000Y-42750600D03*
X117353000Y-44650600D03*
X115353000Y-43700600D03*
X178989000Y-43380200D03*
X180989000Y-44330200D03*
X180989000Y-42430200D03*
D23*
X207318000Y-42082700D03*
X206368000Y-44082700D03*
X208268000Y-44082700D03*
X221095000Y-75838000D03*
X219195000Y-75838000D03*
X220145000Y-73838000D03*
D22*
X178994000Y-74749000D03*
X180994000Y-75699000D03*
X180994000Y-73799000D03*
X128394000Y-74997000D03*
X130394000Y-75947000D03*
X130394000Y-74047000D03*
D23*
X157601000Y-75784000D03*
X155701000Y-75784000D03*
X156651000Y-73784000D03*
D22*
X204394000Y-75003000D03*
X206394000Y-75953000D03*
X206394000Y-74053000D03*
D23*
X170295000Y-75838000D03*
X168395000Y-75838000D03*
X169345000Y-73838000D03*
D22*
X141094000Y-74997000D03*
X143094000Y-75947000D03*
X143094000Y-74047000D03*
X165971000Y-9208900D03*
X165971000Y-11108900D03*
X163971000Y-10158900D03*
X198737000Y-10732900D03*
X198737000Y-12632900D03*
X196737000Y-11682900D03*
X130191000Y-13081300D03*
X130191000Y-11181300D03*
X132191000Y-12131300D03*
X149876000Y-12379700D03*
X151876000Y-13329700D03*
X151876000Y-11429700D03*
X184037000Y-11936900D03*
X186037000Y-12886900D03*
X186037000Y-10986900D03*
X115459000Y-12252700D03*
X117459000Y-13202700D03*
X117459000Y-11302700D03*
X189498000Y-6475900D03*
X191498000Y-7425900D03*
X191498000Y-5525900D03*
X56150000Y-53020000D03*
X56150000Y-51120000D03*
X58150000Y-52070000D03*
X88630000Y-53340000D03*
X86630000Y-52390000D03*
X86630000Y-54290000D03*
D23*
X87310000Y-61325000D03*
X85410000Y-61325000D03*
X86360000Y-59325000D03*
D22*
X80375000Y-53025000D03*
X80375000Y-54925000D03*
X78375000Y-53975000D03*
D14*
X30720000Y-51435000D03*
X28970000Y-51435000D03*
X28970000Y-53975000D03*
X30720000Y-53975000D03*
X28970000Y-56515000D03*
X30720000Y-56515000D03*
X30720000Y-59055000D03*
X28970000Y-59055000D03*
X28970000Y-61595000D03*
X30720000Y-61595000D03*
X30720000Y-64135000D03*
X28970000Y-64135000D03*
X28970000Y-66675000D03*
X30720000Y-66675000D03*
X30720000Y-69215000D03*
X28970000Y-69215000D03*
D16*
X156993000Y-42825600D03*
X156993000Y-44575600D03*
X126513000Y-44321600D03*
X126513000Y-42571600D03*
X190149000Y-44001200D03*
X190149000Y-42251200D03*
X220629000Y-44001200D03*
X220629000Y-42251200D03*
X146291000Y-42834300D03*
X146291000Y-44584300D03*
X113813000Y-42825600D03*
X113813000Y-44575600D03*
X177449000Y-42505200D03*
X177449000Y-44255200D03*
X209858000Y-43957700D03*
X209858000Y-42207700D03*
D24*
X102529000Y-69152000D03*
X99519000Y-69152000D03*
X102529000Y-66612000D03*
X99519000Y-66612000D03*
X102529000Y-64071900D03*
X99519000Y-64071900D03*
X102529000Y-61531900D03*
X99519000Y-61531900D03*
X102529000Y-58991900D03*
X99519000Y-58991900D03*
X102529000Y-53911900D03*
X99519000Y-53911900D03*
X99519000Y-56451900D03*
X102529000Y-56451900D03*
X99519000Y-51371900D03*
X102529000Y-51371900D03*
D16*
X222685000Y-73963000D03*
X222685000Y-75713000D03*
X177454000Y-73874000D03*
X177454000Y-75624000D03*
X126854000Y-75872000D03*
X126854000Y-74122000D03*
X159191000Y-73909000D03*
X159191000Y-75659000D03*
X202854000Y-74128000D03*
X202854000Y-75878000D03*
X171885000Y-73963000D03*
X171885000Y-75713000D03*
X139554000Y-74122000D03*
X139554000Y-75872000D03*
D24*
X99421000Y-100910000D03*
X102431000Y-100910000D03*
X99421000Y-98370000D03*
X102431000Y-98370000D03*
X102431000Y-95830000D03*
X99421000Y-95830000D03*
X99421000Y-93290000D03*
X102431000Y-93290000D03*
X99421000Y-90750000D03*
X102431000Y-90750000D03*
X102431000Y-85670000D03*
X99421000Y-85670000D03*
X99421000Y-88210000D03*
X102431000Y-88210000D03*
X99421000Y-83130000D03*
X102431000Y-83130000D03*
D16*
X162431000Y-9283900D03*
X162431000Y-11033900D03*
X195275000Y-12584400D03*
X195275000Y-10834400D03*
X133731000Y-11256300D03*
X133731000Y-13006300D03*
X148412000Y-13254700D03*
X148412000Y-11504700D03*
X182497000Y-11061900D03*
X182497000Y-12811900D03*
X113919000Y-13127700D03*
X113919000Y-11377700D03*
X188036000Y-5602000D03*
X188036000Y-7352000D03*
D24*
X99449000Y-37472800D03*
X102459000Y-37472800D03*
X99449000Y-34932800D03*
X102459000Y-34932800D03*
X99449000Y-32392800D03*
X102459000Y-32392800D03*
X99449000Y-29852800D03*
X102459000Y-29852800D03*
X102459000Y-27312800D03*
X99449000Y-27312800D03*
X99449000Y-22232800D03*
X102459000Y-22232800D03*
X99449000Y-24772800D03*
X102459000Y-24772800D03*
D16*
X13081000Y-126252000D03*
X13081000Y-128002000D03*
X24037000Y-135976000D03*
X24037000Y-134226000D03*
D14*
X55612000Y-54737000D03*
X53862000Y-54737000D03*
D16*
X59690000Y-51195000D03*
X59690000Y-52945000D03*
D14*
X58660000Y-54737000D03*
X56910000Y-54737000D03*
D16*
X90170000Y-54370000D03*
X90170000Y-56120000D03*
D14*
X86755000Y-55880000D03*
X88505000Y-55880000D03*
X89568000Y-58420000D03*
X87818000Y-58420000D03*
D16*
X88693000Y-61761700D03*
X88693000Y-60011700D03*
X76835000Y-53100000D03*
X76835000Y-54850000D03*
D14*
X76902000Y-51737500D03*
X78652000Y-51737500D03*
X84455000Y-53340000D03*
X82705000Y-53340000D03*
X59450000Y-42545000D03*
X61200000Y-42545000D03*
X66280000Y-41275000D03*
X64530000Y-41275000D03*
D25*
X55245000Y-109855000D03*
X61595000Y-107315000D03*
X80645000Y-107315000D03*
X74295000Y-109855000D03*
X55245000Y-167005000D03*
X61595000Y-164465000D03*
X118745000Y-107315000D03*
X112395000Y-109855000D03*
X112395000Y-128905000D03*
X118745000Y-126365000D03*
X118745000Y-145415000D03*
X112395000Y-147955000D03*
X74295000Y-128905000D03*
X80645000Y-126365000D03*
X99695000Y-107315000D03*
X93345000Y-109855000D03*
X153035000Y-109855000D03*
X159385000Y-107315000D03*
X178435000Y-107315000D03*
X172085000Y-109855000D03*
X191135000Y-109855000D03*
X197485000Y-107315000D03*
X216535000Y-107315000D03*
X210185000Y-109855000D03*
X74295000Y-147955000D03*
X80645000Y-145415000D03*
X99695000Y-126365000D03*
X93345000Y-128905000D03*
X153035000Y-128905000D03*
X159385000Y-126365000D03*
X178435000Y-126365000D03*
X172085000Y-128905000D03*
X197485000Y-126365000D03*
X191135000Y-128905000D03*
X210185000Y-128905000D03*
X216535000Y-126365000D03*
X80645000Y-164465000D03*
X74295000Y-167005000D03*
X93345000Y-147955000D03*
X99695000Y-145415000D03*
X159385000Y-145415000D03*
X153035000Y-147955000D03*
X172085000Y-147955000D03*
X178435000Y-145415000D03*
X197485000Y-145415000D03*
X191135000Y-147955000D03*
X210185000Y-147955000D03*
X216535000Y-145415000D03*
X99695000Y-164465000D03*
X93345000Y-167005000D03*
X112395000Y-167005000D03*
X118745000Y-164465000D03*
X159385000Y-164465000D03*
X153035000Y-167005000D03*
X172085000Y-167005000D03*
X178435000Y-164465000D03*
X197485000Y-164465000D03*
X191135000Y-167005000D03*
X210185000Y-167005000D03*
X216535000Y-164465000D03*
D15*
X11022000Y-123859000D03*
D26*
X26262000Y-172119000D03*
X11022000Y-126399000D03*
X26262000Y-169579000D03*
X11022000Y-128939000D03*
X26262000Y-167039000D03*
X11022000Y-131479000D03*
X26262000Y-164499000D03*
X11022000Y-134019000D03*
X26262000Y-161959000D03*
X11022000Y-136559000D03*
X26262000Y-159419000D03*
X11022000Y-139099000D03*
X26262000Y-156879000D03*
X11022000Y-141639000D03*
X26262000Y-154339000D03*
X11022000Y-144179000D03*
X26262000Y-151799000D03*
X11022000Y-146719000D03*
X26262000Y-149259000D03*
X11022000Y-149259000D03*
X26262000Y-146719000D03*
X11022000Y-151799000D03*
X26262000Y-144179000D03*
X11022000Y-154339000D03*
X26262000Y-141639000D03*
X11022000Y-156879000D03*
X26262000Y-139099000D03*
X11022000Y-159419000D03*
X26262000Y-136559000D03*
X11022000Y-161959000D03*
X26262000Y-134019000D03*
X11022000Y-164499000D03*
X26262000Y-131479000D03*
X11022000Y-167039000D03*
X26262000Y-128939000D03*
X11022000Y-169579000D03*
X26262000Y-126399000D03*
X11022000Y-172119000D03*
X26262000Y-123859000D03*
D27*
X37973000Y-58039000D03*
X76313317Y-44863916D03*
X62738000Y-87757000D03*
X50927000Y-87185500D03*
X88519000Y-19050000D03*
X53212913Y-71843810D03*
X53720996Y-69405500D03*
X68046000Y-65947590D03*
X75026252Y-69817248D03*
X53604559Y-46516022D03*
X54462697Y-46832546D03*
X82804000Y-54419496D03*
X177990504Y-43434000D03*
X114490498Y-12319000D03*
X89408000Y-55245000D03*
X114427000Y-43751500D03*
X163004500Y-10223500D03*
X190754000Y-43180000D03*
X83883500Y-60452000D03*
X148971000Y-12445988D03*
X127063500Y-43497500D03*
X13081012Y-128905000D03*
X44005512Y-84836000D03*
X77343000Y-44195982D03*
X70040500Y-86931486D03*
X61976000Y-84899500D03*
X52014426Y-86992170D03*
X69341185Y-68075239D03*
X70770220Y-40638692D03*
X59817000Y-6985000D03*
X60071000Y-8001000D03*
X59563000Y-9017000D03*
X58547000Y-9017000D03*
X67204000Y-12247200D03*
X60579000Y-12827000D03*
X60579000Y-13843000D03*
X60579000Y-14859000D03*
X62357000Y-15621000D03*
X61341000Y-15621000D03*
X93345000Y-58547000D03*
X37973000Y-57023000D03*
X53721000Y-92837000D03*
X8509000Y-143637000D03*
X13589000Y-144145000D03*
X39497000Y-126873000D03*
X39497000Y-154051000D03*
X44323000Y-153035000D03*
X44323000Y-144145000D03*
X40513000Y-144145000D03*
X40513000Y-135255000D03*
X81915000Y-77089000D03*
X81915000Y-78105000D03*
X85979000Y-76327000D03*
X85979000Y-70485000D03*
X79883000Y-51435000D03*
X81407000Y-54991000D03*
X86233000Y-62357000D03*
X83693000Y-61595000D03*
X83439000Y-58293000D03*
X81915000Y-59055000D03*
X81915000Y-60071000D03*
X80137000Y-61087000D03*
X81915000Y-67945000D03*
X81915000Y-68961000D03*
X80137000Y-70231000D03*
X74933000Y-64101700D03*
X44069000Y-70231000D03*
X44577000Y-65151000D03*
X44577000Y-64135000D03*
X36703000Y-64389000D03*
X54991000Y-51181000D03*
X79629000Y-36957000D03*
X88265000Y-21209000D03*
X97155000Y-16891000D03*
X93345000Y-16637000D03*
X44831000Y-47625000D03*
X53213000Y-51435000D03*
X54483000Y-43815000D03*
X54483000Y-44831000D03*
X54483000Y-45847000D03*
X53467000Y-43815000D03*
X53467000Y-44831000D03*
X53467000Y-45847000D03*
X62357000Y-44323000D03*
X65151000Y-40005000D03*
X71755000Y-33655000D03*
X73279000Y-29845000D03*
X81407000Y-38735000D03*
X76835000Y-40767000D03*
X75819000Y-40767000D03*
X71501000Y-39497000D03*
X75311000Y-37465000D03*
X75311000Y-36195000D03*
X73279000Y-36195000D03*
X59055000Y-36195000D03*
X59055000Y-32385000D03*
X104013000Y-4953000D03*
X104013000Y-12065000D03*
X98425000Y-13843000D03*
X95885000Y-29337000D03*
X93345000Y-26797000D03*
X93853000Y-30353000D03*
X93345000Y-38227000D03*
X99187000Y-43815000D03*
X90297000Y-42545000D03*
X99187000Y-47879000D03*
X95885000Y-49657000D03*
X93853000Y-50673000D03*
X83693000Y-52451000D03*
X86741000Y-51435000D03*
X95885000Y-61087000D03*
X93853000Y-62103000D03*
X90551000Y-69977000D03*
X89281000Y-72771000D03*
X97917000Y-74803000D03*
X99187000Y-76835000D03*
X98679000Y-81153000D03*
X93599000Y-80137000D03*
X60071000Y-87249000D03*
X68961000Y-87249000D03*
X77851000Y-87249000D03*
X77597000Y-92837000D03*
X68707000Y-92837000D03*
X59817000Y-92837000D03*
X50927000Y-92837000D03*
X42545000Y-79375000D03*
X37719000Y-51943000D03*
X39751000Y-51943000D03*
X42575000Y-52219500D03*
X55245000Y-145669000D03*
X43815000Y-89027000D03*
X52705000Y-89027000D03*
X61595000Y-89027000D03*
X70485000Y-89027000D03*
X71501000Y-88265000D03*
X53721000Y-88265000D03*
X44831000Y-88265000D03*
X35433000Y-83439000D03*
X34671000Y-74803000D03*
X33655000Y-74803000D03*
X32639000Y-74803000D03*
X32639000Y-75819000D03*
X32639000Y-76835000D03*
X67437000Y-69215000D03*
X66929000Y-68453000D03*
X53721000Y-62357000D03*
X53467000Y-65151000D03*
X53467000Y-66675000D03*
X68249000Y-71736000D03*
X67884000Y-62312600D03*
X63246000Y-14097000D03*
X58801000Y-21336000D03*
X60706000Y-23241000D03*
X59944000Y-23241000D03*
X59944000Y-22479000D03*
X60706000Y-22479000D03*
X20955000Y-67945000D03*
X20955000Y-55880000D03*
X27827000Y-51435000D03*
X27827000Y-53975000D03*
X27827000Y-56515000D03*
X27827000Y-59055000D03*
X27827000Y-61595000D03*
X27827000Y-64135000D03*
X27827000Y-66675000D03*
X28575000Y-70543000D03*
X58420000Y-15621000D03*
X62865000Y-16764000D03*
X60452000Y-16891000D03*
X59182000Y-15621000D03*
X64389000Y-13081000D03*
X65151000Y-13081000D03*
X65151000Y-12319000D03*
X64389000Y-12319000D03*
X70485000Y-7620000D03*
X61595000Y-7620000D03*
X57658000Y-12039600D03*
X57658000Y-13157200D03*
X57658000Y-14300200D03*
X56693000Y-14300200D03*
X56693000Y-13182600D03*
X57074000Y-9067800D03*
X41783000Y-63373000D03*
X51239000Y-60618900D03*
X69469000Y-59563000D03*
X65659000Y-76581000D03*
X55499000Y-76581000D03*
X53213000Y-72771000D03*
X52705000Y-74295000D03*
X59817000Y-74295000D03*
X61087000Y-74295000D03*
X67691000Y-74295000D03*
X67437000Y-73025000D03*
X67437000Y-61595000D03*
X66675000Y-59309000D03*
X65151000Y-58039000D03*
X62103000Y-58039000D03*
X60833000Y-60325000D03*
X59563000Y-60325000D03*
X58293000Y-58039000D03*
X54991000Y-58039000D03*
X52705000Y-60325000D03*
X49911000Y-150495000D03*
X49657000Y-144145000D03*
X64135000Y-143891000D03*
X42291000Y-146685000D03*
X42291000Y-137795000D03*
X42291000Y-128905000D03*
X43307000Y-126619000D03*
X38735000Y-121539000D03*
X38735000Y-120269000D03*
X42291000Y-120015000D03*
X37465000Y-113030000D03*
X90594000Y-90463300D03*
X95998700Y-92482400D03*
X93236000Y-101573200D03*
X94023200Y-91239400D03*
X23495000Y-137033000D03*
X37361149Y-135541285D03*
X37081410Y-126649486D03*
X37719000Y-154050996D03*
X90805000Y-92075000D03*
X104775000Y-77851000D03*
X49657000Y-149479000D03*
X13589000Y-142367000D03*
X36957000Y-144145000D03*
X85725000Y-77597000D03*
X85725000Y-68453000D03*
X91059000Y-16891000D03*
X104013000Y-13843000D03*
X126873000Y-75057000D03*
X139573000Y-75057000D03*
X157861000Y-73279000D03*
X170561000Y-73533000D03*
X177419000Y-74803000D03*
X202819000Y-75057000D03*
X221361000Y-73533000D03*
X145161000Y-42291000D03*
X154559000Y-43815000D03*
X208661000Y-41275000D03*
X218313000Y-43053000D03*
X90551000Y-29083000D03*
X100203000Y-41275000D03*
X92075000Y-48387000D03*
X88773000Y-58293000D03*
X91567000Y-59817000D03*
X100203000Y-72771000D03*
X91059000Y-80391000D03*
X34671000Y-50927000D03*
X61087000Y-144907000D03*
X52959000Y-143891000D03*
X70485000Y-92837000D03*
X61595000Y-92837000D03*
X52705000Y-92837000D03*
X43815000Y-92837000D03*
X188417000Y-6527800D03*
X195707000Y-11734800D03*
X183008000Y-11949200D03*
X133248000Y-12090400D03*
X70663000Y-3098800D03*
X69647000Y-3098800D03*
X68631000Y-3098800D03*
X67615000Y-3098800D03*
X66599000Y-3098800D03*
X65583000Y-3098800D03*
X64567000Y-3098800D03*
X63551000Y-3098800D03*
X62535000Y-3098800D03*
X61519000Y-3098800D03*
X70663000Y-2209800D03*
X69647000Y-2209800D03*
X68631000Y-2209800D03*
X67615000Y-2209800D03*
X66599000Y-2209800D03*
X65583000Y-2209800D03*
X64567000Y-2209800D03*
X63551000Y-2209800D03*
X62535000Y-2209800D03*
X61519000Y-2209800D03*
X55169000Y-19050000D03*
X55143000Y-19989800D03*
X56363000Y-19989800D03*
X56363000Y-19024600D03*
X60579000Y-25273000D03*
X57404000Y-20015200D03*
X57429000Y-19050000D03*
X40513000Y-69215000D03*
X78359000Y-77851000D03*
X78105000Y-59055000D03*
X75819000Y-54991000D03*
X80025000Y-67908000D03*
X76581000Y-67437000D03*
X39243000Y-61595000D03*
X60833000Y-52959000D03*
X58293000Y-44831000D03*
X61341000Y-41529000D03*
X64389000Y-42291000D03*
X71412000Y-36195000D03*
X78867000Y-35941000D03*
X59055000Y-31115000D03*
X45847000Y-47117000D03*
X45847000Y-46101000D03*
X47879000Y-44831000D03*
X46863000Y-44831000D03*
X45847000Y-45085000D03*
X42799000Y-50673000D03*
X71247000Y-16002000D03*
X71247000Y-17018000D03*
X69977000Y-17018000D03*
X71247000Y-18034000D03*
X69977000Y-18034000D03*
X71247000Y-19050000D03*
X69977000Y-19050000D03*
X71247000Y-20066000D03*
X69977000Y-20066000D03*
X71247000Y-21082000D03*
X69977000Y-21082000D03*
X71247000Y-22098000D03*
X69977000Y-22098000D03*
X71247000Y-23114000D03*
X69977000Y-23114000D03*
X71247000Y-24130000D03*
X69977000Y-24130000D03*
X71247000Y-25146000D03*
X69977000Y-25146000D03*
X51298000Y-66963000D03*
X51286000Y-72771000D03*
X52705000Y-76238000D03*
X60366000Y-76230000D03*
X67945000Y-76238000D03*
X69253000Y-73025000D03*
X69253000Y-61849000D03*
X67945000Y-58382200D03*
X60284000Y-58389900D03*
X52705000Y-58382200D03*
X51181000Y-61595000D03*
X51293000Y-70737410D03*
X49974500Y-48090590D03*
X49085500Y-48090590D03*
X46850210Y-50863326D03*
X49342239Y-50861472D03*
X48072239Y-50861472D03*
X50673000Y-50861472D03*
X51943000Y-50861472D03*
X51943000Y-51943000D03*
X51943000Y-53213000D03*
X61849000Y-63627000D03*
X49403000Y-54483000D03*
X59309000Y-63627000D03*
X69253000Y-63627000D03*
X60579000Y-63627000D03*
X32385000Y-80645000D03*
X32385000Y-81661000D03*
X51293000Y-64352400D03*
X61849000Y-70485000D03*
X60579000Y-70485000D03*
X59309000Y-70485000D03*
X51943000Y-54483000D03*
X50673000Y-54483000D03*
X48133000Y-54483000D03*
X46863000Y-51943000D03*
X46863000Y-53213000D03*
X46863000Y-54483000D03*
X69238000Y-70480000D03*
X37211000Y-78867000D03*
X36195000Y-78867000D03*
X42545000Y-78105000D03*
X42545000Y-77089000D03*
X38735000Y-78105000D03*
X38735000Y-77089000D03*
X39497000Y-76073000D03*
X40513000Y-76073000D03*
X41529000Y-76073000D03*
X42545000Y-76073000D03*
X48133000Y-70485000D03*
X72771000Y-69977000D03*
X72517000Y-64135000D03*
X48144000Y-64446700D03*
X31839900Y-51435000D03*
X31843000Y-53975000D03*
X31852600Y-56515000D03*
X31843500Y-59055000D03*
X31861200Y-61034100D03*
X31877200Y-64394400D03*
X31843600Y-66675000D03*
X30280000Y-70541600D03*
X154377100Y-44902000D03*
X140370600Y-66388100D03*
X149607300Y-80572000D03*
X123546500Y-77758100D03*
X146865800Y-81914400D03*
X161212500Y-80177300D03*
X191498000Y-9132300D03*
X155723600Y-34001900D03*
X132715000Y-27305000D03*
X164529500Y-8255000D03*
X159512000Y-12326900D03*
X54208680Y-48671443D03*
X53803900Y-39600100D03*
X56108700Y-69285100D03*
X73446900Y-55245000D03*
X68984200Y-43759100D03*
X38516400Y-60972900D03*
X41160700Y-64237500D03*
X43375000Y-71200500D03*
X60114000Y-49435900D03*
X56425400Y-42413000D03*
X44509900Y-67658800D03*
X55519700Y-61658100D03*
X56482300Y-61702600D03*
X54737008Y-47879000D03*
X46916800Y-68055000D03*
X70856100Y-41629000D03*
X64282600Y-39476200D03*
X22381500Y-41135500D03*
X37050300Y-62570600D03*
X38650800Y-59730900D03*
X85979000Y-21209000D03*
X86487000Y-33655000D03*
X76982000Y-90377900D03*
X65198400Y-73808200D03*
X64055300Y-61165000D03*
X71867600Y-54347700D03*
X154400500Y-42860300D03*
X124802700Y-42948100D03*
X190240200Y-39540800D03*
X219089000Y-38696300D03*
X144701000Y-45722200D03*
X112824500Y-43815000D03*
X176671300Y-41580800D03*
X204437600Y-40845300D03*
X221095000Y-76863700D03*
X94636300Y-76890500D03*
X100013400Y-73726000D03*
X177454000Y-72242700D03*
X128079500Y-71882000D03*
X154768900Y-70629200D03*
X200799400Y-75579300D03*
X121886000Y-76647300D03*
X95383200Y-74194800D03*
X97651800Y-80250000D03*
X140081000Y-71374000D03*
X115915400Y-10667800D03*
X195275000Y-9878300D03*
X117511200Y-10137400D03*
X118237300Y-9455300D03*
X181431100Y-10773700D03*
X112827400Y-11303000D03*
X186547700Y-2074410D03*
X54825800Y-41839700D03*
X43706100Y-39533400D03*
X88860500Y-47609500D03*
X88860500Y-49582300D03*
X74421300Y-53542300D03*
X95692800Y-66040000D03*
X94989100Y-63565600D03*
X100633600Y-67852700D03*
X95995600Y-63744600D03*
X94827200Y-54610000D03*
X96012200Y-52603000D03*
X100533200Y-55245000D03*
X100607000Y-52070000D03*
X95244700Y-97596200D03*
X95841200Y-95029900D03*
X100500200Y-99602700D03*
X95163500Y-95885000D03*
X93528300Y-87032900D03*
X95987600Y-83820000D03*
X94997000Y-86837400D03*
X100511300Y-83820000D03*
X94707900Y-34646800D03*
X94688100Y-31750000D03*
X100509000Y-36122000D03*
X96103600Y-32387800D03*
X94183500Y-22860000D03*
X95999400Y-21677500D03*
X100551200Y-23402800D03*
X19833600Y-111651300D03*
X86215700Y-64391500D03*
X92085400Y-91513300D03*
X92885600Y-106554300D03*
X76857500Y-127322800D03*
X50961900Y-75560000D03*
X73531900Y-56481200D03*
X70209800Y-55367600D03*
X83645439Y-55031769D03*
X87614300Y-59760100D03*
X84455010Y-51371500D03*
X90404900Y-64177800D03*
X94643300Y-64715500D03*
X104043600Y-144026700D03*
X57786800Y-42545000D03*
X63711200Y-42990700D03*
X59575000Y-54934600D03*
X58677400Y-106590700D03*
X98007600Y-108058500D03*
X62765100Y-65255900D03*
X67272600Y-115691500D03*
X113772800Y-127389000D03*
X72594400Y-58030400D03*
X102963200Y-115074300D03*
X94896500Y-103481300D03*
X93519400Y-102869000D03*
X76636600Y-106710600D03*
X62159100Y-58998700D03*
X62226100Y-55263200D03*
X63211700Y-54209400D03*
X65712800Y-51756900D03*
X77261500Y-50681100D03*
X88127400Y-51820400D03*
X90178000Y-44628500D03*
X92480400Y-44002500D03*
X94011500Y-44002500D03*
X100171500Y-74932300D03*
X102110900Y-74876600D03*
X101711000Y-104362700D03*
X61792100Y-60255900D03*
X68209900Y-106847100D03*
X62459500Y-71910000D03*
X70438600Y-52164200D03*
X70906600Y-54691400D03*
X70906700Y-56746800D03*
X99985400Y-128400700D03*
X58628300Y-59300600D03*
X59906800Y-61690300D03*
X77636400Y-84572600D03*
X78364900Y-89128100D03*
X85319300Y-90805000D03*
X58912300Y-72899900D03*
X60775200Y-85197300D03*
X56134500Y-87654800D03*
X57422200Y-109855000D03*
X82468700Y-58112400D03*
X81608800Y-55974000D03*
X73657800Y-50536100D03*
X73657800Y-54140900D03*
X76092800Y-87179900D03*
X76043700Y-76937800D03*
X80200200Y-66751000D03*
X77046500Y-75935000D03*
X69003400Y-58124800D03*
X77292200Y-61482700D03*
X45456700Y-89931000D03*
X45023800Y-103602800D03*
X78359700Y-90695300D03*
X67814900Y-55275900D03*
X79266200Y-80386200D03*
X76770500Y-88085600D03*
X66250700Y-60272700D03*
X10828600Y-89363600D03*
X21586000Y-79143200D03*
X58336200Y-100640000D03*
X57396100Y-68277700D03*
X54229000Y-50165000D03*
X9453300Y-74868900D03*
X11866000Y-74090800D03*
X47499500Y-74489400D03*
X45593000Y-49974821D03*
X15488700Y-81967500D03*
X12132500Y-69436800D03*
X54886000Y-52757100D03*
X4163027Y-72665932D03*
X8845000Y-72366600D03*
X12873900Y-72888500D03*
X26564700Y-70702700D03*
X19261600Y-60634400D03*
X48184400Y-56425700D03*
X54596200Y-53710100D03*
X17100600Y-57022800D03*
X19664300Y-58862900D03*
X46915600Y-56263700D03*
X50599200Y-57442000D03*
X48013700Y-55444700D03*
X50607200Y-55557300D03*
X36998400Y-52617500D03*
X48266700Y-67848600D03*
X46495500Y-73031800D03*
X44367200Y-73031800D03*
X54183500Y-83073900D03*
X56455900Y-76676300D03*
X101186800Y-38420500D03*
X101140300Y-49375400D03*
X100628400Y-60417300D03*
X101386500Y-79564800D03*
X75933300Y-60123700D03*
X77538800Y-68132100D03*
X64914200Y-62078400D03*
X80778300Y-63050200D03*
X74030400Y-60833300D03*
X66538400Y-58062900D03*
X26289000Y-112903000D03*
X80625400Y-39967500D03*
X16128800Y-69854600D03*
X34066100Y-50177200D03*
X70530400Y-43241000D03*
X73416400Y-42433800D03*
X97671300Y-39782300D03*
X95991800Y-90170000D03*
X101243500Y-14432800D03*
X95698800Y-57586800D03*
X92942700Y-28306400D03*
X95474800Y-4536300D03*
X94427400Y-38100000D03*
X89826300Y-19050000D03*
X41416200Y-151788000D03*
X29570300Y-104053400D03*
X61271800Y-150433000D03*
X75920000Y-92873500D03*
X46117200Y-145979600D03*
X51110200Y-99272300D03*
X60401800Y-143251700D03*
X60419100Y-98585200D03*
X70048300Y-96774600D03*
X60179400Y-152833000D03*
X42310800Y-148538000D03*
X42107300Y-96583500D03*
X42107300Y-103127600D03*
X70204800Y-103434000D03*
X73188800Y-92883000D03*
X53132600Y-97983300D03*
X49601000Y-152033000D03*
X25630900Y-93987800D03*
X55722600Y-151233000D03*
X71717000Y-92876100D03*
X25655200Y-93033100D03*
X60684700Y-142036200D03*
X67680000Y-92870000D03*
X25679200Y-87913100D03*
X60940100Y-140681000D03*
X67312600Y-90639700D03*
X39528800Y-94120500D03*
X60460000Y-138579300D03*
X65058300Y-90623700D03*
X64411100Y-95588600D03*
X23884900Y-77807600D03*
X55840900Y-94559500D03*
X53838700Y-138570500D03*
X55397200Y-101950800D03*
X40154500Y-101824800D03*
X54982900Y-93881800D03*
X52706800Y-137633000D03*
X54343300Y-95654900D03*
X27516500Y-78382600D03*
X57002800Y-136675700D03*
X59519800Y-93948800D03*
X43887100Y-136019600D03*
X60572700Y-136170800D03*
X65786900Y-101950800D03*
X46639900Y-102625500D03*
X65879100Y-89646300D03*
X62246300Y-93534400D03*
X61136200Y-135386800D03*
X57359100Y-89458200D03*
X40836900Y-47669500D03*
X50789600Y-134306900D03*
X51282000Y-94223100D03*
X12992000Y-45720000D03*
X62681679Y-89873659D03*
X7765522Y-90551000D03*
X61292800Y-137105900D03*
X63548100Y-101548100D03*
X58261200Y-136849800D03*
X56905200Y-90634600D03*
X56243600Y-92922600D03*
X57387900Y-139505200D03*
X39447100Y-67339900D03*
X39447100Y-64735000D03*
X56086800Y-128009800D03*
X56553700Y-95915000D03*
X11443200Y-56588500D03*
X29518400Y-80557100D03*
X45999200Y-92898900D03*
X42327300Y-130108000D03*
X39525200Y-92939700D03*
X40701400Y-131164400D03*
X41026800Y-90519600D03*
X49775600Y-131445100D03*
X50068400Y-94695200D03*
X47288200Y-90601100D03*
X46258000Y-132312000D03*
X49376000Y-141258000D03*
X49189800Y-94226300D03*
X48106000Y-141258000D03*
X45566000Y-133003000D03*
X48241000Y-90592300D03*
X50633900Y-90492500D03*
X2117956Y-45085000D03*
X45566000Y-134273000D03*
X46836000Y-141893000D03*
X48053400Y-93356100D03*
X42279800Y-133358000D03*
X30480700Y-105789800D03*
X5461000Y-89789000D03*
X46201000Y-143163000D03*
X45566000Y-135543000D03*
X47431500Y-94081800D03*
X47320700Y-101950800D03*
X12827000Y-66421000D03*
X55006400Y-125118000D03*
X55006400Y-139983600D03*
X24853100Y-110973600D03*
X81933600Y-69930700D03*
X86704200Y-98405300D03*
X11492777Y-64296667D03*
X36818200Y-106194700D03*
X87517100Y-62357500D03*
X66534800Y-37308700D03*
X15474800Y-110295900D03*
X90206000Y-62010900D03*
X36191100Y-47697700D03*
X75225900Y-52377200D03*
X55156500Y-38441000D03*
X76279300Y-50704800D03*
X74444300Y-51146400D03*
X2253979Y-88932022D03*
X84612000Y-85081300D03*
X79055600Y-104054000D03*
X79055600Y-103075300D03*
X84121700Y-80776100D03*
X85210000Y-81588300D03*
X79772600Y-101132800D03*
X40572100Y-103696900D03*
X12039300Y-58723700D03*
X84145500Y-79796900D03*
X74600000Y-145927000D03*
X93700200Y-75608700D03*
X95571300Y-68868800D03*
X94382300Y-56925600D03*
X95423600Y-100330000D03*
X93239500Y-85848200D03*
X93297500Y-68629100D03*
X94071400Y-59195900D03*
X89482700Y-74034300D03*
X89476400Y-88482600D03*
X100802000Y-6223000D03*
X90577800Y-25392800D03*
X127707500Y-14497400D03*
X147785100Y-18913400D03*
D28*
X61595000Y-87870000D02*
X62625000Y-87870000D01*
X62625000Y-87870000D02*
X62738000Y-87757000D01*
X53212913Y-71815913D02*
X53212913Y-71843810D01*
X52199000Y-71387000D02*
X52784000Y-71387000D01*
X53320997Y-69805499D02*
X53720996Y-69405500D01*
X53009496Y-70117000D02*
X53320997Y-69805499D01*
X52199000Y-70117000D02*
X53009496Y-70117000D01*
X52784000Y-71387000D02*
X53212913Y-71815913D01*
X68340000Y-65653590D02*
X68046000Y-65947590D01*
X68340000Y-64092000D02*
X68340000Y-65653590D01*
X82705000Y-54320496D02*
X82804000Y-54419496D01*
X82705000Y-53340000D02*
X82705000Y-54320496D01*
X177449000Y-44255200D02*
X177449000Y-43670200D01*
X177449000Y-43670200D02*
X177685200Y-43434000D01*
X177685200Y-43434000D02*
X177990504Y-43434000D01*
X178044304Y-43380200D02*
X177990504Y-43434000D01*
X178989000Y-43380200D02*
X178044304Y-43380200D01*
X115459000Y-12252700D02*
X114556798Y-12252700D01*
X114556798Y-12252700D02*
X114490498Y-12319000D01*
X114142700Y-12319000D02*
X114490498Y-12319000D01*
X113919000Y-12542700D02*
X114142700Y-12319000D01*
X113919000Y-13127700D02*
X113919000Y-12542700D01*
X90005000Y-56120000D02*
X89408000Y-55523000D01*
X90170000Y-56120000D02*
X90005000Y-56120000D01*
X89408000Y-55523000D02*
X89408000Y-55245000D01*
X115353000Y-43700600D02*
X114477900Y-43700600D01*
X114477900Y-43700600D02*
X114427000Y-43751500D01*
X114052100Y-43751500D02*
X114427000Y-43751500D01*
X113813000Y-43990600D02*
X114052100Y-43751500D01*
X113813000Y-44575600D02*
X113813000Y-43990600D01*
X162431000Y-10448900D02*
X162656400Y-10223500D01*
X162656400Y-10223500D02*
X163004500Y-10223500D01*
X162431000Y-11033900D02*
X162431000Y-10448900D01*
X163069100Y-10158900D02*
X163004500Y-10223500D01*
X163971000Y-10158900D02*
X163069100Y-10158900D01*
X190807800Y-43126200D02*
X190754000Y-43180000D01*
X191689000Y-43126200D02*
X190807800Y-43126200D01*
X190385200Y-43180000D02*
X190754000Y-43180000D01*
X190149000Y-43416200D02*
X190385200Y-43180000D01*
X190149000Y-44001200D02*
X190149000Y-43416200D01*
X84695000Y-59690000D02*
X84695000Y-59855000D01*
X84098000Y-60452000D02*
X83883500Y-60452000D01*
X84695000Y-59855000D02*
X84098000Y-60452000D01*
X148412000Y-12669700D02*
X148635712Y-12445988D01*
X148412000Y-13254700D02*
X148412000Y-12669700D01*
X149037288Y-12379700D02*
X148971000Y-12445988D01*
X148635712Y-12445988D02*
X148971000Y-12445988D01*
X149876000Y-12379700D02*
X149037288Y-12379700D01*
X126513000Y-43736600D02*
X126752100Y-43497500D01*
X126752100Y-43497500D02*
X127063500Y-43497500D01*
X126513000Y-44321600D02*
X126513000Y-43736600D01*
X127114400Y-43446600D02*
X127063500Y-43497500D01*
X128053000Y-43446600D02*
X127114400Y-43446600D01*
X13081000Y-128002000D02*
X13081000Y-128904988D01*
X13081000Y-128904988D02*
X13081012Y-128905000D01*
X43815000Y-86120000D02*
X43815000Y-85026512D01*
X43815000Y-85026512D02*
X44005512Y-84836000D01*
X76887182Y-44195982D02*
X77343000Y-44195982D01*
X77140000Y-43992982D02*
X77343000Y-44195982D01*
X77140000Y-43343800D02*
X77140000Y-43992982D01*
X75870000Y-43343800D02*
X76035000Y-43343800D01*
X76035000Y-43343800D02*
X76887182Y-44195982D01*
X70258514Y-86931486D02*
X70040500Y-86931486D01*
X70485000Y-86120000D02*
X70485000Y-86705000D01*
X70485000Y-86705000D02*
X70258514Y-86931486D01*
X61595000Y-85280500D02*
X61976000Y-84899500D01*
X61595000Y-86120000D02*
X61595000Y-85280500D01*
X52705000Y-86120000D02*
X52705000Y-86705000D01*
X52417830Y-86992170D02*
X52014426Y-86992170D01*
X52705000Y-86705000D02*
X52417830Y-86992170D01*
X70090000Y-67310000D02*
X70090000Y-67475000D01*
X70090000Y-67475000D02*
X69489761Y-68075239D01*
X70090000Y-68580000D02*
X69505000Y-68580000D01*
X69505000Y-68580000D02*
X69341185Y-68416185D01*
X69341185Y-68416185D02*
X69341185Y-68075239D01*
X69489761Y-68075239D02*
X69341185Y-68075239D01*
X69915000Y-40563800D02*
X70695328Y-40563800D01*
X70695328Y-40563800D02*
X70770220Y-40638692D01*
X37705000Y-50800000D02*
X37705000Y-51929000D01*
X37705000Y-51929000D02*
X37719000Y-51943000D01*
X39765000Y-50800000D02*
X39765000Y-51929000D01*
X39765000Y-51929000D02*
X39751000Y-51943000D01*
X28970000Y-51435000D02*
X27827000Y-51435000D01*
X28970000Y-53975000D02*
X27827000Y-53975000D01*
X28970000Y-56515000D02*
X27827000Y-56515000D01*
X28970000Y-59055000D02*
X27827000Y-59055000D01*
X28970000Y-61595000D02*
X27827000Y-61595000D01*
X28970000Y-64135000D02*
X27827000Y-64135000D01*
X28970000Y-66675000D02*
X27827000Y-66675000D01*
X28970000Y-69215000D02*
X28970000Y-70148000D01*
X28970000Y-70148000D02*
X28575000Y-70543000D01*
X8509000Y-144761000D02*
X8509000Y-143637000D01*
X13589000Y-143256000D02*
X13589000Y-144145000D01*
X39610000Y-126760000D02*
X39497000Y-126873000D01*
X39610000Y-125730000D02*
X39610000Y-126760000D01*
X39610000Y-153938000D02*
X39497000Y-154051000D01*
X39610000Y-153035000D02*
X39610000Y-153938000D01*
X39610000Y-144145000D02*
X40513000Y-144145000D01*
X39610000Y-135255000D02*
X40513000Y-135255000D01*
X82296000Y-77470000D02*
X81915000Y-77089000D01*
X82550000Y-77470000D02*
X82296000Y-77470000D01*
X82550000Y-77470000D02*
X81915000Y-78105000D01*
X82945000Y-77470000D02*
X82550000Y-77470000D01*
X81341000Y-54925000D02*
X81407000Y-54991000D01*
X80375000Y-54925000D02*
X81341000Y-54925000D01*
X85410000Y-61534000D02*
X86233000Y-62357000D01*
X85410000Y-61325000D02*
X85410000Y-61534000D01*
X81280000Y-59690000D02*
X81915000Y-59055000D01*
X80885000Y-59690000D02*
X81280000Y-59690000D01*
X81280000Y-68580000D02*
X81915000Y-67945000D01*
X80885000Y-68580000D02*
X81280000Y-68580000D01*
X75416000Y-69215000D02*
X74942000Y-69689000D01*
X75805000Y-69215000D02*
X75416000Y-69215000D01*
X75738000Y-70485000D02*
X74942000Y-69689000D01*
X75805000Y-70485000D02*
X75738000Y-70485000D01*
X75535000Y-63500000D02*
X74933000Y-64101700D01*
X75805000Y-63500000D02*
X75535000Y-63500000D01*
X75601000Y-64770000D02*
X74933000Y-64101700D01*
X75805000Y-64770000D02*
X75601000Y-64770000D01*
X44958000Y-71120000D02*
X44069000Y-70231000D01*
X45480000Y-71120000D02*
X44958000Y-71120000D01*
X44450000Y-69850000D02*
X44069000Y-70231000D01*
X45480000Y-69850000D02*
X44450000Y-69850000D01*
X44958000Y-64770000D02*
X44577000Y-65151000D01*
X45480000Y-64770000D02*
X44958000Y-64770000D01*
X45480000Y-63232000D02*
X44577000Y-64135000D01*
X45480000Y-63131800D02*
X45480000Y-63232000D01*
X55052000Y-51120000D02*
X54991000Y-51181000D01*
X56150000Y-51120000D02*
X55052000Y-51120000D01*
X93712000Y-17004000D02*
X93345000Y-16637000D01*
X93712000Y-17653000D02*
X93712000Y-17004000D01*
X44859000Y-47597000D02*
X44831000Y-47625000D01*
X44859000Y-46355000D02*
X44859000Y-47597000D01*
X52959000Y-51689000D02*
X53213000Y-51435000D01*
X52959000Y-52705000D02*
X52959000Y-51689000D01*
X62230000Y-44450000D02*
X62357000Y-44323000D01*
X61200000Y-44450000D02*
X62230000Y-44450000D01*
X77140000Y-41071800D02*
X76835000Y-40767000D01*
X77140000Y-41593800D02*
X77140000Y-41071800D01*
X75870000Y-40817800D02*
X75819000Y-40767000D01*
X75870000Y-41593800D02*
X75870000Y-40817800D01*
X71665000Y-39660800D02*
X71501000Y-39497000D01*
X71665000Y-40563800D02*
X71665000Y-39660800D01*
X75363000Y-37517500D02*
X75311000Y-37465000D01*
X76265000Y-37517500D02*
X75363000Y-37517500D01*
X75363000Y-36247500D02*
X75311000Y-36195000D01*
X76265000Y-36247500D02*
X75363000Y-36247500D01*
X73203000Y-36118800D02*
X73279000Y-36195000D01*
X72300000Y-36118800D02*
X73203000Y-36118800D01*
X103999000Y-12079000D02*
X104013000Y-12065000D01*
X102616000Y-12079000D02*
X103999000Y-12079000D01*
X93712000Y-30212000D02*
X93853000Y-30353000D01*
X93712000Y-29210000D02*
X93712000Y-30212000D01*
X99060000Y-43688000D02*
X99187000Y-43815000D01*
X99060000Y-42912000D02*
X99060000Y-43688000D01*
X93712000Y-50532000D02*
X93853000Y-50673000D01*
X93712000Y-49530000D02*
X93712000Y-50532000D01*
X86630000Y-51546000D02*
X86741000Y-51435000D01*
X86630000Y-52390000D02*
X86630000Y-51546000D01*
X93712000Y-61962000D02*
X93853000Y-62103000D01*
X93712000Y-60960000D02*
X93712000Y-61962000D01*
X97931000Y-74789000D02*
X97917000Y-74803000D01*
X99060000Y-74789000D02*
X97931000Y-74789000D01*
X93839000Y-80377000D02*
X93599000Y-80137000D01*
X93839000Y-81153000D02*
X93839000Y-80377000D01*
X40513000Y-79375000D02*
X42545000Y-79375000D01*
X55259000Y-145655000D02*
X55245000Y-145669000D01*
X56515000Y-145655000D02*
X55259000Y-145655000D01*
X43815000Y-89930000D02*
X43815000Y-89027000D01*
X52705000Y-89930000D02*
X52705000Y-89027000D01*
X61595000Y-89930000D02*
X61595000Y-89027000D01*
X70485000Y-89930000D02*
X70485000Y-89027000D01*
X71106000Y-87870000D02*
X71501000Y-88265000D01*
X70485000Y-87870000D02*
X71106000Y-87870000D01*
X53326000Y-87870000D02*
X53721000Y-88265000D01*
X52705000Y-87870000D02*
X53326000Y-87870000D01*
X44436000Y-87870000D02*
X44831000Y-88265000D01*
X43815000Y-87870000D02*
X44436000Y-87870000D01*
X35419000Y-83425000D02*
X35433000Y-83439000D01*
X34290000Y-83425000D02*
X35419000Y-83425000D01*
X67056000Y-68580000D02*
X66929000Y-68453000D01*
X68340000Y-68580000D02*
X67056000Y-68580000D01*
X68072000Y-68580000D02*
X67437000Y-69215000D01*
X68340000Y-68580000D02*
X68072000Y-68580000D01*
X68072000Y-69850000D02*
X67437000Y-69215000D01*
X68340000Y-69850000D02*
X68072000Y-69850000D01*
X68072000Y-67310000D02*
X66929000Y-68453000D01*
X68340000Y-67310000D02*
X68072000Y-67310000D01*
X53721000Y-63119000D02*
X53721000Y-62357000D01*
X53073000Y-63766800D02*
X53721000Y-63119000D01*
X52199000Y-63766800D02*
X53073000Y-63766800D01*
X53353000Y-65036800D02*
X53467000Y-65151000D01*
X52199000Y-65036800D02*
X53353000Y-65036800D01*
X53467000Y-67183000D02*
X53467000Y-66675000D01*
X53073000Y-67577000D02*
X53467000Y-67183000D01*
X52199000Y-67577000D02*
X53073000Y-67577000D01*
X53099000Y-66307000D02*
X53467000Y-66675000D01*
X52824000Y-66307000D02*
X53099000Y-66307000D01*
X68340000Y-67310000D02*
X68340000Y-67475000D01*
X52824000Y-66307000D02*
X52837000Y-66319000D01*
X52199000Y-66307000D02*
X52824000Y-66307000D01*
X68249000Y-71170000D02*
X68249000Y-71736000D01*
X68299000Y-71120000D02*
X68249000Y-71170000D01*
X68340000Y-71120000D02*
X68299000Y-71120000D01*
X52199000Y-65036800D02*
X52199000Y-65202000D01*
X52199000Y-63766800D02*
X52199000Y-63601800D01*
X68284000Y-62712600D02*
X67884000Y-62312600D01*
X68340000Y-62768500D02*
X68284000Y-62712600D01*
X68340000Y-62822000D02*
X68340000Y-62768500D01*
X53155000Y-62357000D02*
X53721000Y-62357000D01*
X53029000Y-62483500D02*
X53155000Y-62357000D01*
X53029000Y-62496800D02*
X53029000Y-62483500D01*
X52199000Y-62496800D02*
X53029000Y-62496800D01*
X41755000Y-63345000D02*
X41783000Y-63373000D01*
X40640000Y-63345000D02*
X41755000Y-63345000D01*
X53099000Y-72657000D02*
X53213000Y-72771000D01*
X52199000Y-72657000D02*
X53099000Y-72657000D01*
X52705000Y-75325000D02*
X52705000Y-74295000D01*
X59690000Y-74422000D02*
X59817000Y-74295000D01*
X59690000Y-75325000D02*
X59690000Y-74422000D01*
X60960000Y-74422000D02*
X61087000Y-74295000D01*
X60960000Y-75325000D02*
X60960000Y-74422000D01*
X67945000Y-74549000D02*
X67691000Y-74295000D01*
X67945000Y-75325000D02*
X67945000Y-74549000D01*
X68340000Y-73025000D02*
X67437000Y-73025000D01*
X68340000Y-61595000D02*
X67437000Y-61595000D01*
X66689000Y-59295000D02*
X66675000Y-59309000D01*
X67945000Y-59295000D02*
X66689000Y-59295000D01*
X60960000Y-60198000D02*
X60833000Y-60325000D01*
X60960000Y-59295000D02*
X60960000Y-60198000D01*
X59690000Y-60198000D02*
X59563000Y-60325000D01*
X59690000Y-59295000D02*
X59690000Y-60198000D01*
X52705000Y-59295000D02*
X52705000Y-60325000D01*
X80885000Y-68580000D02*
X81280000Y-68580000D01*
X81534000Y-68580000D02*
X81915000Y-68961000D01*
X81280000Y-68580000D02*
X81534000Y-68580000D01*
X82945000Y-68580000D02*
X82550000Y-68580000D01*
X82550000Y-68580000D02*
X81915000Y-67945000D01*
X82945000Y-68580000D02*
X82550000Y-68580000D01*
X82296000Y-68580000D02*
X81915000Y-68961000D01*
X82550000Y-68580000D02*
X82296000Y-68580000D01*
X80885000Y-59690000D02*
X81280000Y-59690000D01*
X81534000Y-59690000D02*
X81915000Y-60071000D01*
X81280000Y-59690000D02*
X81534000Y-59690000D01*
X82945000Y-59690000D02*
X82550000Y-59690000D01*
X82296000Y-59690000D02*
X81915000Y-60071000D01*
X82550000Y-59690000D02*
X82296000Y-59690000D01*
X82945000Y-59690000D02*
X82550000Y-59690000D01*
X82550000Y-59690000D02*
X81915000Y-59055000D01*
X82945000Y-77470000D02*
X82550000Y-77470000D01*
X80885000Y-77470000D02*
X81280000Y-77470000D01*
X81534000Y-77470000D02*
X81915000Y-77089000D01*
X81280000Y-77470000D02*
X81534000Y-77470000D01*
X80885000Y-77470000D02*
X81280000Y-77470000D01*
X81280000Y-77470000D02*
X81915000Y-78105000D01*
X93585000Y-91677600D02*
X94023200Y-91239400D01*
X93585000Y-92710000D02*
X93585000Y-91677600D01*
X24037000Y-136491000D02*
X23495000Y-137033000D01*
X24037000Y-135976000D02*
X24037000Y-136491000D01*
X8509000Y-141751000D02*
X10910000Y-141751000D01*
X10910000Y-141751000D02*
X11022000Y-141639000D01*
X13589000Y-141506000D02*
X11155000Y-141506000D01*
X11155000Y-141506000D02*
X11022000Y-141639000D01*
X37647434Y-135255000D02*
X37361149Y-135541285D01*
X37860000Y-135255000D02*
X37647434Y-135255000D01*
X37105514Y-126649486D02*
X37081410Y-126649486D01*
X37860000Y-125895000D02*
X37105514Y-126649486D01*
X37860000Y-125730000D02*
X37860000Y-125895000D01*
X37860000Y-153909996D02*
X37719000Y-154050996D01*
X37860000Y-153035000D02*
X37860000Y-153909996D01*
X35955000Y-50800000D02*
X34798000Y-50800000D01*
X34798000Y-50800000D02*
X34671000Y-50927000D01*
X91440000Y-92710000D02*
X90805000Y-92075000D01*
X91835000Y-92710000D02*
X91440000Y-92710000D01*
X13589000Y-141506000D02*
X13589000Y-142367000D01*
X37860000Y-144145000D02*
X36957000Y-144145000D01*
X84822000Y-77597000D02*
X84695000Y-77470000D01*
X85725000Y-77597000D02*
X84822000Y-77597000D01*
X84822000Y-68453000D02*
X84695000Y-68580000D01*
X85725000Y-68453000D02*
X84822000Y-68453000D01*
X91200000Y-16891000D02*
X91962000Y-17653000D01*
X91059000Y-16891000D02*
X91200000Y-16891000D01*
X102630000Y-13843000D02*
X102616000Y-13829000D01*
X104013000Y-13843000D02*
X102630000Y-13843000D01*
X126933000Y-74997000D02*
X126873000Y-75057000D01*
X128394000Y-74997000D02*
X126933000Y-74997000D01*
X126854000Y-75076000D02*
X126873000Y-75057000D01*
X126854000Y-75872000D02*
X126854000Y-75076000D01*
X139554000Y-75076000D02*
X139573000Y-75057000D01*
X139554000Y-75872000D02*
X139554000Y-75076000D01*
X139633000Y-74997000D02*
X139573000Y-75057000D01*
X141094000Y-74997000D02*
X139633000Y-74997000D01*
X157356000Y-73784000D02*
X157861000Y-73279000D01*
X156651000Y-73784000D02*
X157356000Y-73784000D01*
X158491000Y-73909000D02*
X157861000Y-73279000D01*
X159191000Y-73909000D02*
X158491000Y-73909000D01*
X170991000Y-73963000D02*
X170561000Y-73533000D01*
X171885000Y-73963000D02*
X170991000Y-73963000D01*
X170256000Y-73838000D02*
X170561000Y-73533000D01*
X169345000Y-73838000D02*
X170256000Y-73838000D01*
X177473000Y-74749000D02*
X177419000Y-74803000D01*
X178994000Y-74749000D02*
X177473000Y-74749000D01*
X177454000Y-74838000D02*
X177419000Y-74803000D01*
X177454000Y-75624000D02*
X177454000Y-74838000D01*
X202854000Y-75092000D02*
X202819000Y-75057000D01*
X202854000Y-75878000D02*
X202854000Y-75092000D01*
X202873000Y-75003000D02*
X202819000Y-75057000D01*
X204394000Y-75003000D02*
X202873000Y-75003000D01*
X221791000Y-73963000D02*
X221361000Y-73533000D01*
X222685000Y-73963000D02*
X221791000Y-73963000D01*
X221056000Y-73838000D02*
X221361000Y-73533000D01*
X220145000Y-73838000D02*
X221056000Y-73838000D01*
X144743000Y-42709300D02*
X145161000Y-42291000D01*
X143751000Y-42709300D02*
X144743000Y-42709300D01*
X145704000Y-42834300D02*
X145161000Y-42291000D01*
X146291000Y-42834300D02*
X145704000Y-42834300D01*
X154445000Y-43700600D02*
X154559000Y-43815000D01*
X153453000Y-43700600D02*
X154445000Y-43700600D01*
X156068000Y-43815000D02*
X154559000Y-43815000D01*
X156828000Y-44575600D02*
X156068000Y-43815000D01*
X156993000Y-44575600D02*
X156828000Y-44575600D01*
X207853000Y-42082700D02*
X208661000Y-41275000D01*
X207318000Y-42082700D02*
X207853000Y-42082700D01*
X209594000Y-42207700D02*
X208661000Y-41275000D01*
X209858000Y-42207700D02*
X209594000Y-42207700D01*
X218240000Y-43126200D02*
X218313000Y-43053000D01*
X217089000Y-43126200D02*
X218240000Y-43126200D01*
X219515000Y-43053000D02*
X218313000Y-43053000D01*
X220464000Y-44001200D02*
X219515000Y-43053000D01*
X220629000Y-44001200D02*
X220464000Y-44001200D01*
X91835000Y-29083000D02*
X91962000Y-29210000D01*
X90551000Y-29083000D02*
X91835000Y-29083000D01*
X99173000Y-41275000D02*
X99060000Y-41162000D01*
X100203000Y-41275000D02*
X99173000Y-41275000D01*
X91962000Y-48500000D02*
X92075000Y-48387000D01*
X91962000Y-49530000D02*
X91962000Y-48500000D01*
X91962000Y-60212000D02*
X91567000Y-59817000D01*
X91962000Y-60960000D02*
X91962000Y-60212000D01*
X99328000Y-72771000D02*
X99060000Y-73039000D01*
X100203000Y-72771000D02*
X99328000Y-72771000D01*
X91327000Y-80391000D02*
X92089000Y-81153000D01*
X91059000Y-80391000D02*
X91327000Y-80391000D01*
X60085000Y-143905000D02*
X56515000Y-143905000D01*
X61087000Y-144907000D02*
X60085000Y-143905000D01*
X56501000Y-143891000D02*
X56515000Y-143905000D01*
X52959000Y-143891000D02*
X56501000Y-143891000D01*
X70485000Y-91680000D02*
X70485000Y-92837000D01*
X61595000Y-92837000D02*
X61595000Y-91680000D01*
X52705000Y-91680000D02*
X52705000Y-92837000D01*
X43815000Y-92837000D02*
X43815000Y-91680000D01*
X188469000Y-6475900D02*
X188417000Y-6527800D01*
X189498000Y-6475900D02*
X188469000Y-6475900D01*
X188036000Y-6908800D02*
X188417000Y-6527800D01*
X188036000Y-7352000D02*
X188036000Y-6908800D01*
X195759000Y-11682900D02*
X195707000Y-11734800D01*
X196737000Y-11682900D02*
X195759000Y-11682900D01*
X195275000Y-12166600D02*
X195707000Y-11734800D01*
X195275000Y-12584400D02*
X195275000Y-12166600D01*
X182497000Y-12460800D02*
X183008000Y-11949200D01*
X182497000Y-12811900D02*
X182497000Y-12460800D01*
X183021000Y-11936900D02*
X183008000Y-11949200D01*
X184037000Y-11936900D02*
X183021000Y-11936900D01*
X133248000Y-11738600D02*
X133731000Y-11256300D01*
X133248000Y-12090400D02*
X133248000Y-11738600D01*
X133208000Y-12131300D02*
X133248000Y-12090400D01*
X132191000Y-12131300D02*
X133208000Y-12131300D01*
X56388000Y-19050000D02*
X56363000Y-19024600D01*
X57404000Y-20269200D02*
X57404000Y-20015200D01*
X88900000Y-58420000D02*
X88773000Y-58293000D01*
X89567000Y-58420000D02*
X88900000Y-58420000D01*
X89567000Y-58420000D02*
X89568000Y-58420000D01*
X42672000Y-50800000D02*
X42799000Y-50673000D01*
X41515000Y-50800000D02*
X42672000Y-50800000D01*
X78740000Y-77470000D02*
X78359000Y-77851000D01*
X79135000Y-77470000D02*
X78740000Y-77470000D01*
X78740000Y-59690000D02*
X78105000Y-59055000D01*
X79135000Y-59690000D02*
X78740000Y-59690000D01*
X75960000Y-54850000D02*
X75819000Y-54991000D01*
X76835000Y-54850000D02*
X75960000Y-54850000D01*
X79353000Y-68580000D02*
X80025000Y-67908000D01*
X79135000Y-68580000D02*
X79353000Y-68580000D01*
X40640000Y-61595000D02*
X39243000Y-61595000D01*
X60819000Y-52945000D02*
X60833000Y-52959000D01*
X59690000Y-52945000D02*
X60819000Y-52945000D01*
X58674000Y-44450000D02*
X58293000Y-44831000D01*
X59450000Y-44450000D02*
X58674000Y-44450000D01*
X61200000Y-41670000D02*
X61341000Y-41529000D01*
X61200000Y-42545000D02*
X61200000Y-41670000D01*
X64530000Y-42150000D02*
X64389000Y-42291000D01*
X64530000Y-41275000D02*
X64530000Y-42150000D01*
X71336000Y-36118800D02*
X71412000Y-36195000D01*
X70550000Y-36118800D02*
X71336000Y-36118800D01*
X78015000Y-37517500D02*
X78015000Y-36247500D01*
X78561000Y-36247500D02*
X78867000Y-35941000D01*
X78015000Y-36247500D02*
X78561000Y-36247500D01*
X46101000Y-46355000D02*
X45847000Y-46101000D01*
X46609000Y-46355000D02*
X46101000Y-46355000D01*
X51172000Y-72657000D02*
X51286000Y-72771000D01*
X50449000Y-72657000D02*
X51172000Y-72657000D01*
X52705000Y-76238000D02*
X52705000Y-77075000D01*
X67945000Y-76238000D02*
X67945000Y-77075000D01*
X69253000Y-73025000D02*
X70090000Y-73025000D01*
X69836000Y-61849000D02*
X70090000Y-61595000D01*
X69253000Y-61849000D02*
X69836000Y-61849000D01*
X67945000Y-58382200D02*
X67945000Y-57545000D01*
X52705000Y-58382200D02*
X52705000Y-57545000D01*
X51181000Y-61765000D02*
X50449000Y-62496800D01*
X51181000Y-61595000D02*
X51181000Y-61765000D01*
X60284000Y-58389900D02*
X60284000Y-58221100D01*
X60284000Y-58138900D02*
X59690000Y-57545000D01*
X60284000Y-58221100D02*
X60284000Y-58138900D01*
X60284000Y-58389900D02*
X60284000Y-58221100D01*
X60284000Y-58221100D02*
X60960000Y-57545000D01*
X60366000Y-76230000D02*
X60366000Y-76399000D01*
X60366000Y-76399000D02*
X59690000Y-77075000D01*
X60366000Y-76230000D02*
X60366000Y-76399000D01*
X60366000Y-76481000D02*
X60960000Y-77075000D01*
X60366000Y-76399000D02*
X60366000Y-76481000D01*
X51298000Y-66963000D02*
X51105000Y-66963000D01*
X51063000Y-66963000D02*
X50449000Y-67577000D01*
X51105000Y-66963000D02*
X51063000Y-66963000D01*
X51298000Y-66963000D02*
X51105000Y-66963000D01*
X51105000Y-66963000D02*
X50449000Y-66307000D01*
X51134000Y-70702000D02*
X51257590Y-70702000D01*
X51257590Y-70702000D02*
X51293000Y-70737410D01*
X61849000Y-63627000D02*
X61849000Y-70485000D01*
X60579000Y-63627000D02*
X60579000Y-70485000D01*
X59309000Y-63627000D02*
X59309000Y-70485000D01*
X32385000Y-81661000D02*
X32385000Y-80645000D01*
X32399000Y-81675000D02*
X32385000Y-81661000D01*
X34290000Y-81675000D02*
X32399000Y-81675000D01*
X69285000Y-63627000D02*
X70090000Y-62822000D01*
X51035000Y-64352400D02*
X50449000Y-63766800D01*
X51134000Y-64352400D02*
X51035000Y-64352400D01*
X69253000Y-63627000D02*
X69285000Y-63627000D01*
X52197000Y-54737000D02*
X51943000Y-54483000D01*
X53862000Y-54737000D02*
X52197000Y-54737000D01*
X69238000Y-70480000D02*
X69450000Y-70480000D01*
X69238000Y-70480000D02*
X69450000Y-70480000D01*
X69460000Y-70480000D02*
X70090000Y-69850000D01*
X69450000Y-70480000D02*
X69460000Y-70480000D01*
X51134000Y-70702000D02*
X50449000Y-71387000D01*
X51293000Y-70702000D02*
X51134000Y-70702000D01*
X51035000Y-70702000D02*
X50449000Y-70117000D01*
X51134000Y-70702000D02*
X51035000Y-70702000D01*
X69253000Y-63627000D02*
X69285000Y-63627000D01*
X69625000Y-63627000D02*
X70090000Y-64092000D01*
X69285000Y-63627000D02*
X69625000Y-63627000D01*
X51293000Y-64352400D02*
X51134000Y-64352400D01*
X51293000Y-64352400D02*
X51134000Y-64352400D01*
X51134000Y-64352400D02*
X50449000Y-65036800D01*
X51943000Y-51971000D02*
X51209000Y-52705000D01*
X51943000Y-51943000D02*
X51943000Y-51971000D01*
X51435000Y-52705000D02*
X51943000Y-53213000D01*
X51209000Y-52705000D02*
X51435000Y-52705000D01*
X69450000Y-70480000D02*
X70090000Y-71120000D01*
X70090000Y-71120000D02*
X70702700Y-71120000D01*
X87630000Y-81280000D02*
X86502300Y-81280000D01*
X86502300Y-81188400D02*
X86502300Y-81280000D01*
X84399800Y-79085900D02*
X86502300Y-81188400D01*
X78633500Y-79085900D02*
X84399800Y-79085900D01*
X76852300Y-77304700D02*
X78633500Y-79085900D01*
X76852300Y-76742900D02*
X76852300Y-77304700D01*
X71229400Y-71120000D02*
X76852300Y-76742900D01*
X70702700Y-71120000D02*
X71229400Y-71120000D01*
X38763000Y-78133000D02*
X38735000Y-78105000D01*
X38763000Y-79375000D02*
X38763000Y-78133000D01*
X47865000Y-70485000D02*
X47230000Y-71120000D01*
X73420000Y-64135000D02*
X74055000Y-63500000D01*
X47230000Y-63532200D02*
X48144000Y-64446700D01*
X47230000Y-63131800D02*
X47230000Y-63532200D01*
X47553000Y-64446700D02*
X47230000Y-64770000D01*
X48144000Y-64446700D02*
X47553000Y-64446700D01*
X72517000Y-64135000D02*
X73420000Y-64135000D01*
X73420000Y-64135000D02*
X74055000Y-64770000D01*
X72771000Y-69977000D02*
X73293000Y-69977000D01*
X73547000Y-69977000D02*
X74055000Y-70485000D01*
X73293000Y-69977000D02*
X73547000Y-69977000D01*
X72771000Y-69977000D02*
X73293000Y-69977000D01*
X73293000Y-69977000D02*
X74055000Y-69215000D01*
X48133000Y-70485000D02*
X47865000Y-70485000D01*
X47865000Y-70485000D02*
X47230000Y-69850000D01*
X30720000Y-51435000D02*
X31332700Y-51435000D01*
X31332700Y-51435000D02*
X31839900Y-51435000D01*
X30720000Y-53975000D02*
X31332700Y-53975000D01*
X31332700Y-53975000D02*
X31843000Y-53975000D01*
X30720000Y-56515000D02*
X31332700Y-56515000D01*
X31332700Y-56515000D02*
X31852600Y-56515000D01*
X30720000Y-59055000D02*
X31332700Y-59055000D01*
X31332700Y-59055000D02*
X31843500Y-59055000D01*
X30720000Y-61595000D02*
X31332700Y-61595000D01*
X31332700Y-61562600D02*
X31332700Y-61595000D01*
X31861200Y-61034100D02*
X31332700Y-61562600D01*
X30720000Y-64135000D02*
X31332700Y-64135000D01*
X31592100Y-64394400D02*
X31332700Y-64135000D01*
X31877200Y-64394400D02*
X31592100Y-64394400D01*
X30720000Y-66675000D02*
X31843600Y-66675000D01*
X30720000Y-70101600D02*
X30720000Y-69215000D01*
X30280000Y-70541600D02*
X30720000Y-70101600D01*
X103508500Y-61365100D02*
X103341700Y-61531900D01*
X131215100Y-61365100D02*
X103508500Y-61365100D01*
X132715000Y-62865000D02*
X131215100Y-61365100D01*
X102529000Y-61531900D02*
X103341700Y-61531900D01*
X194757500Y-61782500D02*
X193675000Y-62865000D01*
X217992500Y-61782500D02*
X194757500Y-61782500D01*
X219075000Y-62865000D02*
X217992500Y-61782500D01*
X155453000Y-47503000D02*
X155575000Y-47625000D01*
X155453000Y-44650600D02*
X155453000Y-47503000D01*
X126553500Y-61783500D02*
X127635000Y-62865000D01*
X105630100Y-61783500D02*
X126553500Y-61783500D01*
X103341700Y-64071900D02*
X105630100Y-61783500D01*
X102529000Y-64071900D02*
X103341700Y-64071900D01*
X116268100Y-58991900D02*
X127635000Y-47625000D01*
X102529000Y-58991900D02*
X116268100Y-58991900D01*
X154377100Y-46282900D02*
X154377100Y-44902000D01*
X153035000Y-47625000D02*
X154377100Y-46282900D01*
X187507100Y-46537100D02*
X188595000Y-47625000D01*
X183027700Y-46537100D02*
X187507100Y-46537100D01*
X182245000Y-47319800D02*
X183027700Y-46537100D01*
X182245000Y-47920800D02*
X182245000Y-47319800D01*
X181463000Y-48702800D02*
X182245000Y-47920800D01*
X151572800Y-48702800D02*
X181463000Y-48702800D01*
X150495000Y-47625000D02*
X151572800Y-48702800D01*
X118808000Y-66612000D02*
X102529000Y-66612000D01*
X122555000Y-62865000D02*
X118808000Y-66612000D01*
X121405900Y-46475900D02*
X122555000Y-47625000D01*
X119614500Y-46475900D02*
X121405900Y-46475900D01*
X118856800Y-47233600D02*
X119614500Y-46475900D01*
X118856800Y-47767500D02*
X118856800Y-47233600D01*
X112712400Y-53911900D02*
X118856800Y-47767500D01*
X102529000Y-53911900D02*
X112712400Y-53911900D01*
X187193000Y-48763000D02*
X186055000Y-47625000D01*
X210317000Y-48763000D02*
X187193000Y-48763000D01*
X211455000Y-47625000D02*
X210317000Y-48763000D01*
X111188100Y-56451900D02*
X102529000Y-56451900D01*
X120015000Y-47625000D02*
X111188100Y-56451900D01*
X142801000Y-47551000D02*
X142875000Y-47625000D01*
X142801000Y-44709300D02*
X142801000Y-47551000D01*
X101716300Y-65594300D02*
X101716300Y-69152000D01*
X102060900Y-65249700D02*
X101716300Y-65594300D01*
X112550300Y-65249700D02*
X102060900Y-65249700D01*
X114935000Y-62865000D02*
X112550300Y-65249700D01*
X102529000Y-69152000D02*
X101716300Y-69152000D01*
X140335000Y-45861500D02*
X140335000Y-47625000D01*
X142487200Y-43709300D02*
X140335000Y-45861500D01*
X148220700Y-43709300D02*
X142487200Y-43709300D01*
X149897600Y-42032400D02*
X148220700Y-43709300D01*
X172842400Y-42032400D02*
X149897600Y-42032400D01*
X178435000Y-47625000D02*
X172842400Y-42032400D01*
X137925200Y-63942700D02*
X140370600Y-66388100D01*
X137795000Y-63942700D02*
X137925200Y-63942700D01*
X137795000Y-62865000D02*
X137795000Y-63942700D01*
X107088600Y-47625000D02*
X103341700Y-51371900D01*
X112395000Y-47625000D02*
X107088600Y-47625000D01*
X102529000Y-51371900D02*
X103341700Y-51371900D01*
X112925000Y-47625000D02*
X112395000Y-47625000D01*
X116577200Y-43972800D02*
X112925000Y-47625000D01*
X123172300Y-43972800D02*
X116577200Y-43972800D01*
X124175300Y-44975800D02*
X123172300Y-43972800D01*
X128084300Y-44975800D02*
X124175300Y-44975800D01*
X129341300Y-43718800D02*
X128084300Y-44975800D01*
X133888800Y-43718800D02*
X129341300Y-43718800D01*
X137795000Y-47625000D02*
X133888800Y-43718800D01*
X117475000Y-45450300D02*
X117475000Y-47625000D01*
X117353000Y-45328300D02*
X117475000Y-45450300D01*
X117353000Y-44650600D02*
X117353000Y-45328300D01*
X130175000Y-45196300D02*
X130175000Y-47625000D01*
X130053000Y-45074300D02*
X130175000Y-45196300D01*
X130053000Y-44396600D02*
X130053000Y-45074300D01*
X193675000Y-44767900D02*
X193675000Y-47625000D01*
X193689000Y-44753900D02*
X193675000Y-44767900D01*
X193689000Y-44076200D02*
X193689000Y-44753900D01*
X180975000Y-45021900D02*
X180975000Y-47625000D01*
X180989000Y-45007900D02*
X180975000Y-45021900D01*
X180989000Y-44330200D02*
X180989000Y-45007900D01*
X206368000Y-47618000D02*
X206375000Y-47625000D01*
X206368000Y-44082700D02*
X206368000Y-47618000D01*
X219089000Y-47611000D02*
X219075000Y-47625000D01*
X219089000Y-44076200D02*
X219089000Y-47611000D01*
X102431000Y-93290000D02*
X103243700Y-93290000D01*
X103469600Y-93064100D02*
X103243700Y-93290000D01*
X131164100Y-93064100D02*
X103469600Y-93064100D01*
X132715000Y-94615000D02*
X131164100Y-93064100D01*
X156634600Y-93134600D02*
X158115000Y-94615000D01*
X142796500Y-93134600D02*
X156634600Y-93134600D01*
X141605000Y-94326100D02*
X142796500Y-93134600D01*
X141605000Y-94913500D02*
X141605000Y-94326100D01*
X140423100Y-96095400D02*
X141605000Y-94913500D01*
X134195400Y-96095400D02*
X140423100Y-96095400D01*
X132715000Y-94615000D02*
X134195400Y-96095400D01*
X156996900Y-80493100D02*
X158115000Y-79375000D01*
X155102500Y-80493100D02*
X156996900Y-80493100D01*
X154305000Y-79695600D02*
X155102500Y-80493100D01*
X154305000Y-79106500D02*
X154305000Y-79695600D01*
X150467700Y-75269200D02*
X154305000Y-79106500D01*
X142117100Y-75269200D02*
X150467700Y-75269200D01*
X140761500Y-76624800D02*
X142117100Y-75269200D01*
X135465200Y-76624800D02*
X140761500Y-76624800D01*
X132715000Y-79375000D02*
X135465200Y-76624800D01*
X159204200Y-78285800D02*
X158115000Y-79375000D01*
X166220900Y-78285800D02*
X159204200Y-78285800D01*
X167005000Y-79069900D02*
X166220900Y-78285800D01*
X167005000Y-79670800D02*
X167005000Y-79069900D01*
X167787000Y-80452800D02*
X167005000Y-79670800D01*
X182437200Y-80452800D02*
X167787000Y-80452800D01*
X183515000Y-79375000D02*
X182437200Y-80452800D01*
X219075000Y-76685700D02*
X219075000Y-79375000D01*
X219195000Y-76565700D02*
X219075000Y-76685700D01*
X219195000Y-75838000D02*
X219195000Y-76565700D01*
X126511300Y-93491300D02*
X127635000Y-94615000D01*
X105582400Y-93491300D02*
X126511300Y-93491300D01*
X103243700Y-95830000D02*
X105582400Y-93491300D01*
X102431000Y-95830000D02*
X103243700Y-95830000D01*
X176941000Y-96109000D02*
X178435000Y-94615000D01*
X154529000Y-96109000D02*
X176941000Y-96109000D01*
X153035000Y-94615000D02*
X154529000Y-96109000D01*
X117408500Y-90750000D02*
X127635000Y-80523500D01*
X102431000Y-90750000D02*
X117408500Y-90750000D01*
X127635000Y-80523500D02*
X127635000Y-79375000D01*
X149607300Y-80493200D02*
X149607300Y-80572000D01*
X142400000Y-80493200D02*
X149607300Y-80493200D01*
X141605000Y-79698200D02*
X142400000Y-80493200D01*
X141605000Y-79114500D02*
X141605000Y-79698200D01*
X140780100Y-78289600D02*
X141605000Y-79114500D01*
X136490700Y-78289600D02*
X140780100Y-78289600D01*
X134256800Y-80523500D02*
X136490700Y-78289600D01*
X127635000Y-80523500D02*
X134256800Y-80523500D01*
X151916800Y-80493200D02*
X153035000Y-79375000D01*
X149607300Y-80493200D02*
X151916800Y-80493200D01*
X174803700Y-95706300D02*
X175895000Y-94615000D01*
X155105800Y-95706300D02*
X174803700Y-95706300D01*
X154305000Y-94905500D02*
X155105800Y-95706300D01*
X154305000Y-94304400D02*
X154305000Y-94905500D01*
X153537900Y-93537300D02*
X154305000Y-94304400D01*
X151572700Y-93537300D02*
X153537900Y-93537300D01*
X150495000Y-94615000D02*
X151572700Y-93537300D01*
X149417300Y-93537300D02*
X150495000Y-94615000D01*
X147459100Y-93537300D02*
X149417300Y-93537300D01*
X146685100Y-94311300D02*
X147459100Y-93537300D01*
X146685100Y-94913400D02*
X146685100Y-94311300D01*
X145096900Y-96501600D02*
X146685100Y-94913400D01*
X126981600Y-96501600D02*
X145096900Y-96501600D01*
X125095000Y-94615000D02*
X126981600Y-96501600D01*
X118800000Y-98370000D02*
X122555000Y-94615000D01*
X102431000Y-98370000D02*
X118800000Y-98370000D01*
X145665700Y-96904300D02*
X147955000Y-94615000D01*
X124844300Y-96904300D02*
X145665700Y-96904300D01*
X122555000Y-94615000D02*
X124844300Y-96904300D01*
X121454000Y-78274000D02*
X122555000Y-79375000D01*
X116985400Y-78274000D02*
X121454000Y-78274000D01*
X116205000Y-79054400D02*
X116985400Y-78274000D01*
X116205000Y-79643400D02*
X116205000Y-79054400D01*
X110178400Y-85670000D02*
X116205000Y-79643400D01*
X102431000Y-85670000D02*
X110178400Y-85670000D01*
X111180000Y-88210000D02*
X102431000Y-88210000D01*
X120015000Y-79375000D02*
X111180000Y-88210000D01*
X206375000Y-76649700D02*
X206375000Y-79375000D01*
X206394000Y-76630700D02*
X206375000Y-76649700D01*
X206394000Y-75953000D02*
X206394000Y-76630700D01*
X112357800Y-97192200D02*
X114935000Y-94615000D01*
X101707200Y-97192200D02*
X112357800Y-97192200D01*
X101618300Y-97281100D02*
X101707200Y-97192200D01*
X101618300Y-100910000D02*
X101618300Y-97281100D01*
X102431000Y-100910000D02*
X101618300Y-100910000D01*
X163398100Y-92278100D02*
X165735000Y-94615000D01*
X138098500Y-92278100D02*
X163398100Y-92278100D01*
X136717300Y-93659300D02*
X138098500Y-92278100D01*
X136717300Y-95530000D02*
X136717300Y-93659300D01*
X136880000Y-95692700D02*
X136717300Y-95530000D01*
X139257300Y-95692700D02*
X136880000Y-95692700D01*
X140335000Y-94615000D02*
X139257300Y-95692700D01*
X142196700Y-81236700D02*
X140335000Y-79375000D01*
X147146600Y-81236700D02*
X142196700Y-81236700D01*
X147159600Y-81249700D02*
X147146600Y-81236700D01*
X159181800Y-81249700D02*
X147159600Y-81249700D01*
X160931900Y-79499600D02*
X159181800Y-81249700D01*
X161493300Y-79499600D02*
X160931900Y-79499600D01*
X162461200Y-80467500D02*
X161493300Y-79499600D01*
X164642500Y-80467500D02*
X162461200Y-80467500D01*
X165735000Y-79375000D02*
X164642500Y-80467500D01*
X163195000Y-94615000D02*
X162117300Y-94615000D01*
X137795000Y-94615000D02*
X138872700Y-94615000D01*
X138872700Y-94480200D02*
X138872700Y-94615000D01*
X140630900Y-92722000D02*
X138872700Y-94480200D01*
X160224300Y-92722000D02*
X140630900Y-92722000D01*
X162117300Y-94615000D02*
X160224300Y-92722000D01*
X108640000Y-83130000D02*
X112395000Y-79375000D01*
X102431000Y-83130000D02*
X108640000Y-83130000D01*
X114011900Y-77758100D02*
X123546500Y-77758100D01*
X112395000Y-79375000D02*
X114011900Y-77758100D01*
X159475400Y-81914400D02*
X161212500Y-80177300D01*
X146865800Y-81914400D02*
X159475400Y-81914400D01*
X168275000Y-76685700D02*
X168275000Y-79375000D01*
X168395000Y-76565700D02*
X168275000Y-76685700D01*
X168395000Y-75838000D02*
X168395000Y-76565700D01*
X180975000Y-76395700D02*
X180975000Y-79375000D01*
X180994000Y-76376700D02*
X180975000Y-76395700D01*
X180994000Y-75699000D02*
X180994000Y-76376700D01*
X130175000Y-76843700D02*
X130175000Y-79375000D01*
X130394000Y-76624700D02*
X130175000Y-76843700D01*
X130394000Y-75947000D02*
X130394000Y-76624700D01*
X142875000Y-76843700D02*
X142875000Y-79375000D01*
X143094000Y-76624700D02*
X142875000Y-76843700D01*
X143094000Y-75947000D02*
X143094000Y-76624700D01*
X155701000Y-79249000D02*
X155575000Y-79375000D01*
X155701000Y-75784000D02*
X155701000Y-79249000D01*
X191498000Y-7425900D02*
X191498000Y-9132300D01*
X102459000Y-37472800D02*
X101646300Y-37472800D01*
X101646300Y-31333800D02*
X101646300Y-37472800D01*
X101949500Y-31030600D02*
X101646300Y-31333800D01*
X104880900Y-31030600D02*
X101949500Y-31030600D01*
X105874300Y-30037200D02*
X104880900Y-31030600D01*
X113857200Y-30037200D02*
X105874300Y-30037200D01*
X114935000Y-31115000D02*
X113857200Y-30037200D01*
X116851600Y-29198400D02*
X114935000Y-31115000D01*
X129844200Y-29198400D02*
X116851600Y-29198400D01*
X131445000Y-30799200D02*
X129844200Y-29198400D01*
X131445000Y-31408900D02*
X131445000Y-30799200D01*
X132264600Y-32228500D02*
X131445000Y-31408900D01*
X148238500Y-32228500D02*
X132264600Y-32228500D01*
X149352000Y-31115000D02*
X148238500Y-32228500D01*
X121126200Y-30003800D02*
X120015000Y-31115000D01*
X122968500Y-30003800D02*
X121126200Y-30003800D01*
X123697800Y-30733100D02*
X122968500Y-30003800D01*
X123697800Y-31300500D02*
X123697800Y-30733100D01*
X125081400Y-32684100D02*
X123697800Y-31300500D01*
X152862900Y-32684100D02*
X125081400Y-32684100D01*
X154432000Y-31115000D02*
X152862900Y-32684100D01*
X118737200Y-34932800D02*
X122555000Y-31115000D01*
X102459000Y-34932800D02*
X118737200Y-34932800D01*
X155723600Y-32363400D02*
X155723600Y-34001900D01*
X156972000Y-31115000D02*
X155723600Y-32363400D01*
X192318500Y-32598500D02*
X193802000Y-31115000D01*
X160995500Y-32598500D02*
X192318500Y-32598500D01*
X159512000Y-31115000D02*
X160995500Y-32598500D01*
X163132800Y-32195800D02*
X162052000Y-31115000D01*
X178028500Y-32195800D02*
X163132800Y-32195800D01*
X180187000Y-30037300D02*
X178028500Y-32195800D01*
X195264300Y-30037300D02*
X180187000Y-30037300D01*
X196342000Y-31115000D02*
X195264300Y-30037300D01*
X115194900Y-32392800D02*
X102459000Y-32392800D01*
X116093300Y-31494400D02*
X115194900Y-32392800D01*
X116093300Y-30951000D02*
X116093300Y-31494400D01*
X117443200Y-29601100D02*
X116093300Y-30951000D01*
X126121100Y-29601100D02*
X117443200Y-29601100D01*
X127635000Y-31115000D02*
X126121100Y-29601100D01*
X166487500Y-29219500D02*
X164592000Y-31115000D01*
X196986500Y-29219500D02*
X166487500Y-29219500D01*
X198882000Y-31115000D02*
X196986500Y-29219500D01*
X102459000Y-29852800D02*
X103271700Y-29852800D01*
X168612400Y-29634600D02*
X167132000Y-31115000D01*
X196385800Y-29634600D02*
X168612400Y-29634600D01*
X197419800Y-30668600D02*
X196385800Y-29634600D01*
X197419800Y-31229900D02*
X197419800Y-30668600D01*
X198384300Y-32194400D02*
X197419800Y-31229900D01*
X200342600Y-32194400D02*
X198384300Y-32194400D01*
X201422000Y-31115000D02*
X200342600Y-32194400D01*
X104328800Y-28795700D02*
X103271700Y-29852800D01*
X130395700Y-28795700D02*
X104328800Y-28795700D01*
X132715000Y-31115000D02*
X130395700Y-28795700D01*
X132715000Y-15875000D02*
X132715000Y-27305000D01*
X116197200Y-27312800D02*
X127635000Y-15875000D01*
X102459000Y-27312800D02*
X116197200Y-27312800D01*
X190225100Y-9758100D02*
X166698800Y-9758100D01*
X196342000Y-15875000D02*
X190225100Y-9758100D01*
X166025800Y-10431100D02*
X166698800Y-9758100D01*
X165352600Y-10431100D02*
X166025800Y-10431100D01*
X162052000Y-13731700D02*
X165352600Y-10431100D01*
X162052000Y-15875000D02*
X162052000Y-13731700D01*
X164529500Y-8255100D02*
X164529500Y-8255000D01*
X166259900Y-8255100D02*
X164529500Y-8255100D01*
X166698800Y-8694000D02*
X166259900Y-8255100D01*
X166698800Y-9758100D02*
X166698800Y-8694000D01*
X124002800Y-14782800D02*
X125095000Y-15875000D01*
X119560700Y-14782800D02*
X124002800Y-14782800D01*
X118856800Y-15486700D02*
X119560700Y-14782800D01*
X118856800Y-16017500D02*
X118856800Y-15486700D01*
X112641500Y-22232800D02*
X118856800Y-16017500D01*
X102459000Y-22232800D02*
X112641500Y-22232800D01*
X160602100Y-16965100D02*
X159512000Y-15875000D01*
X192711900Y-16965100D02*
X160602100Y-16965100D01*
X193802000Y-15875000D02*
X192711900Y-16965100D01*
X159512000Y-15875000D02*
X159512000Y-12326900D01*
X111117200Y-24772800D02*
X102459000Y-24772800D01*
X120015000Y-15875000D02*
X111117200Y-24772800D01*
X151892000Y-14023400D02*
X151892000Y-15875000D01*
X151876000Y-14007400D02*
X151892000Y-14023400D01*
X151876000Y-13329700D02*
X151876000Y-14007400D01*
X165971000Y-14496000D02*
X164592000Y-15875000D01*
X165971000Y-11108900D02*
X165971000Y-14496000D01*
X186182000Y-13709600D02*
X186182000Y-15875000D01*
X186037000Y-13564600D02*
X186182000Y-13709600D01*
X186037000Y-12886900D02*
X186037000Y-13564600D01*
X198882000Y-13455600D02*
X198882000Y-15875000D01*
X198737000Y-13310600D02*
X198882000Y-13455600D01*
X198737000Y-12632900D02*
X198737000Y-13310600D01*
X130950600Y-15099400D02*
X130175000Y-15875000D01*
X130950600Y-12533900D02*
X130950600Y-15099400D01*
X130275700Y-11859000D02*
X130950600Y-12533900D01*
X130191000Y-11859000D02*
X130275700Y-11859000D01*
X130191000Y-11181300D02*
X130191000Y-11859000D01*
X117475000Y-13896400D02*
X117475000Y-15875000D01*
X117459000Y-13880400D02*
X117475000Y-13896400D01*
X117459000Y-13202700D02*
X117459000Y-13880400D01*
X44513187Y-49419162D02*
X45037349Y-48895000D01*
X45722900Y-51676372D02*
X44513187Y-50466659D01*
X45037349Y-48895000D02*
X53985123Y-48895000D01*
X56108700Y-74932500D02*
X53353400Y-77687800D01*
X56108700Y-69285100D02*
X56108700Y-74932500D01*
X48944400Y-59820700D02*
X45722900Y-56599200D01*
X53353400Y-77687800D02*
X49739400Y-77687800D01*
X46815600Y-73952200D02*
X48944400Y-71823400D01*
X44513187Y-50466659D02*
X44513187Y-49419162D01*
X46815600Y-74764000D02*
X46815600Y-73952200D01*
X48944400Y-71823400D02*
X48944400Y-59820700D01*
X45722900Y-56599200D02*
X45722900Y-51676372D01*
X49739400Y-77687800D02*
X46815600Y-74764000D01*
X53985123Y-48895000D02*
X54208680Y-48671443D01*
X53803900Y-42115900D02*
X53803900Y-39600100D01*
X56515000Y-44827000D02*
X53803900Y-42115900D01*
X56515000Y-48260000D02*
X56515000Y-44827000D01*
X59140000Y-51807700D02*
X59690000Y-51807700D01*
X58877700Y-52070000D02*
X59140000Y-51807700D01*
X58150000Y-52070000D02*
X58877700Y-52070000D01*
X59690000Y-51195000D02*
X59690000Y-51807700D01*
X59055000Y-48260000D02*
X59055000Y-49387700D01*
X58877700Y-49565000D02*
X59055000Y-49387700D01*
X58877700Y-52070000D02*
X58877700Y-49565000D01*
X61595000Y-48260000D02*
X62722700Y-48260000D01*
X72980100Y-54778200D02*
X73446900Y-55245000D01*
X72980100Y-47859800D02*
X72980100Y-54778200D01*
X72203100Y-47082800D02*
X72980100Y-47859800D01*
X63618000Y-47082800D02*
X72203100Y-47082800D01*
X62722700Y-47978100D02*
X63618000Y-47082800D01*
X62722700Y-48260000D02*
X62722700Y-47978100D01*
X43375000Y-66451800D02*
X43375000Y-71200500D01*
X41160700Y-64237500D02*
X43375000Y-66451800D01*
X39399000Y-60090300D02*
X38516400Y-60972900D01*
X39399000Y-56237200D02*
X39399000Y-60090300D01*
X39053500Y-55891700D02*
X39399000Y-56237200D01*
X39053500Y-47918400D02*
X39053500Y-55891700D01*
X48456000Y-38515900D02*
X39053500Y-47918400D01*
X54273000Y-38515900D02*
X48456000Y-38515900D01*
X54875800Y-39118700D02*
X54273000Y-38515900D01*
X56228500Y-39118700D02*
X54875800Y-39118700D01*
X56555200Y-38792000D02*
X56228500Y-39118700D01*
X71822700Y-38792000D02*
X56555200Y-38792000D01*
X72304600Y-39273900D02*
X71822700Y-38792000D01*
X72304600Y-41171900D02*
X72304600Y-39273900D01*
X71077000Y-42399500D02*
X72304600Y-41171900D01*
X70343800Y-42399500D02*
X71077000Y-42399500D01*
X68984200Y-43759100D02*
X70343800Y-42399500D01*
X66675000Y-48260000D02*
X65547300Y-48260000D01*
X64650700Y-49435900D02*
X60114000Y-49435900D01*
X65547300Y-48539300D02*
X64650700Y-49435900D01*
X65547300Y-48260000D02*
X65547300Y-48539300D01*
X56425400Y-41245500D02*
X56425400Y-42413000D01*
X54098600Y-38918700D02*
X56425400Y-41245500D01*
X48622900Y-38918700D02*
X54098600Y-38918700D01*
X40096700Y-47444900D02*
X48622900Y-38918700D01*
X40096700Y-49407400D02*
X40096700Y-47444900D01*
X40431500Y-49742200D02*
X40096700Y-49407400D01*
X40431500Y-54711000D02*
X40431500Y-49742200D01*
X43777800Y-58057300D02*
X40431500Y-54711000D01*
X43777800Y-66926700D02*
X43777800Y-58057300D01*
X44509900Y-67658800D02*
X43777800Y-66926700D01*
X69215000Y-48260000D02*
X68087300Y-48260000D01*
X68087300Y-48484400D02*
X68087300Y-48260000D01*
X67017100Y-49554600D02*
X68087300Y-48484400D01*
X65950600Y-49554600D02*
X67017100Y-49554600D01*
X59249200Y-56256000D02*
X65950600Y-49554600D01*
X58466300Y-56256000D02*
X59249200Y-56256000D01*
X55519700Y-59202600D02*
X58466300Y-56256000D01*
X55519700Y-61658100D02*
X55519700Y-59202600D01*
X71755000Y-48260000D02*
X70627300Y-48260000D01*
X70627300Y-48542000D02*
X70627300Y-48260000D01*
X68097000Y-51072300D02*
X70627300Y-48542000D01*
X65002500Y-51072300D02*
X68097000Y-51072300D01*
X59416100Y-56658700D02*
X65002500Y-51072300D01*
X58657100Y-56658700D02*
X59416100Y-56658700D01*
X56482300Y-58833500D02*
X58657100Y-56658700D01*
X56482300Y-61702600D02*
X56482300Y-58833500D01*
X47198754Y-47180500D02*
X53472823Y-47180500D01*
X46013665Y-48365589D02*
X47198754Y-47180500D01*
X44110776Y-50633343D02*
X44110776Y-49252478D01*
X45278900Y-51801467D02*
X44110776Y-50633343D01*
X53472823Y-47180500D02*
X54171323Y-47879000D01*
X46495500Y-60413600D02*
X45278900Y-59197000D01*
X44110776Y-49252478D02*
X44997665Y-48365589D01*
X46916800Y-68055000D02*
X46495500Y-67633700D01*
X54171323Y-47879000D02*
X54737008Y-47879000D01*
X46495500Y-67633700D02*
X46495500Y-60413600D01*
X45278900Y-59197000D02*
X45278900Y-51801467D01*
X44997665Y-48365589D02*
X46013665Y-48365589D01*
X55137007Y-48278999D02*
X54737008Y-47879000D01*
X57642800Y-48049800D02*
X57642800Y-49229800D01*
X74295000Y-48260000D02*
X72676100Y-46641100D01*
X55137007Y-48976407D02*
X55137007Y-48278999D01*
X57468100Y-49404500D02*
X55565100Y-49404500D01*
X72676100Y-46641100D02*
X59051500Y-46641100D01*
X57642800Y-49229800D02*
X57468100Y-49404500D01*
X59051500Y-46641100D02*
X57642800Y-48049800D01*
X55565100Y-49404500D02*
X55137007Y-48976407D01*
X64431600Y-39327200D02*
X64282600Y-39476200D01*
X67364100Y-39327200D02*
X64431600Y-39327200D01*
X69665800Y-41628900D02*
X67364100Y-39327200D01*
X70856100Y-41628900D02*
X69665800Y-41628900D01*
X70856100Y-41629000D02*
X70856100Y-41628900D01*
X36293800Y-61814100D02*
X37050300Y-62570600D01*
X36293800Y-54838400D02*
X36293800Y-61814100D01*
X22590900Y-41135500D02*
X36293800Y-54838400D01*
X22381500Y-41135500D02*
X22590900Y-41135500D01*
X81915000Y-46355000D02*
X80787300Y-46355000D01*
X38650800Y-47676200D02*
X38650800Y-59730900D01*
X48563700Y-37763300D02*
X38650800Y-47676200D01*
X55693500Y-37763300D02*
X48563700Y-37763300D01*
X55916700Y-37986500D02*
X55693500Y-37763300D01*
X72319600Y-37986500D02*
X55916700Y-37986500D01*
X73619900Y-39286800D02*
X72319600Y-37986500D01*
X76912600Y-39286800D02*
X73619900Y-39286800D01*
X80787300Y-43161500D02*
X76912600Y-39286800D01*
X80787300Y-46355000D02*
X80787300Y-43161500D01*
X86487000Y-21717000D02*
X85979000Y-21209000D01*
X86487000Y-33655000D02*
X86487000Y-21717000D01*
X65198400Y-75147600D02*
X65198400Y-73808200D01*
X66356800Y-76306000D02*
X65198400Y-75147600D01*
X66356800Y-79575700D02*
X66356800Y-76306000D01*
X76982000Y-90200900D02*
X66356800Y-79575700D01*
X76982000Y-90377900D02*
X76982000Y-90200900D01*
X64055300Y-57476400D02*
X64055300Y-61165000D01*
X67351900Y-54179800D02*
X64055300Y-57476400D01*
X68253100Y-54179800D02*
X67351900Y-54179800D01*
X69214900Y-55141600D02*
X68253100Y-54179800D01*
X69214900Y-55355200D02*
X69214900Y-55141600D01*
X69905000Y-56045300D02*
X69214900Y-55355200D01*
X70554800Y-56045300D02*
X69905000Y-56045300D01*
X71867600Y-54732500D02*
X70554800Y-56045300D01*
X71867600Y-54347700D02*
X71867600Y-54732500D01*
X35406000Y-107603000D02*
X35406000Y-102523000D01*
X154510200Y-42750600D02*
X154400500Y-42860300D01*
X154725300Y-42750600D02*
X154510200Y-42750600D01*
X155370700Y-42750600D02*
X154725300Y-42750600D01*
X155370700Y-42750600D02*
X155453000Y-42750600D01*
X156180700Y-42791000D02*
X156215300Y-42825600D01*
X156180700Y-42750600D02*
X156180700Y-42791000D01*
X156993000Y-42825600D02*
X156215300Y-42825600D01*
X155453000Y-42750600D02*
X156180700Y-42750600D01*
X130053000Y-42496600D02*
X126513000Y-42496600D01*
X126513000Y-42571600D02*
X126513000Y-42496600D01*
X126513000Y-42496600D02*
X126513000Y-41958900D01*
X125791900Y-41958900D02*
X124802700Y-42948100D01*
X126513000Y-41958900D02*
X125791900Y-41958900D01*
X191001700Y-42176200D02*
X190926700Y-42251200D01*
X193689000Y-42176200D02*
X191001700Y-42176200D01*
X190241000Y-42251200D02*
X190240200Y-42251200D01*
X190149000Y-42251200D02*
X190240200Y-42251200D01*
X190241000Y-42251200D02*
X190926700Y-42251200D01*
X190240200Y-42251200D02*
X190240200Y-39540800D01*
X219816700Y-42216600D02*
X219851300Y-42251200D01*
X219816700Y-42176200D02*
X219816700Y-42216600D01*
X220629000Y-42251200D02*
X219851300Y-42251200D01*
X219452900Y-42176200D02*
X219816700Y-42176200D01*
X219452900Y-42176200D02*
X219089000Y-42176200D01*
X219089000Y-42176200D02*
X219089000Y-41498500D01*
X219089000Y-41498500D02*
X219089000Y-38696300D01*
X146291000Y-44584300D02*
X146291000Y-45197000D01*
X144701000Y-45197000D02*
X146291000Y-45197000D01*
X144701000Y-44709300D02*
X144701000Y-45197000D01*
X144701000Y-45197000D02*
X144701000Y-45722200D01*
X114665700Y-42750600D02*
X114590700Y-42825600D01*
X117353000Y-42750600D02*
X114665700Y-42750600D01*
X113813000Y-42825600D02*
X114590700Y-42825600D01*
X113813000Y-42826500D02*
X112824500Y-43815000D01*
X113813000Y-42825600D02*
X113813000Y-42826500D01*
X180989000Y-42430200D02*
X176746300Y-42430200D01*
X176746300Y-42430200D02*
X176671300Y-42505200D01*
X177449000Y-42505200D02*
X176671300Y-42505200D01*
X176671300Y-42505200D02*
X176671300Y-41580800D01*
X209858000Y-43957700D02*
X209080300Y-43957700D01*
X208955300Y-44082700D02*
X209080300Y-43957700D01*
X208268000Y-44082700D02*
X208955300Y-44082700D01*
X208268000Y-44082700D02*
X207590300Y-44082700D01*
X207590300Y-43998000D02*
X204437600Y-40845300D01*
X207590300Y-44082700D02*
X207590300Y-43998000D01*
X222685000Y-75713000D02*
X222685000Y-76325700D01*
X222016500Y-76325700D02*
X222685000Y-76325700D01*
X221772700Y-76081900D02*
X222016500Y-76325700D01*
X221772700Y-75838000D02*
X221772700Y-76081900D01*
X221095000Y-75838000D02*
X221772700Y-75838000D01*
X221095000Y-75838000D02*
X221095000Y-76863700D01*
X180994000Y-73799000D02*
X177454000Y-73799000D01*
X177454000Y-73874000D02*
X177454000Y-73799000D01*
X177454000Y-73799000D02*
X177454000Y-73261300D01*
X177454000Y-73261300D02*
X177454000Y-72242700D01*
X97079100Y-73726000D02*
X100013400Y-73726000D01*
X96451000Y-73097900D02*
X97079100Y-73726000D01*
X94909700Y-73097900D02*
X96451000Y-73097900D01*
X94283900Y-73723700D02*
X94909700Y-73097900D01*
X94283900Y-75233800D02*
X94283900Y-73723700D01*
X94636300Y-75586200D02*
X94283900Y-75233800D01*
X94636300Y-76890500D02*
X94636300Y-75586200D01*
X126854000Y-73107500D02*
X127679501Y-72281999D01*
X127679501Y-72281999D02*
X128079500Y-71882000D01*
X126854000Y-74122000D02*
X126854000Y-73107500D01*
X127706700Y-74047000D02*
X127631700Y-74122000D01*
X130394000Y-74047000D02*
X127706700Y-74047000D01*
X126854000Y-74122000D02*
X127631700Y-74122000D01*
X159191000Y-75659000D02*
X158413300Y-75659000D01*
X158288300Y-75784000D02*
X157601000Y-75784000D01*
X158413300Y-75659000D02*
X158288300Y-75784000D01*
X157601000Y-75784000D02*
X156923300Y-75784000D01*
X154768900Y-73201600D02*
X154768900Y-70629200D01*
X156923300Y-75356000D02*
X154768900Y-73201600D01*
X156923300Y-75784000D02*
X156923300Y-75356000D01*
X203706700Y-74053000D02*
X203631700Y-74128000D01*
X206394000Y-74053000D02*
X203706700Y-74053000D01*
X203242900Y-74128000D02*
X203631700Y-74128000D01*
X203242900Y-74128000D02*
X202854000Y-74128000D01*
X202076300Y-74302400D02*
X200799400Y-75579300D01*
X202076300Y-74128000D02*
X202076300Y-74302400D01*
X202854000Y-74128000D02*
X202076300Y-74128000D01*
X171885000Y-75713000D02*
X171885000Y-76325700D01*
X171216500Y-76325700D02*
X171885000Y-76325700D01*
X170972700Y-76081900D02*
X171216500Y-76325700D01*
X170972700Y-75838000D02*
X170972700Y-76081900D01*
X170633900Y-75838000D02*
X170344800Y-75838000D01*
X170633900Y-75838000D02*
X170972700Y-75838000D01*
X170295000Y-75838000D02*
X170319900Y-75838000D01*
X170319900Y-75838000D02*
X170344800Y-75838000D01*
X128385900Y-76647300D02*
X121886000Y-76647300D01*
X130308400Y-74724800D02*
X128385900Y-76647300D01*
X133035400Y-74724800D02*
X130308400Y-74724800D01*
X137815000Y-69945200D02*
X133035400Y-74724800D01*
X156723600Y-69945200D02*
X137815000Y-69945200D01*
X161888600Y-75110200D02*
X156723600Y-69945200D01*
X169592200Y-75110200D02*
X161888600Y-75110200D01*
X169592200Y-75110300D02*
X169592200Y-75110200D01*
X170319900Y-75838000D02*
X169592200Y-75110300D01*
X97651800Y-76463400D02*
X95383200Y-74194800D01*
X97651800Y-80250000D02*
X97651800Y-76463400D01*
X139554000Y-71901000D02*
X139681001Y-71773999D01*
X139554000Y-74122000D02*
X139554000Y-71901000D01*
X139681001Y-71773999D02*
X140081000Y-71374000D01*
X140406700Y-74047000D02*
X140331700Y-74122000D01*
X143094000Y-74047000D02*
X140406700Y-74047000D01*
X139554000Y-74122000D02*
X140331700Y-74122000D01*
X163283700Y-9208900D02*
X163208700Y-9283900D01*
X165971000Y-9208900D02*
X163283700Y-9208900D01*
X162819900Y-9283900D02*
X163208700Y-9283900D01*
X162819900Y-9283900D02*
X162431000Y-9283900D01*
X117812200Y-8771000D02*
X115915400Y-10667800D01*
X161140400Y-8771000D02*
X117812200Y-8771000D01*
X161653300Y-9283900D02*
X161140400Y-8771000D01*
X162431000Y-9283900D02*
X161653300Y-9283900D01*
X196154200Y-10732900D02*
X196052700Y-10834400D01*
X198737000Y-10732900D02*
X196154200Y-10732900D01*
X195604500Y-10834400D02*
X196052700Y-10834400D01*
X195604500Y-10834400D02*
X195275000Y-10834400D01*
X195275000Y-10834400D02*
X195275000Y-9878300D01*
X130191000Y-13081300D02*
X129463300Y-13081300D01*
X133731000Y-13006300D02*
X133731000Y-13619000D01*
X125672600Y-10137400D02*
X117511200Y-10137400D01*
X129039900Y-13504700D02*
X125672600Y-10137400D01*
X129463300Y-13081300D02*
X129039900Y-13504700D01*
X133424600Y-13619000D02*
X133731000Y-13619000D01*
X131353400Y-15690200D02*
X133424600Y-13619000D01*
X131353400Y-16286400D02*
X131353400Y-15690200D01*
X130641800Y-16998000D02*
X131353400Y-16286400D01*
X129756000Y-16998000D02*
X130641800Y-16998000D01*
X129039900Y-16281900D02*
X129756000Y-16998000D01*
X129039900Y-13504700D02*
X129039900Y-16281900D01*
X149264700Y-11429700D02*
X149189700Y-11504700D01*
X151876000Y-11429700D02*
X149264700Y-11429700D01*
X148800900Y-11504700D02*
X149189700Y-11504700D01*
X148800900Y-11504700D02*
X148412000Y-11504700D01*
X146975300Y-9455300D02*
X118237300Y-9455300D01*
X148412000Y-10892000D02*
X146975300Y-9455300D01*
X148412000Y-11504700D02*
X148412000Y-10892000D01*
X183349700Y-10986900D02*
X183274700Y-11061900D01*
X186037000Y-10986900D02*
X183349700Y-10986900D01*
X182497000Y-11061900D02*
X183274700Y-11061900D01*
X182497000Y-11061900D02*
X181719300Y-11061900D01*
X181431100Y-10773700D02*
X181719300Y-11061900D01*
X113066600Y-11303000D02*
X112827400Y-11303000D01*
X113141300Y-11377700D02*
X113066600Y-11303000D01*
X113919000Y-11377700D02*
X113141300Y-11377700D01*
X113919000Y-11377700D02*
X114696700Y-11377700D01*
X116656300Y-11377700D02*
X116731300Y-11302700D01*
X114696700Y-11377700D02*
X116656300Y-11377700D01*
X117459000Y-11302700D02*
X116731300Y-11302700D01*
X186947699Y-2474409D02*
X186547700Y-2074410D01*
X188036000Y-5602000D02*
X188036000Y-3562710D01*
X188036000Y-3562710D02*
X186947699Y-2474409D01*
X188889800Y-5525900D02*
X188813700Y-5602000D01*
X191498000Y-5525900D02*
X188889800Y-5525900D01*
X188424900Y-5602000D02*
X188813700Y-5602000D01*
X188424900Y-5602000D02*
X188036000Y-5602000D01*
X13081000Y-126252000D02*
X11169000Y-126252000D01*
X11169000Y-126252000D02*
X11022000Y-126399000D01*
X58660000Y-54737000D02*
X58047300Y-54737000D01*
X56150000Y-53020000D02*
X56877700Y-53020000D01*
X58047300Y-54189600D02*
X56877700Y-53020000D01*
X58047300Y-54737000D02*
X58047300Y-54189600D01*
X86331248Y-53340000D02*
X87930000Y-53340000D01*
X78404906Y-50694094D02*
X84907150Y-50694094D01*
X87930000Y-53340000D02*
X88630000Y-53340000D01*
X76902000Y-51737500D02*
X77361500Y-51737500D01*
X85259402Y-51046346D02*
X85259402Y-52268154D01*
X85259402Y-52268154D02*
X86331248Y-53340000D01*
X77361500Y-51737500D02*
X78404906Y-50694094D01*
X84907150Y-50694094D02*
X85259402Y-51046346D01*
X76317000Y-51737500D02*
X76902000Y-51737500D01*
X54825800Y-41839700D02*
X56308900Y-43322800D01*
X62846500Y-43322800D02*
X63960500Y-44436800D01*
X56308900Y-43322800D02*
X62846500Y-43322800D01*
X63960500Y-44436800D02*
X72375500Y-44436800D01*
X75601600Y-51022100D02*
X76317000Y-51737500D01*
X75601600Y-47662900D02*
X75601600Y-51022100D01*
X72375500Y-44436800D02*
X75601600Y-47662900D01*
X89775000Y-53757300D02*
X90170000Y-53757300D01*
X89357700Y-53340000D02*
X89775000Y-53757300D01*
X88630000Y-53340000D02*
X89357700Y-53340000D01*
X90170000Y-54370000D02*
X90170000Y-53757300D01*
X86755000Y-55092700D02*
X86755000Y-55880000D01*
X86630000Y-54967700D02*
X86755000Y-55092700D01*
X86630000Y-54290000D02*
X86630000Y-54967700D01*
X87478600Y-61325000D02*
X87915300Y-61761700D01*
X87310000Y-61325000D02*
X87478600Y-61325000D01*
X88693000Y-61761700D02*
X87915300Y-61761700D01*
X3197777Y-46718035D02*
X1397000Y-48518810D01*
X5080000Y-40640000D02*
X3197777Y-42522223D01*
X1397000Y-48518810D02*
X1397000Y-87117028D01*
X9890630Y-131479000D02*
X11022000Y-131479000D01*
X1397000Y-87117028D02*
X4302900Y-90022927D01*
X4302900Y-90022927D02*
X4302900Y-125891270D01*
X4302900Y-125891270D02*
X9890630Y-131479000D01*
X3197777Y-42522223D02*
X3197777Y-46718035D01*
X87037700Y-58587600D02*
X87205300Y-58420000D01*
X87037700Y-59325000D02*
X87037700Y-58587600D01*
X87818000Y-58420000D02*
X87205300Y-58420000D01*
X86596900Y-59325000D02*
X87037700Y-59325000D01*
X86596900Y-59325000D02*
X86360000Y-59325000D01*
X87818000Y-58420000D02*
X87818000Y-57642300D01*
X91361100Y-52082900D02*
X88860500Y-49582300D01*
X91361100Y-56790900D02*
X91361100Y-52082900D01*
X90976800Y-57175200D02*
X91361100Y-56790900D01*
X88854700Y-57175200D02*
X90976800Y-57175200D01*
X88387600Y-57642300D02*
X88854700Y-57175200D01*
X87818000Y-57642300D02*
X88387600Y-57642300D01*
X48786500Y-34453000D02*
X43706100Y-39533400D01*
X78400100Y-34453000D02*
X48786500Y-34453000D01*
X88860500Y-44913400D02*
X78400100Y-34453000D01*
X88860500Y-47609500D02*
X88860500Y-44913400D01*
X79647300Y-52732800D02*
X78652000Y-51737500D01*
X79647300Y-53025000D02*
X79647300Y-52732800D01*
X80375000Y-53025000D02*
X79647300Y-53025000D01*
X77385000Y-53712700D02*
X76835000Y-53712700D01*
X77647300Y-53975000D02*
X77385000Y-53712700D01*
X78375000Y-53975000D02*
X77647300Y-53975000D01*
X76835000Y-53100000D02*
X76835000Y-53712700D01*
X76835000Y-53100000D02*
X76057300Y-53100000D01*
X75615000Y-53542300D02*
X74421300Y-53542300D01*
X76057300Y-53100000D02*
X75615000Y-53542300D01*
X98706300Y-69053500D02*
X95692800Y-66040000D01*
X98706300Y-69152000D02*
X98706300Y-69053500D01*
X99519000Y-69152000D02*
X98706300Y-69152000D01*
X94989100Y-63696500D02*
X94989100Y-63565600D01*
X97904600Y-66612000D02*
X94989100Y-63696500D01*
X99519000Y-66612000D02*
X97904600Y-66612000D01*
X99519000Y-64071900D02*
X100331700Y-64071900D01*
X100633600Y-64373800D02*
X100633600Y-67852700D01*
X100331700Y-64071900D02*
X100633600Y-64373800D01*
X98208300Y-61531900D02*
X95995600Y-63744600D01*
X99519000Y-61531900D02*
X98208300Y-61531900D01*
X99519000Y-58991900D02*
X98706300Y-58991900D01*
X98706300Y-58489100D02*
X94827200Y-54610000D01*
X98706300Y-58991900D02*
X98706300Y-58489100D01*
X99519000Y-53911900D02*
X98706300Y-53911900D01*
X97397400Y-52603000D02*
X96012200Y-52603000D01*
X98706300Y-53911900D02*
X97397400Y-52603000D01*
X99519000Y-56451900D02*
X100331700Y-56451900D01*
X100331700Y-55446500D02*
X100533200Y-55245000D01*
X100331700Y-56451900D02*
X100331700Y-55446500D01*
X99519000Y-51371900D02*
X100331700Y-51371900D01*
X100607000Y-51647200D02*
X100607000Y-52070000D01*
X100331700Y-51371900D02*
X100607000Y-51647200D01*
X99421000Y-100910000D02*
X98608300Y-100910000D01*
X98558500Y-100910000D02*
X95244700Y-97596200D01*
X98608300Y-100910000D02*
X98558500Y-100910000D01*
X99421000Y-98370000D02*
X98608300Y-98370000D01*
X98608300Y-97797000D02*
X95841200Y-95029900D01*
X98608300Y-98370000D02*
X98608300Y-97797000D01*
X99421000Y-95830000D02*
X100233700Y-95830000D01*
X100233700Y-99336200D02*
X100500200Y-99602700D01*
X100233700Y-95830000D02*
X100233700Y-99336200D01*
X97795600Y-94102700D02*
X98608300Y-93290000D01*
X95787500Y-94102700D02*
X97795600Y-94102700D01*
X95163500Y-94726700D02*
X95787500Y-94102700D01*
X95163500Y-95885000D02*
X95163500Y-94726700D01*
X99421000Y-93290000D02*
X98608300Y-93290000D01*
X99421000Y-90750000D02*
X98608300Y-90750000D01*
X98093400Y-91264900D02*
X98608300Y-90750000D01*
X95511700Y-91264900D02*
X98093400Y-91264900D01*
X93528300Y-89281500D02*
X95511700Y-91264900D01*
X93528300Y-87032900D02*
X93528300Y-89281500D01*
X99421000Y-85670000D02*
X98608300Y-85670000D01*
X96758300Y-83820000D02*
X95987600Y-83820000D01*
X98608300Y-85670000D02*
X96758300Y-83820000D01*
X99421000Y-88210000D02*
X98608300Y-88210000D01*
X98608300Y-88537900D02*
X98608300Y-88210000D01*
X96296500Y-90849700D02*
X98608300Y-88537900D01*
X95685400Y-90849700D02*
X96296500Y-90849700D01*
X94997000Y-90161300D02*
X95685400Y-90849700D01*
X94997000Y-86837400D02*
X94997000Y-90161300D01*
X99421000Y-83130000D02*
X100233700Y-83130000D01*
X100233700Y-83542400D02*
X100511300Y-83820000D01*
X100233700Y-83130000D02*
X100233700Y-83542400D01*
X99449000Y-37472800D02*
X98636300Y-37472800D01*
X95810300Y-34646800D02*
X94707900Y-34646800D01*
X98636300Y-37472800D02*
X95810300Y-34646800D01*
X97690200Y-34932800D02*
X99449000Y-34932800D01*
X94688100Y-31930700D02*
X97690200Y-34932800D01*
X94688100Y-31750000D02*
X94688100Y-31930700D01*
X99449000Y-32392800D02*
X100261700Y-32392800D01*
X100261700Y-35874700D02*
X100509000Y-36122000D01*
X100261700Y-32392800D02*
X100261700Y-35874700D01*
X98636300Y-29855100D02*
X96103600Y-32387800D01*
X98636300Y-29852800D02*
X98636300Y-29855100D01*
X99449000Y-29852800D02*
X98636300Y-29852800D01*
X99449000Y-27312800D02*
X98636300Y-27312800D01*
X98636300Y-27312800D02*
X94183500Y-22860000D01*
X99449000Y-22232800D02*
X98636300Y-22232800D01*
X98081000Y-21677500D02*
X95999400Y-21677500D01*
X98636300Y-22232800D02*
X98081000Y-21677500D01*
X99449000Y-24772800D02*
X100261700Y-24772800D01*
X100551200Y-24483300D02*
X100551200Y-23402800D01*
X100261700Y-24772800D02*
X100551200Y-24483300D01*
X24037000Y-134226000D02*
X26055000Y-134226000D01*
X26055000Y-134226000D02*
X26262000Y-134019000D01*
X19433601Y-111251301D02*
X19833600Y-111651300D01*
X7717900Y-72197800D02*
X8697700Y-73177600D01*
X8845335Y-100663035D02*
X19433601Y-111251301D01*
X8697700Y-89911527D02*
X8845335Y-90059162D01*
X6350000Y-71410000D02*
X7137800Y-72197800D01*
X5080000Y-63500000D02*
X6350000Y-64770000D01*
X6350000Y-64770000D02*
X6350000Y-71410000D01*
X8845335Y-90059162D02*
X8845335Y-100663035D01*
X8697700Y-73177600D02*
X8697700Y-89911527D01*
X7137800Y-72197800D02*
X7717900Y-72197800D01*
X76857500Y-126005500D02*
X76857500Y-127322800D01*
X91595900Y-111267100D02*
X76857500Y-126005500D01*
X93881500Y-111267100D02*
X91595900Y-111267100D01*
X94761900Y-110386700D02*
X93881500Y-111267100D01*
X94761900Y-108430600D02*
X94761900Y-110386700D01*
X92885600Y-106554300D02*
X94761900Y-108430600D01*
X92085400Y-83691300D02*
X92085400Y-91513300D01*
X92741800Y-83034900D02*
X92085400Y-83691300D01*
X92741800Y-80275100D02*
X92741800Y-83034900D01*
X92217100Y-79750400D02*
X92741800Y-80275100D01*
X92217100Y-70392900D02*
X92217100Y-79750400D01*
X86215700Y-64391500D02*
X92217100Y-70392900D01*
X56910000Y-54737000D02*
X55612000Y-54737000D01*
X55612000Y-54737000D02*
X54999300Y-54737000D01*
X54999300Y-55402200D02*
X54999300Y-54737000D01*
X53977500Y-56424000D02*
X54999300Y-55402200D01*
X52545600Y-56424000D02*
X53977500Y-56424000D01*
X51414800Y-57554800D02*
X52545600Y-56424000D01*
X51414800Y-57630300D02*
X51414800Y-57554800D01*
X49815600Y-59229500D02*
X51414800Y-57630300D01*
X49815600Y-74413700D02*
X49815600Y-59229500D01*
X50961900Y-75560000D02*
X49815600Y-74413700D01*
X72577400Y-55526700D02*
X73531900Y-56481200D01*
X72577400Y-53344400D02*
X72577400Y-55526700D01*
X70719400Y-51486400D02*
X72577400Y-53344400D01*
X70157900Y-51486400D02*
X70719400Y-51486400D01*
X69760900Y-51883400D02*
X70157900Y-51486400D01*
X69760900Y-54918700D02*
X69760900Y-51883400D01*
X70209800Y-55367600D02*
X69760900Y-54918700D01*
X87892200Y-56657800D02*
X85271470Y-56657800D01*
X88505000Y-56045000D02*
X87892200Y-56657800D01*
X88505000Y-55880000D02*
X88505000Y-56045000D01*
X85271470Y-56657800D02*
X84045438Y-55431768D01*
X84045438Y-55431768D02*
X83645439Y-55031769D01*
X88693000Y-60011700D02*
X87915300Y-60011700D01*
X87663700Y-59760100D02*
X87614300Y-59760100D01*
X87915300Y-60011700D02*
X87663700Y-59760100D01*
X84455000Y-53340000D02*
X84455000Y-51371510D01*
X85207400Y-60467800D02*
X85399700Y-60275500D01*
X83444815Y-51371500D02*
X83889325Y-51371500D01*
X84455000Y-51371510D02*
X84455010Y-51371500D01*
X85399700Y-58060600D02*
X82092200Y-54753100D01*
X82092200Y-54753100D02*
X82092200Y-52724115D01*
X86994000Y-64177800D02*
X84694000Y-61877800D01*
X90404900Y-64177800D02*
X86994000Y-64177800D01*
X82092200Y-52724115D02*
X83444815Y-51371500D01*
X84694000Y-61877800D02*
X84694000Y-60743600D01*
X84969800Y-60467800D02*
X85207400Y-60467800D01*
X85399700Y-60275500D02*
X85399700Y-58060600D01*
X83889325Y-51371500D02*
X84455010Y-51371500D01*
X84694000Y-60743600D02*
X84969800Y-60467800D01*
X104043600Y-107653600D02*
X104043600Y-144026700D01*
X94469500Y-98079500D02*
X104043600Y-107653600D01*
X94469500Y-94844800D02*
X94469500Y-98079500D01*
X95642000Y-93672300D02*
X94469500Y-94844800D01*
X96913400Y-93672300D02*
X95642000Y-93672300D01*
X98517500Y-92068200D02*
X96913400Y-93672300D01*
X100000300Y-92068200D02*
X98517500Y-92068200D01*
X100283900Y-91784600D02*
X100000300Y-92068200D01*
X100283900Y-84686400D02*
X100283900Y-91784600D01*
X100057200Y-84459700D02*
X100283900Y-84686400D01*
X98921900Y-84459700D02*
X100057200Y-84459700D01*
X98608200Y-84146000D02*
X98921900Y-84459700D01*
X98608200Y-82055700D02*
X98608200Y-84146000D01*
X98833100Y-81830800D02*
X98608200Y-82055700D01*
X99058100Y-81830800D02*
X98833100Y-81830800D01*
X99803000Y-81085900D02*
X99058100Y-81830800D01*
X99803000Y-79640400D02*
X99803000Y-81085900D01*
X100908000Y-78535400D02*
X99803000Y-79640400D01*
X100908000Y-72372700D02*
X100908000Y-78535400D01*
X94643300Y-66108000D02*
X100908000Y-72372700D01*
X94643300Y-64715500D02*
X94643300Y-66108000D01*
X59450000Y-42545000D02*
X58837300Y-42545000D01*
X58837300Y-42545000D02*
X57786800Y-42545000D01*
X65342000Y-42990700D02*
X63711200Y-42990700D01*
X66280000Y-42052700D02*
X65342000Y-42990700D01*
X66280000Y-41275000D02*
X66280000Y-42052700D01*
X99443300Y-109494200D02*
X98007600Y-108058500D01*
X99443300Y-114521700D02*
X99443300Y-109494200D01*
X94877300Y-119087700D02*
X99443300Y-114521700D01*
X94877300Y-165472700D02*
X94877300Y-119087700D01*
X93345000Y-167005000D02*
X94877300Y-165472700D01*
X58677400Y-101624700D02*
X58677400Y-106590700D01*
X59063200Y-101238900D02*
X58677400Y-101624700D01*
X59063200Y-100364300D02*
X59063200Y-101238900D01*
X58489900Y-99791000D02*
X59063200Y-100364300D01*
X58489900Y-78241800D02*
X58489900Y-99791000D01*
X57820500Y-77572400D02*
X58489900Y-78241800D01*
X57820500Y-72419400D02*
X57820500Y-77572400D01*
X58079500Y-72160400D02*
X57820500Y-72419400D01*
X58079500Y-67449500D02*
X58079500Y-72160400D01*
X54819700Y-64189700D02*
X58079500Y-67449500D01*
X54819700Y-59323400D02*
X54819700Y-64189700D01*
X58539000Y-55604100D02*
X54819700Y-59323400D01*
X59046900Y-55604100D02*
X58539000Y-55604100D01*
X59575000Y-55076000D02*
X59046900Y-55604100D01*
X59575000Y-54934600D02*
X59575000Y-55076000D01*
X216535000Y-107315000D02*
X216535000Y-126365000D01*
X216535000Y-164465000D02*
X216535000Y-145415000D01*
X216535000Y-145415000D02*
X216535000Y-126365000D01*
X113772800Y-140442800D02*
X113772800Y-127389000D01*
X118745000Y-145415000D02*
X113772800Y-140442800D01*
X67272600Y-107469000D02*
X67272600Y-115691500D01*
X66978700Y-107175100D02*
X67272600Y-107469000D01*
X66978700Y-92018600D02*
X66978700Y-107175100D01*
X68033100Y-90964200D02*
X66978700Y-92018600D01*
X68033100Y-88131300D02*
X68033100Y-90964200D01*
X63167800Y-83266000D02*
X68033100Y-88131300D01*
X63167800Y-65658600D02*
X63167800Y-83266000D01*
X62765100Y-65255900D02*
X63167800Y-65658600D01*
X197485000Y-164465000D02*
X197485000Y-145415000D01*
X197485000Y-145415000D02*
X197485000Y-126365000D01*
X197485000Y-126365000D02*
X197485000Y-107315000D01*
X72594400Y-58030500D02*
X72594400Y-58030400D01*
X74798700Y-58030500D02*
X72594400Y-58030500D01*
X83842800Y-67074600D02*
X74798700Y-58030500D01*
X83842800Y-69428500D02*
X83842800Y-67074600D01*
X89164900Y-74750600D02*
X83842800Y-69428500D01*
X89164900Y-87835700D02*
X89164900Y-74750600D01*
X88798700Y-88201900D02*
X89164900Y-87835700D01*
X88798700Y-99111200D02*
X88798700Y-88201900D01*
X95624800Y-105937300D02*
X88798700Y-99111200D01*
X100266600Y-105937300D02*
X95624800Y-105937300D01*
X101072700Y-106743400D02*
X100266600Y-105937300D01*
X101072700Y-113183800D02*
X101072700Y-106743400D01*
X102963200Y-115074300D02*
X101072700Y-113183800D01*
X178435000Y-126365000D02*
X178435000Y-145415000D01*
X178435000Y-107315000D02*
X178435000Y-126365000D01*
X178435000Y-164465000D02*
X178435000Y-145415000D01*
X94131700Y-103481300D02*
X93519400Y-102869000D01*
X94896500Y-103481300D02*
X94131700Y-103481300D01*
X76636600Y-91560400D02*
X76636600Y-106710600D01*
X75901600Y-90825400D02*
X76636600Y-91560400D01*
X75901600Y-90259700D02*
X75901600Y-90825400D01*
X64096900Y-78455000D02*
X75901600Y-90259700D01*
X64096900Y-62790500D02*
X64096900Y-78455000D01*
X62622400Y-61316000D02*
X64096900Y-62790500D01*
X62622400Y-59462000D02*
X62622400Y-61316000D01*
X62159100Y-58998700D02*
X62622400Y-59462000D01*
X159385000Y-164465000D02*
X159385000Y-145415000D01*
X159385000Y-145415000D02*
X159385000Y-126365000D01*
X159385000Y-126365000D02*
X159385000Y-107315000D01*
X63025100Y-56062200D02*
X62226100Y-55263200D01*
X63025100Y-61149200D02*
X63025100Y-56062200D01*
X64499600Y-62623700D02*
X63025100Y-61149200D01*
X64499600Y-78288100D02*
X64499600Y-62623700D01*
X76304300Y-90092800D02*
X64499600Y-78288100D01*
X76304300Y-90658600D02*
X76304300Y-90092800D01*
X77766500Y-92120800D02*
X76304300Y-90658600D01*
X77908100Y-92120800D02*
X77766500Y-92120800D01*
X78279400Y-92492100D02*
X77908100Y-92120800D01*
X78279400Y-107869700D02*
X78279400Y-92492100D01*
X75103500Y-111045600D02*
X78279400Y-107869700D01*
X75103500Y-123832700D02*
X75103500Y-111045600D01*
X70981500Y-127954700D02*
X75103500Y-123832700D01*
X70981500Y-155078500D02*
X70981500Y-127954700D01*
X61595000Y-164465000D02*
X70981500Y-155078500D01*
X86588101Y-50281101D02*
X77661499Y-50281101D01*
X88127400Y-51820400D02*
X86588101Y-50281101D01*
X77661499Y-50281101D02*
X77261500Y-50681100D01*
X118745000Y-164465000D02*
X99695000Y-145415000D01*
X99695000Y-129068700D02*
X99695000Y-145415000D01*
X99307700Y-128681400D02*
X99695000Y-129068700D01*
X99307700Y-126752300D02*
X99307700Y-128681400D01*
X99695000Y-126365000D02*
X99307700Y-126752300D01*
X94544800Y-44535800D02*
X94011500Y-44002500D01*
X94544800Y-51670800D02*
X94544800Y-44535800D01*
X93670300Y-52545300D02*
X94544800Y-51670800D01*
X93670300Y-57287700D02*
X93670300Y-52545300D01*
X94784000Y-58401400D02*
X93670300Y-57287700D01*
X94784000Y-62159200D02*
X94784000Y-58401400D01*
X93502000Y-63441200D02*
X94784000Y-62159200D01*
X93502000Y-67420500D02*
X93502000Y-63441200D01*
X94000600Y-67919100D02*
X93502000Y-67420500D01*
X94000600Y-69069900D02*
X94000600Y-67919100D01*
X93022500Y-70048000D02*
X94000600Y-69069900D01*
X93022500Y-76265500D02*
X93022500Y-70048000D01*
X94336400Y-77579400D02*
X93022500Y-76265500D01*
X94906000Y-77579400D02*
X94336400Y-77579400D01*
X95336900Y-77148500D02*
X94906000Y-77579400D01*
X95336900Y-75516000D02*
X95336900Y-77148500D01*
X94691300Y-74870400D02*
X95336900Y-75516000D01*
X94691300Y-73885900D02*
X94691300Y-74870400D01*
X95076600Y-73500600D02*
X94691300Y-73885900D01*
X95737000Y-73500600D02*
X95076600Y-73500600D01*
X96410500Y-74174100D02*
X95737000Y-73500600D01*
X96410500Y-74286000D02*
X96410500Y-74174100D01*
X97637000Y-75512500D02*
X96410500Y-74286000D01*
X99591300Y-75512500D02*
X97637000Y-75512500D01*
X100171500Y-74932300D02*
X99591300Y-75512500D01*
X91854400Y-44628500D02*
X90178000Y-44628500D01*
X92480400Y-44002500D02*
X91854400Y-44628500D01*
X102110900Y-80575200D02*
X102110900Y-74876600D01*
X101215500Y-81470600D02*
X102110900Y-80575200D01*
X101215500Y-103867200D02*
X101215500Y-81470600D01*
X101711000Y-104362700D02*
X101215500Y-103867200D01*
X65664200Y-51756900D02*
X65712800Y-51756900D01*
X63211700Y-54209400D02*
X65664200Y-51756900D01*
X99861800Y-107481800D02*
X99695000Y-107315000D01*
X99861800Y-126198200D02*
X99861800Y-107481800D01*
X99695000Y-126365000D02*
X99861800Y-126198200D01*
X80645000Y-164465000D02*
X80645000Y-145415000D01*
X80645000Y-145415000D02*
X80645000Y-126365000D01*
X68209900Y-96098500D02*
X68209900Y-106847100D01*
X69435500Y-94872900D02*
X68209900Y-96098500D01*
X69435500Y-88930100D02*
X69435500Y-94872900D01*
X63694200Y-83188800D02*
X69435500Y-88930100D01*
X63694200Y-62957400D02*
X63694200Y-83188800D01*
X61792100Y-61055300D02*
X63694200Y-62957400D01*
X61792100Y-60255900D02*
X61792100Y-61055300D01*
X80094300Y-167005000D02*
X74295000Y-167005000D01*
X93345000Y-153754300D02*
X80094300Y-167005000D01*
X93345000Y-147955000D02*
X93345000Y-153754300D01*
X58899400Y-71910000D02*
X62459500Y-71910000D01*
X58223200Y-72586200D02*
X58899400Y-71910000D01*
X58223200Y-77405500D02*
X58223200Y-72586200D01*
X59245000Y-78427300D02*
X58223200Y-77405500D01*
X59245000Y-89376000D02*
X59245000Y-78427300D01*
X60494700Y-90625700D02*
X59245000Y-89376000D01*
X60494700Y-96393300D02*
X60494700Y-90625700D01*
X59741300Y-97146700D02*
X60494700Y-96393300D01*
X59741300Y-99903200D02*
X59741300Y-97146700D01*
X59900300Y-100062200D02*
X59741300Y-99903200D01*
X59900300Y-101742500D02*
X59900300Y-100062200D01*
X59787100Y-101855700D02*
X59900300Y-101742500D01*
X59787100Y-108128900D02*
X59787100Y-101855700D01*
X62164900Y-110506700D02*
X59787100Y-108128900D01*
X62164900Y-113645500D02*
X62164900Y-110506700D01*
X58976800Y-116833600D02*
X62164900Y-113645500D01*
X58976800Y-138875300D02*
X58976800Y-116833600D01*
X55151400Y-142700700D02*
X58976800Y-138875300D01*
X53183000Y-142700700D02*
X55151400Y-142700700D01*
X52236600Y-143647100D02*
X53183000Y-142700700D01*
X52236600Y-165978900D02*
X52236600Y-143647100D01*
X54661700Y-168404000D02*
X52236600Y-165978900D01*
X55848400Y-168404000D02*
X54661700Y-168404000D01*
X57247400Y-167005000D02*
X55848400Y-168404000D01*
X74295000Y-167005000D02*
X57247400Y-167005000D01*
X89871000Y-95744100D02*
X89871000Y-89616200D01*
X95134700Y-101007800D02*
X89871000Y-95744100D01*
X95963100Y-101007800D02*
X95134700Y-101007800D01*
X103640900Y-124745200D02*
X103640900Y-108685600D01*
X103640900Y-108685600D02*
X95963100Y-101007800D01*
X99985400Y-128400700D02*
X103640900Y-124745200D01*
X82086600Y-62253800D02*
X80303600Y-62253800D01*
X89871000Y-89616200D02*
X90184700Y-89302500D01*
X80303600Y-62253800D02*
X75270400Y-57220600D01*
X73312700Y-57220600D02*
X72838900Y-56746800D01*
X90184700Y-89302500D02*
X90184700Y-70847200D01*
X90184700Y-70847200D02*
X83479000Y-64141500D01*
X83479000Y-64141500D02*
X83479000Y-63646200D01*
X83479000Y-63646200D02*
X82086600Y-62253800D01*
X75270400Y-57220600D02*
X73312700Y-57220600D01*
X72838900Y-56746800D02*
X70906700Y-56746800D01*
X70906600Y-52632200D02*
X70906600Y-54691400D01*
X70438600Y-52164200D02*
X70906600Y-52632200D01*
X78528800Y-88964200D02*
X78364900Y-89128100D01*
X78528800Y-85465000D02*
X78528800Y-88964200D01*
X77636400Y-84572600D02*
X78528800Y-85465000D01*
X58628300Y-60411800D02*
X59906800Y-61690300D01*
X58628300Y-59300600D02*
X58628300Y-60411800D01*
X85319300Y-102735900D02*
X92438400Y-109855000D01*
X85319300Y-90805000D02*
X85319300Y-102735900D01*
X93345000Y-109855000D02*
X92438400Y-109855000D01*
X74295000Y-127998400D02*
X74295000Y-128905000D01*
X92438400Y-109855000D02*
X74295000Y-127998400D01*
X112395000Y-147955000D02*
X112395000Y-128905000D01*
X112395000Y-109855000D02*
X112395000Y-128905000D01*
X69947900Y-152302100D02*
X55245000Y-167005000D01*
X69947900Y-126355000D02*
X69947900Y-152302100D01*
X74295000Y-122007900D02*
X69947900Y-126355000D01*
X74295000Y-109855000D02*
X74295000Y-122007900D01*
X58912300Y-77525000D02*
X58912300Y-72899900D01*
X60775200Y-79387900D02*
X58912300Y-77525000D01*
X60775200Y-85197300D02*
X60775200Y-79387900D01*
X57231500Y-109664300D02*
X57422200Y-109855000D01*
X57231500Y-92186700D02*
X57231500Y-109664300D01*
X56134500Y-91089700D02*
X57231500Y-92186700D01*
X56134500Y-87654800D02*
X56134500Y-91089700D01*
X81608800Y-57252500D02*
X82468700Y-58112400D01*
X81608800Y-55974000D02*
X81608800Y-57252500D01*
X73657800Y-54140900D02*
X73657800Y-50536100D01*
X77046500Y-68861000D02*
X77046500Y-75935000D01*
X76092800Y-76986900D02*
X76043700Y-76937800D01*
X76092800Y-87179900D02*
X76092800Y-76986900D01*
X80200200Y-66751000D02*
X79657900Y-66751000D01*
X77791600Y-68861000D02*
X77046500Y-68861000D01*
X78522300Y-68130300D02*
X77791600Y-68861000D01*
X78522300Y-67886600D02*
X78522300Y-68130300D01*
X79657900Y-66751000D02*
X78522300Y-67886600D01*
X70702700Y-59824100D02*
X69003400Y-58124800D01*
X70702700Y-63290100D02*
X70702700Y-59824100D01*
X73944800Y-66532200D02*
X70702700Y-63290100D01*
X74717700Y-66532200D02*
X73944800Y-66532200D01*
X77046500Y-68861000D02*
X74717700Y-66532200D01*
X79657900Y-63848400D02*
X79657900Y-66751000D01*
X77292200Y-61482700D02*
X79657900Y-63848400D01*
X45023800Y-94878100D02*
X45023800Y-103602800D01*
X46705500Y-93196400D02*
X45023800Y-94878100D01*
X46705500Y-92311200D02*
X46705500Y-93196400D01*
X45456700Y-91062400D02*
X46705500Y-92311200D01*
X45456700Y-89931000D02*
X45456700Y-91062400D01*
X77364600Y-89700200D02*
X78359700Y-90695300D01*
X77050900Y-89700200D02*
X77364600Y-89700200D01*
X66759500Y-79408800D02*
X77050900Y-89700200D01*
X66759500Y-75937600D02*
X66759500Y-79408800D01*
X66178100Y-75356200D02*
X66759500Y-75937600D01*
X66178100Y-73829500D02*
X66178100Y-75356200D01*
X65591900Y-73243300D02*
X66178100Y-73829500D01*
X65591900Y-60805400D02*
X65591900Y-73243300D01*
X65553800Y-60767300D02*
X65591900Y-60805400D01*
X65553800Y-58594600D02*
X65553800Y-60767300D01*
X65860700Y-58287700D02*
X65553800Y-58594600D01*
X65860700Y-57230100D02*
X65860700Y-58287700D01*
X67814900Y-55275900D02*
X65860700Y-57230100D01*
X76770500Y-87870900D02*
X76770500Y-88085600D01*
X76770500Y-82881900D02*
X76770500Y-87870900D01*
X79266200Y-80386200D02*
X76770500Y-82881900D01*
X66250700Y-73332400D02*
X66250700Y-60272700D01*
X66960800Y-74042500D02*
X66250700Y-73332400D01*
X66960800Y-75569300D02*
X66960800Y-74042500D01*
X67162200Y-75770700D02*
X66960800Y-75569300D01*
X67162200Y-79212500D02*
X67162200Y-75770700D01*
X75820600Y-87870900D02*
X67162200Y-79212500D01*
X76770500Y-87870900D02*
X75820600Y-87870900D01*
X26356900Y-83914100D02*
X21586000Y-79143200D01*
X26356900Y-94228200D02*
X26356900Y-83914100D01*
X25890400Y-94694700D02*
X26356900Y-94228200D01*
X16159700Y-94694700D02*
X25890400Y-94694700D01*
X10828600Y-89363600D02*
X16159700Y-94694700D01*
X58036900Y-100340700D02*
X58336200Y-100640000D01*
X58036900Y-78927900D02*
X58036900Y-100340700D01*
X57396100Y-78287100D02*
X58036900Y-78927900D01*
X57396100Y-68277700D02*
X57396100Y-78287100D01*
X49347100Y-72641800D02*
X49347100Y-59653700D01*
X46172800Y-56479400D02*
X46172800Y-51557177D01*
X46172800Y-51557177D02*
X44915598Y-50299975D01*
X49347100Y-59653700D02*
X46172800Y-56479400D01*
X44915598Y-49585846D02*
X45204033Y-49297411D01*
X47499500Y-74489400D02*
X49347100Y-72641800D01*
X53361411Y-49297411D02*
X53829001Y-49765001D01*
X45204033Y-49297411D02*
X53361411Y-49297411D01*
X44915598Y-50299975D02*
X44915598Y-49585846D01*
X53829001Y-49765001D02*
X54229000Y-50165000D01*
X11087900Y-74868900D02*
X11866000Y-74090800D01*
X9453300Y-74868900D02*
X11087900Y-74868900D01*
X54886000Y-52141300D02*
X52465200Y-49720500D01*
X54886000Y-52757100D02*
X54886000Y-52141300D01*
X52465200Y-49720500D02*
X46413006Y-49720500D01*
X46413006Y-49720500D02*
X46158685Y-49974821D01*
X46158685Y-49974821D02*
X45593000Y-49974821D01*
X12132500Y-69982800D02*
X12132500Y-69436800D01*
X15488700Y-73339000D02*
X12132500Y-69982800D01*
X15488700Y-81967500D02*
X15488700Y-73339000D01*
X4002599Y-72826360D02*
X4163027Y-72665932D01*
X4002599Y-75122599D02*
X4002599Y-72826360D01*
X5080000Y-76200000D02*
X4002599Y-75122599D01*
X12873900Y-72294500D02*
X12873900Y-72888500D01*
X10570600Y-69991200D02*
X12873900Y-72294500D01*
X9712900Y-69991200D02*
X10570600Y-69991200D01*
X8845000Y-70859100D02*
X9712900Y-69991200D01*
X8845000Y-72366600D02*
X8845000Y-70859100D01*
X19261600Y-60956800D02*
X19261600Y-60634400D01*
X23637200Y-65332400D02*
X19261600Y-60956800D01*
X23637200Y-67151700D02*
X23637200Y-65332400D01*
X24430500Y-67945000D02*
X23637200Y-67151700D01*
X25149300Y-67945000D02*
X24430500Y-67945000D01*
X26564700Y-69360400D02*
X25149300Y-67945000D01*
X26564700Y-70702700D02*
X26564700Y-69360400D01*
X51446200Y-56425700D02*
X48184400Y-56425700D01*
X51850700Y-56021200D02*
X51446200Y-56425700D01*
X53810700Y-56021200D02*
X51850700Y-56021200D01*
X54596200Y-55235700D02*
X53810700Y-56021200D01*
X54596200Y-53710100D02*
X54596200Y-55235700D01*
X17824200Y-57022800D02*
X19664300Y-58862900D01*
X17100600Y-57022800D02*
X17824200Y-57022800D01*
X48093900Y-57442000D02*
X50599200Y-57442000D01*
X46915600Y-56263700D02*
X48093900Y-57442000D01*
X48126300Y-55557300D02*
X48013700Y-55444700D01*
X50607200Y-55557300D02*
X48126300Y-55557300D01*
X44367200Y-73031800D02*
X44209400Y-73031800D01*
X44209400Y-73031800D02*
X42609000Y-71431400D01*
X42609000Y-71431400D02*
X42609000Y-66644300D01*
X42609000Y-66644300D02*
X39849900Y-63885200D01*
X39849900Y-63885200D02*
X39849900Y-63464100D01*
X39849900Y-63464100D02*
X37284200Y-60898400D01*
X37284200Y-60898400D02*
X37284200Y-52903200D01*
X37284200Y-52903200D02*
X37284100Y-52903200D01*
X37284100Y-52903200D02*
X36998400Y-52617500D01*
X48266700Y-67848600D02*
X47247300Y-68868000D01*
X47247300Y-68868000D02*
X46967100Y-68868000D01*
X46967100Y-68868000D02*
X46495500Y-69339600D01*
X46495500Y-69339600D02*
X46495500Y-73031800D01*
X56455900Y-80801500D02*
X56455900Y-76676300D01*
X54183500Y-83073900D02*
X56455900Y-80801500D01*
X101140300Y-38467000D02*
X101186800Y-38420500D01*
X101140300Y-49375400D02*
X101140300Y-38467000D01*
X101328800Y-59716900D02*
X100628400Y-60417300D01*
X101328800Y-49563900D02*
X101328800Y-59716900D01*
X101140300Y-49375400D02*
X101328800Y-49563900D01*
X101313400Y-79491700D02*
X101386500Y-79564800D01*
X101313400Y-61102300D02*
X101313400Y-79491700D01*
X100628400Y-60417300D02*
X101313400Y-61102300D01*
X75933300Y-61082500D02*
X75933300Y-60123700D01*
X77538800Y-62688000D02*
X75933300Y-61082500D01*
X77538800Y-68132100D02*
X77538800Y-62688000D01*
X64914200Y-58804300D02*
X64914200Y-62078400D01*
X64459300Y-58349400D02*
X64914200Y-58804300D01*
X64459300Y-57642000D02*
X64459300Y-58349400D01*
X67518800Y-54582500D02*
X64459300Y-57642000D01*
X68086300Y-54582500D02*
X67518800Y-54582500D01*
X68722800Y-55219000D02*
X68086300Y-54582500D01*
X68722800Y-55609700D02*
X68722800Y-55219000D01*
X70601100Y-57488000D02*
X68722800Y-55609700D01*
X72178400Y-57488000D02*
X70601100Y-57488000D01*
X72313700Y-57352700D02*
X72178400Y-57488000D01*
X72875200Y-57352700D02*
X72313700Y-57352700D01*
X73145800Y-57623300D02*
X72875200Y-57352700D01*
X75044100Y-57623300D02*
X73145800Y-57623300D01*
X80471000Y-63050200D02*
X75044100Y-57623300D01*
X80778300Y-63050200D02*
X80471000Y-63050200D01*
X73146400Y-60833300D02*
X74030400Y-60833300D01*
X69216200Y-56903100D02*
X73146400Y-60833300D01*
X67316500Y-56903100D02*
X69216200Y-56903100D01*
X66538500Y-57681100D02*
X67316500Y-56903100D01*
X66538500Y-58062900D02*
X66538500Y-57681100D01*
X66538400Y-58062900D02*
X66538500Y-58062900D01*
X26262000Y-112876000D02*
X26289000Y-112903000D01*
X26262000Y-112683000D02*
X26262000Y-112876000D01*
X26262000Y-112683000D02*
X26262000Y-111605300D01*
X16128800Y-71740500D02*
X16128800Y-69854600D01*
X17410000Y-73021700D02*
X16128800Y-71740500D01*
X17410000Y-73430300D02*
X17410000Y-73021700D01*
X27162300Y-83182600D02*
X17410000Y-73430300D01*
X27162300Y-110705000D02*
X27162300Y-83182600D01*
X26262000Y-111605300D02*
X27162300Y-110705000D01*
X34728400Y-50177200D02*
X34066100Y-50177200D01*
X49980700Y-34924900D02*
X34728400Y-50177200D01*
X73652600Y-34924900D02*
X49980700Y-34924900D01*
X74633200Y-35905500D02*
X73652600Y-34924900D01*
X74633200Y-37777900D02*
X74633200Y-35905500D01*
X75194400Y-38339100D02*
X74633200Y-37777900D01*
X78997000Y-38339100D02*
X75194400Y-38339100D01*
X80625400Y-39967500D02*
X78997000Y-38339100D01*
X72609200Y-43241000D02*
X73416400Y-42433800D01*
X70530400Y-43241000D02*
X72609200Y-43241000D01*
X95991800Y-85546000D02*
X95991800Y-90170000D01*
X95265700Y-84819900D02*
X95991800Y-85546000D01*
X95265700Y-79078200D02*
X95265700Y-84819900D01*
X92619800Y-76432300D02*
X95265700Y-79078200D01*
X92619800Y-55004500D02*
X92619800Y-76432300D01*
X92943000Y-54681300D02*
X92619800Y-55004500D01*
X92943000Y-44510600D02*
X92943000Y-54681300D01*
X93333800Y-44119800D02*
X92943000Y-44510600D01*
X93333800Y-43715600D02*
X93333800Y-44119800D01*
X97267100Y-39782300D02*
X93333800Y-43715600D01*
X97671300Y-39782300D02*
X97267100Y-39782300D01*
X95698800Y-57283700D02*
X95698800Y-57586800D01*
X94149400Y-55734300D02*
X95698800Y-57283700D01*
X94149400Y-53474900D02*
X94149400Y-55734300D01*
X98282200Y-49342100D02*
X94149400Y-53474900D01*
X98282200Y-40533200D02*
X98282200Y-49342100D01*
X100462600Y-38352800D02*
X98282200Y-40533200D01*
X100462600Y-38186300D02*
X100462600Y-38352800D01*
X101243500Y-37405400D02*
X100462600Y-38186300D01*
X101243500Y-14432800D02*
X101243500Y-37405400D01*
X92584700Y-27948400D02*
X92942700Y-28306400D01*
X92584700Y-14231800D02*
X92584700Y-27948400D01*
X95474800Y-11341700D02*
X92584700Y-14231800D01*
X95474800Y-4536300D02*
X95474800Y-11341700D01*
X89826300Y-33498900D02*
X94427400Y-38100000D01*
X89826300Y-19050000D02*
X89826300Y-33498900D01*
X41416200Y-151788000D02*
X29739410Y-140111210D01*
X29739410Y-140111210D02*
X29739410Y-114962710D01*
X29739410Y-114962710D02*
X28587100Y-113810400D01*
X25865300Y-113810400D02*
X28587100Y-113810400D01*
X10150900Y-98096000D02*
X25865300Y-113810400D01*
X10150900Y-86369100D02*
X10150900Y-98096000D01*
X10160000Y-86360000D02*
X10150900Y-86369100D01*
X29570300Y-112827200D02*
X29570300Y-104053400D01*
X28587100Y-113810400D02*
X29570300Y-112827200D01*
X75920000Y-101234700D02*
X75920000Y-92873500D01*
X69545200Y-107609500D02*
X75920000Y-101234700D01*
X69545200Y-142159600D02*
X69545200Y-107609500D01*
X61271800Y-150433000D02*
X69545200Y-142159600D01*
X50526600Y-99855900D02*
X51110200Y-99272300D01*
X50526600Y-133611500D02*
X50526600Y-99855900D01*
X50111900Y-134026200D02*
X50526600Y-133611500D01*
X50111900Y-141984900D02*
X50111900Y-134026200D01*
X46117200Y-145979600D02*
X50111900Y-141984900D01*
X60419100Y-101793300D02*
X60419100Y-98585200D01*
X60189800Y-102022600D02*
X60419100Y-101793300D01*
X60189800Y-107961800D02*
X60189800Y-102022600D01*
X62567600Y-110339600D02*
X60189800Y-107961800D01*
X62567600Y-113812400D02*
X62567600Y-110339600D01*
X59379500Y-117000500D02*
X62567600Y-113812400D01*
X59379500Y-142229400D02*
X59379500Y-117000500D01*
X60401800Y-143251700D02*
X59379500Y-142229400D01*
X69290300Y-97532600D02*
X70048300Y-96774600D01*
X69290300Y-107294800D02*
X69290300Y-97532600D01*
X69142500Y-107442600D02*
X69290300Y-107294800D01*
X69142500Y-139853500D02*
X69142500Y-107442600D01*
X60179400Y-148816600D02*
X69142500Y-139853500D01*
X60179400Y-152833000D02*
X60179400Y-148816600D01*
X42107300Y-103127600D02*
X42107300Y-96583500D01*
X42107300Y-118443100D02*
X42107300Y-103127600D01*
X41178800Y-119371600D02*
X42107300Y-118443100D01*
X41178800Y-130683100D02*
X41178800Y-119371600D01*
X42968800Y-132473100D02*
X41178800Y-130683100D01*
X42968800Y-147880000D02*
X42968800Y-132473100D01*
X42310800Y-148538000D02*
X42968800Y-147880000D01*
X73188800Y-100450000D02*
X70204800Y-103434000D01*
X73188800Y-92883000D02*
X73188800Y-100450000D01*
X12543700Y-80900600D02*
X25630900Y-93987800D01*
X12543700Y-73516600D02*
X12543700Y-80900600D01*
X10160000Y-71132900D02*
X12543700Y-73516600D01*
X10160000Y-71120000D02*
X10160000Y-71132900D01*
X51467400Y-150166600D02*
X49601000Y-152033000D01*
X51467400Y-104403800D02*
X51467400Y-150166600D01*
X53132600Y-102738600D02*
X51467400Y-104403800D01*
X53132600Y-97983300D02*
X53132600Y-102738600D01*
X71717000Y-93445700D02*
X71717000Y-92876100D01*
X68887600Y-96275100D02*
X71717000Y-93445700D01*
X68887600Y-107127900D02*
X68887600Y-96275100D01*
X68739800Y-107275700D02*
X68887600Y-107127900D01*
X68739800Y-138215800D02*
X68739800Y-107275700D01*
X55722600Y-151233000D02*
X68739800Y-138215800D01*
X25595900Y-93033100D02*
X25655200Y-93033100D01*
X14811000Y-82248200D02*
X25595900Y-93033100D01*
X14811000Y-73231000D02*
X14811000Y-82248200D01*
X10160000Y-68580000D02*
X14811000Y-73231000D01*
X67532200Y-93017800D02*
X67680000Y-92870000D01*
X67532200Y-107127800D02*
X67532200Y-93017800D01*
X67950300Y-107545900D02*
X67532200Y-107127800D01*
X67950300Y-134770600D02*
X67950300Y-107545900D01*
X60684700Y-142036200D02*
X67950300Y-134770600D01*
X12810200Y-68690200D02*
X10160000Y-66040000D01*
X12810200Y-69561100D02*
X12810200Y-68690200D01*
X16604600Y-73355500D02*
X12810200Y-69561100D01*
X16604600Y-78838500D02*
X16604600Y-73355500D01*
X25679200Y-87913100D02*
X16604600Y-78838500D01*
X18664000Y-73136400D02*
X18664000Y-73545200D01*
X11698664Y-63500000D02*
X17356000Y-69157336D01*
X17356000Y-69157336D02*
X17356000Y-71828400D01*
X39128801Y-93720501D02*
X39528800Y-94120500D01*
X18664000Y-73545200D02*
X38839301Y-93720501D01*
X17356000Y-71828400D02*
X18664000Y-73136400D01*
X38839301Y-93720501D02*
X39128801Y-93720501D01*
X10160000Y-63500000D02*
X11698664Y-63500000D01*
X66539500Y-91412800D02*
X67312600Y-90639700D01*
X66539500Y-107305500D02*
X66539500Y-91412800D01*
X66584900Y-107350900D02*
X66539500Y-107305500D01*
X66584900Y-135036200D02*
X66584900Y-107350900D01*
X60940100Y-140681000D02*
X66584900Y-135036200D01*
X18161400Y-68961400D02*
X10160000Y-60960000D01*
X18161400Y-72064200D02*
X18161400Y-68961400D01*
X23884900Y-77787700D02*
X18161400Y-72064200D01*
X23884900Y-77807600D02*
X23884900Y-77787700D01*
X65058300Y-90623700D02*
X65058300Y-95588600D01*
X65058300Y-95588600D02*
X64411100Y-95588600D01*
X65058300Y-110117100D02*
X65058300Y-95588600D01*
X65718900Y-110777700D02*
X65058300Y-110117100D01*
X65718900Y-133638300D02*
X65718900Y-110777700D01*
X60777900Y-138579300D02*
X65718900Y-133638300D01*
X60460000Y-138579300D02*
X60777900Y-138579300D01*
X40212500Y-101766800D02*
X40154500Y-101824800D01*
X40212500Y-92607100D02*
X40212500Y-101766800D01*
X29242900Y-81637500D02*
X40212500Y-92607100D01*
X29070800Y-81637500D02*
X29242900Y-81637500D01*
X28438000Y-81004700D02*
X29070800Y-81637500D01*
X28438000Y-80832600D02*
X28438000Y-81004700D01*
X18966800Y-71361400D02*
X28438000Y-80832600D01*
X18966800Y-67226800D02*
X18966800Y-71361400D01*
X10160000Y-58420000D02*
X18966800Y-67226800D01*
X55397200Y-105380900D02*
X55397200Y-101950800D01*
X52814000Y-107964100D02*
X55397200Y-105380900D01*
X52814000Y-113398200D02*
X52814000Y-107964100D01*
X53838700Y-114422900D02*
X52814000Y-113398200D01*
X53838700Y-138570500D02*
X53838700Y-114422900D01*
X55397200Y-95003200D02*
X55840900Y-94559500D01*
X55397200Y-101950800D02*
X55397200Y-95003200D01*
X52411300Y-137337500D02*
X52706800Y-137633000D01*
X52411300Y-106396300D02*
X52411300Y-137337500D01*
X54343300Y-104464300D02*
X52411300Y-106396300D01*
X54343300Y-95654900D02*
X54343300Y-104464300D01*
X19772200Y-70638300D02*
X27516500Y-78382600D01*
X19772200Y-65492200D02*
X19772200Y-70638300D01*
X11546200Y-57266200D02*
X19772200Y-65492200D01*
X11162500Y-57266200D02*
X11546200Y-57266200D01*
X10160000Y-56263700D02*
X11162500Y-57266200D01*
X10160000Y-55880000D02*
X10160000Y-56263700D01*
X54982900Y-95015300D02*
X54982900Y-93881800D01*
X54343300Y-95654900D02*
X54982900Y-95015300D01*
X23234500Y-69341500D02*
X24378000Y-70485000D01*
X43030600Y-88185000D02*
X43030600Y-118290900D01*
X24378000Y-70485000D02*
X25330600Y-70485000D01*
X10160000Y-53340000D02*
X23234500Y-66414500D01*
X43887100Y-135453915D02*
X43887100Y-136019600D01*
X25330600Y-70485000D02*
X43030600Y-88185000D01*
X43887100Y-132721200D02*
X43887100Y-135453915D01*
X41581500Y-130415600D02*
X43887100Y-132721200D01*
X23234500Y-66414500D02*
X23234500Y-69341500D01*
X41581500Y-119740000D02*
X41581500Y-130415600D01*
X43030600Y-118290900D02*
X41581500Y-119740000D01*
X59338600Y-94130000D02*
X59519800Y-93948800D01*
X59338600Y-100070100D02*
X59338600Y-94130000D01*
X59481000Y-100212500D02*
X59338600Y-100070100D01*
X59481000Y-101592200D02*
X59481000Y-100212500D01*
X59362600Y-101710600D02*
X59481000Y-101592200D01*
X59362600Y-108843400D02*
X59362600Y-101710600D01*
X61762200Y-111243000D02*
X59362600Y-108843400D01*
X61762200Y-113478600D02*
X61762200Y-111243000D01*
X57839400Y-117401400D02*
X61762200Y-113478600D01*
X57839400Y-135839100D02*
X57839400Y-117401400D01*
X57002800Y-136675700D02*
X57839400Y-135839100D01*
X46207800Y-85845244D02*
X41424756Y-81062200D01*
X38019500Y-75221100D02*
X30107200Y-67308800D01*
X10959999Y-51840599D02*
X10959999Y-51599999D01*
X19939300Y-60915400D02*
X19939300Y-60353600D01*
X10959999Y-51599999D02*
X10160000Y-50800000D01*
X29489700Y-65897200D02*
X28009200Y-65897200D01*
X27517000Y-65405000D02*
X24428900Y-65405000D01*
X19939300Y-60353600D02*
X18894500Y-59308800D01*
X46207800Y-91209500D02*
X46207800Y-85845244D01*
X39177600Y-81062200D02*
X38019500Y-79904100D01*
X30107200Y-66514700D02*
X29489700Y-65897200D01*
X24428900Y-65405000D02*
X19939300Y-60915400D01*
X38019500Y-79904100D02*
X38019500Y-75221100D01*
X46639900Y-93914800D02*
X47108200Y-93446500D01*
X47108200Y-92109900D02*
X46207800Y-91209500D01*
X18428200Y-59308800D02*
X10959999Y-51840599D01*
X28009200Y-65897200D02*
X27517000Y-65405000D01*
X30107200Y-67308800D02*
X30107200Y-66514700D01*
X41424756Y-81062200D02*
X39177600Y-81062200D01*
X18894500Y-59308800D02*
X18428200Y-59308800D01*
X47108200Y-93446500D02*
X47108200Y-92109900D01*
X46639900Y-102625500D02*
X46639900Y-93914800D01*
X65786900Y-108426900D02*
X65786900Y-101950800D01*
X66182200Y-108822200D02*
X65786900Y-108426900D01*
X66182200Y-133815600D02*
X66182200Y-108822200D01*
X60712800Y-139285000D02*
X66182200Y-133815600D01*
X60165400Y-139285000D02*
X60712800Y-139285000D01*
X59782200Y-138901800D02*
X60165400Y-139285000D01*
X59782200Y-136961300D02*
X59782200Y-138901800D01*
X60572700Y-136170800D02*
X59782200Y-136961300D01*
X65879100Y-101858600D02*
X65879100Y-89646300D01*
X65786900Y-101950800D02*
X65879100Y-101858600D01*
X46092700Y-72015200D02*
X45809800Y-72298100D01*
X40836900Y-47669500D02*
X43708365Y-50540965D01*
X53103100Y-81621200D02*
X53103100Y-82984500D01*
X57359100Y-88892515D02*
X57359100Y-89458200D01*
X43708365Y-50800027D02*
X44876100Y-51967762D01*
X44876100Y-51967762D02*
X44876100Y-60860400D01*
X46092700Y-62077000D02*
X46092700Y-72015200D01*
X44876100Y-60860400D02*
X46092700Y-62077000D01*
X57359100Y-87240500D02*
X57359100Y-88892515D01*
X45809800Y-74327900D02*
X53103100Y-81621200D01*
X45809800Y-72298100D02*
X45809800Y-74327900D01*
X43708365Y-50540965D02*
X43708365Y-50800027D01*
X53103100Y-82984500D02*
X57359100Y-87240500D01*
X62246300Y-104833900D02*
X62246300Y-93534400D01*
X62975300Y-105562900D02*
X62246300Y-104833900D01*
X62975300Y-133547700D02*
X62975300Y-105562900D01*
X61136200Y-135386800D02*
X62975300Y-133547700D01*
X51787900Y-94729000D02*
X51282000Y-94223100D01*
X51787900Y-99659800D02*
X51787900Y-94729000D01*
X51064700Y-100383000D02*
X51787900Y-99659800D01*
X51064700Y-134031800D02*
X51064700Y-100383000D01*
X50789600Y-134306900D02*
X51064700Y-134031800D01*
X49553500Y-92494600D02*
X51282000Y-94223100D01*
X49553500Y-90144600D02*
X49553500Y-92494600D01*
X49321500Y-89912600D02*
X49553500Y-90144600D01*
X49321500Y-80687500D02*
X49321500Y-89912600D01*
X40909900Y-72275900D02*
X49321500Y-80687500D01*
X40909900Y-71706500D02*
X40909900Y-72275900D01*
X34360200Y-65156800D02*
X40909900Y-71706500D01*
X34360200Y-60563000D02*
X34360200Y-65156800D01*
X31867400Y-58070200D02*
X34360200Y-60563000D01*
X27916800Y-58070200D02*
X31867400Y-58070200D01*
X25091600Y-55245000D02*
X27916800Y-58070200D01*
X22517000Y-55245000D02*
X25091600Y-55245000D01*
X12992000Y-45720000D02*
X22517000Y-55245000D01*
X63081678Y-90273658D02*
X62681679Y-89873659D01*
X63548100Y-90740080D02*
X63081678Y-90273658D01*
X63548100Y-101548100D02*
X63548100Y-90740080D01*
X6542200Y-50896600D02*
X5561000Y-51877800D01*
X6542200Y-45205000D02*
X6542200Y-50896600D01*
X8252300Y-44450000D02*
X7297200Y-44450000D01*
X10160000Y-43180000D02*
X9360001Y-43979999D01*
X8722301Y-43979999D02*
X8252300Y-44450000D01*
X4947200Y-51877800D02*
X3471822Y-53353178D01*
X3471822Y-53353178D02*
X3471822Y-86346376D01*
X7490523Y-89101934D02*
X7490523Y-90276001D01*
X3471822Y-86346376D02*
X4984714Y-87859268D01*
X4984714Y-87859268D02*
X6247857Y-87859268D01*
X5561000Y-51877800D02*
X4947200Y-51877800D01*
X7297200Y-44450000D02*
X6542200Y-45205000D01*
X6247857Y-87859268D02*
X7490523Y-89101934D01*
X9360001Y-43979999D02*
X8722301Y-43979999D01*
X7490523Y-90276001D02*
X7765522Y-90551000D01*
X63548100Y-109219100D02*
X63548100Y-101548100D01*
X65316200Y-110987200D02*
X63548100Y-109219100D01*
X65316200Y-133082500D02*
X65316200Y-110987200D01*
X61292800Y-137105900D02*
X65316200Y-133082500D01*
X57713300Y-137397700D02*
X58261200Y-136849800D01*
X56761700Y-137397700D02*
X57713300Y-137397700D01*
X56298000Y-136934000D02*
X56761700Y-137397700D01*
X56298000Y-128761200D02*
X56298000Y-136934000D01*
X57002700Y-128056500D02*
X56298000Y-128761200D01*
X57002700Y-117668500D02*
X57002700Y-128056500D01*
X61359500Y-113311700D02*
X57002700Y-117668500D01*
X61359500Y-111409900D02*
X61359500Y-113311700D01*
X57634200Y-107684600D02*
X61359500Y-111409900D01*
X57634200Y-91363600D02*
X57634200Y-107684600D01*
X56905200Y-90634600D02*
X57634200Y-91363600D01*
X19408100Y-40640000D02*
X10160000Y-40640000D01*
X30014800Y-51246700D02*
X19408100Y-40640000D01*
X30014800Y-52033200D02*
X30014800Y-51246700D01*
X30483900Y-52502300D02*
X30014800Y-52033200D01*
X31378300Y-52502300D02*
X30483900Y-52502300D01*
X35708300Y-56832300D02*
X31378300Y-52502300D01*
X35708300Y-62187000D02*
X35708300Y-56832300D01*
X36769600Y-63248300D02*
X35708300Y-62187000D01*
X37093400Y-63248300D02*
X36769600Y-63248300D01*
X38214300Y-64369200D02*
X37093400Y-63248300D01*
X38214300Y-64511600D02*
X38214300Y-64369200D01*
X42118000Y-68415300D02*
X38214300Y-64511600D01*
X42118000Y-71775200D02*
X42118000Y-68415300D01*
X50654100Y-80311300D02*
X42118000Y-71775200D01*
X50654100Y-81123700D02*
X50654100Y-80311300D01*
X56812200Y-87281800D02*
X50654100Y-81123700D01*
X56812200Y-89046700D02*
X56812200Y-87281800D01*
X56681400Y-89177500D02*
X56812200Y-89046700D01*
X56681400Y-90410800D02*
X56681400Y-89177500D01*
X56905200Y-90634600D02*
X56681400Y-90410800D01*
X55409100Y-137526400D02*
X57387900Y-139505200D01*
X55409100Y-127729100D02*
X55409100Y-137526400D01*
X55723000Y-127415200D02*
X55409100Y-127729100D01*
X55723000Y-112281300D02*
X55723000Y-127415200D01*
X53867300Y-110425600D02*
X55723000Y-112281300D01*
X53867300Y-109284400D02*
X53867300Y-110425600D01*
X56116000Y-107035700D02*
X53867300Y-109284400D01*
X56116000Y-100198500D02*
X56116000Y-107035700D01*
X55876000Y-99958500D02*
X56116000Y-100198500D01*
X55876000Y-95634300D02*
X55876000Y-99958500D01*
X56518700Y-94991600D02*
X55876000Y-95634300D01*
X56518700Y-93197700D02*
X56518700Y-94991600D01*
X56243600Y-92922600D02*
X56518700Y-93197700D01*
X54341300Y-91020300D02*
X56243600Y-92922600D01*
X51099300Y-91020300D02*
X54341300Y-91020300D01*
X50923600Y-91196000D02*
X51099300Y-91020300D01*
X50318900Y-91196000D02*
X50923600Y-91196000D01*
X49956200Y-90833300D02*
X50318900Y-91196000D01*
X49956200Y-89977700D02*
X49956200Y-90833300D01*
X49724200Y-89745700D02*
X49956200Y-89977700D01*
X49724200Y-80520600D02*
X49724200Y-89745700D01*
X41312600Y-72109000D02*
X49724200Y-80520600D01*
X41312600Y-71539500D02*
X41312600Y-72109000D01*
X39447100Y-69674000D02*
X41312600Y-71539500D01*
X39447100Y-67339900D02*
X39447100Y-69674000D01*
X39447100Y-63631000D02*
X39447100Y-64735000D01*
X36696500Y-60880400D02*
X39447100Y-63631000D01*
X36696500Y-54462000D02*
X36696500Y-60880400D01*
X20334500Y-38100000D02*
X36696500Y-54462000D01*
X10160000Y-38100000D02*
X20334500Y-38100000D01*
X29518400Y-79337300D02*
X29518400Y-80557100D01*
X21849000Y-71667900D02*
X29518400Y-79337300D01*
X21849000Y-66994300D02*
X21849000Y-71667900D01*
X11443200Y-56588500D02*
X21849000Y-66994300D01*
X56636100Y-95997400D02*
X56553700Y-95915000D01*
X56636100Y-110981800D02*
X56636100Y-95997400D01*
X56541100Y-111076800D02*
X56636100Y-110981800D01*
X56541100Y-127555500D02*
X56541100Y-111076800D01*
X56086800Y-128009800D02*
X56541100Y-127555500D01*
X28035300Y-81449800D02*
X39525200Y-92939700D01*
X28035300Y-80999500D02*
X28035300Y-81449800D01*
X18564100Y-71528300D02*
X28035300Y-80999500D01*
X18564100Y-67797300D02*
X18564100Y-71528300D01*
X10264600Y-59497800D02*
X18564100Y-67797300D01*
X7077900Y-59497800D02*
X10264600Y-59497800D01*
X6532000Y-58951900D02*
X7077900Y-59497800D01*
X6532000Y-54428000D02*
X6532000Y-58951900D01*
X7620000Y-53340000D02*
X6532000Y-54428000D01*
X44024400Y-128410900D02*
X42327300Y-130108000D01*
X44024400Y-94873700D02*
X44024400Y-128410900D01*
X45999200Y-92898900D02*
X44024400Y-94873700D01*
X41278500Y-90771300D02*
X41026800Y-90519600D01*
X41278500Y-104734200D02*
X41278500Y-90771300D01*
X40701400Y-105311300D02*
X41278500Y-104734200D01*
X40701400Y-131164400D02*
X40701400Y-105311300D01*
X40139300Y-90519600D02*
X41026800Y-90519600D01*
X30196100Y-80576400D02*
X40139300Y-90519600D01*
X30196100Y-79436300D02*
X30196100Y-80576400D01*
X22251700Y-71491900D02*
X30196100Y-79436300D01*
X22251700Y-66438400D02*
X22251700Y-71491900D01*
X10231000Y-54417700D02*
X22251700Y-66438400D01*
X9713700Y-54417700D02*
X10231000Y-54417700D01*
X8962000Y-53666000D02*
X9713700Y-54417700D01*
X8962000Y-52142000D02*
X8962000Y-53666000D01*
X7620000Y-50800000D02*
X8962000Y-52142000D01*
X49775600Y-94988000D02*
X50068400Y-94695200D01*
X49775600Y-131445100D02*
X49775600Y-94988000D01*
X47288200Y-79812600D02*
X47288200Y-90601100D01*
X32880600Y-65405000D02*
X47288200Y-79812600D01*
X28086800Y-65405000D02*
X32880600Y-65405000D01*
X25546800Y-62865000D02*
X28086800Y-65405000D01*
X24428800Y-62865000D02*
X25546800Y-62865000D01*
X23559500Y-61995700D02*
X24428800Y-62865000D01*
X23559500Y-60087800D02*
X23559500Y-61995700D01*
X10635000Y-47163300D02*
X23559500Y-60087800D01*
X8716700Y-47163300D02*
X10635000Y-47163300D01*
X7620000Y-48260000D02*
X8716700Y-47163300D01*
X49376000Y-135430000D02*
X49097900Y-135151900D01*
X49376000Y-141258000D02*
X49376000Y-135430000D01*
X49097900Y-135151900D02*
X46258000Y-132312000D01*
X49133800Y-94226300D02*
X49189800Y-94226300D01*
X49097900Y-94262200D02*
X49097900Y-135151900D01*
X49133800Y-94226300D02*
X49097900Y-94262200D01*
X49133800Y-90856100D02*
X49133800Y-94226300D01*
X48918800Y-90641100D02*
X49133800Y-90856100D01*
X48918800Y-80854400D02*
X48918800Y-90641100D01*
X40507200Y-72442800D02*
X48918800Y-80854400D01*
X40507200Y-71979900D02*
X40507200Y-72442800D01*
X31392300Y-62865000D02*
X40507200Y-71979900D01*
X28086700Y-62865000D02*
X31392300Y-62865000D01*
X25688900Y-60467200D02*
X28086700Y-62865000D01*
X24582400Y-60467200D02*
X25688900Y-60467200D01*
X19532000Y-55416800D02*
X24582400Y-60467200D01*
X19532000Y-53515700D02*
X19532000Y-55416800D01*
X10652600Y-44636300D02*
X19532000Y-53515700D01*
X8703700Y-44636300D02*
X10652600Y-44636300D01*
X7620000Y-45720000D02*
X8703700Y-44636300D01*
X48106000Y-135543000D02*
X48106000Y-141258000D01*
X45566000Y-133003000D02*
X48106000Y-135543000D01*
X48731100Y-91082400D02*
X48241000Y-90592300D01*
X48731100Y-93636900D02*
X48731100Y-91082400D01*
X48512000Y-93856000D02*
X48731100Y-93636900D01*
X48512000Y-128016500D02*
X48512000Y-93856000D01*
X45566000Y-130962500D02*
X48512000Y-128016500D01*
X45566000Y-133003000D02*
X45566000Y-130962500D01*
X8707000Y-42093000D02*
X7620000Y-43180000D01*
X17553300Y-42093000D02*
X8707000Y-42093000D01*
X27125000Y-51664700D02*
X17553300Y-42093000D01*
X27125000Y-51802800D02*
X27125000Y-51664700D01*
X27535000Y-52212800D02*
X27125000Y-51802800D01*
X28495300Y-52212800D02*
X27535000Y-52212800D01*
X30107300Y-53824800D02*
X28495300Y-52212800D01*
X30107300Y-54590000D02*
X30107300Y-53824800D01*
X30721900Y-55204600D02*
X30107300Y-54590000D01*
X31604200Y-55204600D02*
X30721900Y-55204600D01*
X35305600Y-58906000D02*
X31604200Y-55204600D01*
X35305600Y-62353900D02*
X35305600Y-58906000D01*
X36602700Y-63651000D02*
X35305600Y-62353900D01*
X36926500Y-63651000D02*
X36602700Y-63651000D01*
X37811600Y-64536100D02*
X36926500Y-63651000D01*
X37811600Y-64678500D02*
X37811600Y-64536100D01*
X41715300Y-68582200D02*
X37811600Y-64678500D01*
X41715300Y-71942100D02*
X41715300Y-68582200D01*
X50177700Y-80404500D02*
X41715300Y-71942100D01*
X50177700Y-89389100D02*
X50177700Y-80404500D01*
X50633900Y-89845300D02*
X50177700Y-89389100D01*
X50633900Y-90492500D02*
X50633900Y-89845300D01*
X8735000Y-39525000D02*
X8735000Y-37652500D01*
X8735000Y-37652500D02*
X8067700Y-36985200D01*
X7620000Y-40640000D02*
X8735000Y-39525000D01*
X2117956Y-44519315D02*
X2117956Y-45085000D01*
X2117956Y-39480359D02*
X2117956Y-44519315D01*
X4613115Y-36985200D02*
X2117956Y-39480359D01*
X8067700Y-36985200D02*
X4613115Y-36985200D01*
X46836000Y-135543000D02*
X45566000Y-134273000D01*
X46836000Y-141893000D02*
X46836000Y-135543000D01*
X48109300Y-93412000D02*
X48053400Y-93356100D01*
X48109300Y-127515600D02*
X48109300Y-93412000D01*
X44881400Y-130743500D02*
X48109300Y-127515600D01*
X44881400Y-133588400D02*
X44881400Y-130743500D01*
X45566000Y-134273000D02*
X44881400Y-133588400D01*
X30480700Y-121915200D02*
X30480700Y-105789800D01*
X41923500Y-133358000D02*
X30480700Y-121915200D01*
X42279800Y-133358000D02*
X41923500Y-133358000D01*
X4629000Y-42102200D02*
X3600188Y-43131012D01*
X3600188Y-46884718D02*
X1799411Y-48685494D01*
X1799411Y-48685494D02*
X1799411Y-86950344D01*
X6350000Y-40935800D02*
X5183600Y-42102200D01*
X4638068Y-89789000D02*
X4895315Y-89789000D01*
X4895315Y-89789000D02*
X5461000Y-89789000D01*
X7620000Y-38100000D02*
X6350000Y-39370000D01*
X1799411Y-86950344D02*
X4638068Y-89789000D01*
X3600188Y-43131012D02*
X3600188Y-46884718D01*
X5183600Y-42102200D02*
X4629000Y-42102200D01*
X6350000Y-39370000D02*
X6350000Y-40935800D01*
X45566000Y-142528000D02*
X46201000Y-143163000D01*
X45566000Y-135543000D02*
X45566000Y-142528000D01*
X47320700Y-127734600D02*
X47320700Y-101950800D01*
X44428400Y-130626900D02*
X47320700Y-127734600D01*
X44428400Y-134405400D02*
X44428400Y-130626900D01*
X45566000Y-135543000D02*
X44428400Y-134405400D01*
X47320700Y-94192600D02*
X47431500Y-94081800D01*
X47320700Y-101950800D02*
X47320700Y-94192600D01*
X26759600Y-83349500D02*
X26759600Y-109067100D01*
X17007300Y-73188600D02*
X17007300Y-73597200D01*
X17007300Y-73597200D02*
X26759600Y-83349500D01*
X12827000Y-66421000D02*
X15451100Y-69045100D01*
X15451100Y-71632400D02*
X17007300Y-73188600D01*
X15451100Y-69045100D02*
X15451100Y-71632400D01*
X26759600Y-109067100D02*
X24853100Y-110973600D01*
X55006400Y-139983600D02*
X55006400Y-125118000D01*
X86490900Y-98192000D02*
X86704200Y-98405300D01*
X86490900Y-83328200D02*
X86490900Y-98192000D01*
X87269100Y-82550000D02*
X86490900Y-83328200D01*
X87996000Y-82550000D02*
X87269100Y-82550000D01*
X88762200Y-81783800D02*
X87996000Y-82550000D01*
X88762200Y-76759300D02*
X88762200Y-81783800D01*
X81933600Y-69930700D02*
X88762200Y-76759300D01*
X17812700Y-72854700D02*
X16953300Y-71995300D01*
X36818200Y-106194700D02*
X36818200Y-92268900D01*
X36818200Y-92268900D02*
X17812700Y-73263400D01*
X16953300Y-69544746D02*
X12105220Y-64696666D01*
X12105220Y-64696666D02*
X11892776Y-64696666D01*
X11892776Y-64696666D02*
X11492777Y-64296667D01*
X16953300Y-71995300D02*
X16953300Y-69544746D01*
X17812700Y-73263400D02*
X17812700Y-72854700D01*
X4394963Y-72010163D02*
X4465267Y-72010163D01*
X3959877Y-71575077D02*
X4394963Y-72010163D01*
X3959877Y-59540123D02*
X3959877Y-71575077D01*
X4817515Y-72362411D02*
X5348211Y-72362411D01*
X28236402Y-129504598D02*
X27061999Y-130679001D01*
X6392402Y-87357308D02*
X8090676Y-89055582D01*
X4465267Y-72010163D02*
X4817515Y-72362411D01*
X27061999Y-130679001D02*
X26262000Y-131479000D01*
X8442924Y-101660924D02*
X28236402Y-121454402D01*
X8442924Y-90225846D02*
X8442924Y-101660924D01*
X5080000Y-58420000D02*
X3959877Y-59540123D01*
X6392402Y-73406602D02*
X6392402Y-87357308D01*
X28236402Y-121454402D02*
X28236402Y-129504598D01*
X8090676Y-89055582D02*
X8090676Y-89873598D01*
X8090676Y-89873598D02*
X8442924Y-90225846D01*
X5348211Y-72362411D02*
X6392402Y-73406602D01*
X68502500Y-35341000D02*
X66534800Y-37308700D01*
X73414800Y-35341000D02*
X68502500Y-35341000D01*
X74230500Y-36156700D02*
X73414800Y-35341000D01*
X74230500Y-37944800D02*
X74230500Y-36156700D01*
X75169700Y-38884000D02*
X74230500Y-37944800D01*
X78583500Y-38884000D02*
X75169700Y-38884000D01*
X80344700Y-40645200D02*
X78583500Y-38884000D01*
X80895500Y-40645200D02*
X80344700Y-40645200D01*
X91763800Y-51513500D02*
X80895500Y-40645200D01*
X91763800Y-56957800D02*
X91763800Y-51513500D01*
X90224000Y-58497600D02*
X91763800Y-56957800D01*
X90224000Y-61034500D02*
X90224000Y-58497600D01*
X89528300Y-61730200D02*
X90224000Y-61034500D01*
X89528300Y-62180000D02*
X89528300Y-61730200D01*
X89287500Y-62420800D02*
X89528300Y-62180000D01*
X87580400Y-62420800D02*
X89287500Y-62420800D01*
X87517100Y-62357500D02*
X87580400Y-62420800D01*
X7088112Y-101909212D02*
X15074801Y-109895901D01*
X15074801Y-109895901D02*
X15474800Y-110295900D01*
X4818030Y-88261679D02*
X6081173Y-88261679D01*
X7088112Y-89268618D02*
X7088112Y-101909212D01*
X5080000Y-50800000D02*
X3069411Y-52810589D01*
X3069411Y-52810589D02*
X3069411Y-86513060D01*
X3069411Y-86513060D02*
X4818030Y-88261679D01*
X6081173Y-88261679D02*
X7088112Y-89268618D01*
X36191100Y-46076200D02*
X36191100Y-47697700D01*
X48634400Y-33632900D02*
X36191100Y-46076200D01*
X59356200Y-33632900D02*
X48634400Y-33632900D01*
X60057000Y-32932100D02*
X59356200Y-33632900D01*
X77481200Y-32932100D02*
X60057000Y-32932100D01*
X90161800Y-45612700D02*
X77481200Y-32932100D01*
X90161800Y-49341800D02*
X90161800Y-45612700D01*
X92166500Y-51346500D02*
X90161800Y-49341800D01*
X92166500Y-57124700D02*
X92166500Y-51346500D01*
X90626800Y-58664400D02*
X92166500Y-57124700D01*
X90626800Y-61590100D02*
X90626800Y-58664400D01*
X90206000Y-62010900D02*
X90626800Y-61590100D01*
X5914489Y-88664090D02*
X6685701Y-89435302D01*
X6685701Y-89435302D02*
X6685701Y-109362701D01*
X2667000Y-86679744D02*
X4651346Y-88664090D01*
X5080000Y-48260000D02*
X5080000Y-48321094D01*
X4651346Y-88664090D02*
X5914489Y-88664090D01*
X5080000Y-48321094D02*
X2667000Y-50734094D01*
X2667000Y-50734094D02*
X2667000Y-86679744D01*
X25462001Y-128139001D02*
X26262000Y-128939000D01*
X6685701Y-109362701D02*
X25462001Y-128139001D01*
X72152700Y-38389200D02*
X73453000Y-39689500D01*
X78083901Y-48900199D02*
X76679299Y-50304801D01*
X73453000Y-39689500D02*
X76745700Y-39689500D01*
X55773985Y-38389200D02*
X72152700Y-38389200D01*
X76679299Y-50304801D02*
X76279300Y-50704800D01*
X76745700Y-39689500D02*
X78083901Y-41027701D01*
X78083901Y-41027701D02*
X78083901Y-48900199D01*
X55156500Y-38441000D02*
X55722185Y-38441000D01*
X55722185Y-38441000D02*
X55773985Y-38389200D01*
X11022000Y-136559000D02*
X12099401Y-135481599D01*
X2201822Y-48852178D02*
X4002599Y-47051401D01*
X12099401Y-135481599D02*
X12099401Y-130717401D01*
X12099401Y-130717401D02*
X11557000Y-130175000D01*
X11557000Y-130175000D02*
X10033000Y-130175000D01*
X10033000Y-130175000D02*
X6283290Y-126425290D01*
X6283290Y-126425290D02*
X6283290Y-89632494D01*
X4002599Y-47051401D02*
X4002599Y-44257401D01*
X6283290Y-89632494D02*
X5717297Y-89066501D01*
X5717297Y-89066501D02*
X4484662Y-89066501D01*
X4484662Y-89066501D02*
X2201822Y-86783660D01*
X2201822Y-86783660D02*
X2201822Y-48852178D01*
X4002599Y-44257401D02*
X4280001Y-43979999D01*
X4280001Y-43979999D02*
X5080000Y-43180000D01*
X75225900Y-51928000D02*
X74444300Y-51146400D01*
X75225900Y-52377200D02*
X75225900Y-51928000D01*
X2795366Y-46551352D02*
X994589Y-48352126D01*
X2795366Y-40384634D02*
X2795366Y-46551352D01*
X994589Y-48352126D02*
X994589Y-87672632D01*
X994589Y-87672632D02*
X1853980Y-88532023D01*
X5080000Y-38100000D02*
X2795366Y-40384634D01*
X1853980Y-88532023D02*
X2253979Y-88932022D01*
X84612000Y-98497600D02*
X84612000Y-85081300D01*
X79055600Y-104054000D02*
X84612000Y-98497600D01*
X79055600Y-85842200D02*
X79055600Y-103075300D01*
X84121700Y-80776100D02*
X79055600Y-85842200D01*
X40842400Y-103426600D02*
X40572100Y-103696900D01*
X40842400Y-92667400D02*
X40842400Y-103426600D01*
X29409800Y-81234800D02*
X40842400Y-92667400D01*
X29237700Y-81234800D02*
X29409800Y-81234800D01*
X28840700Y-80837800D02*
X29237700Y-81234800D01*
X28840700Y-80665700D02*
X28840700Y-80837800D01*
X19369500Y-71194500D02*
X28840700Y-80665700D01*
X19369500Y-66053900D02*
X19369500Y-71194500D01*
X12039300Y-58723700D02*
X19369500Y-66053900D01*
X79772600Y-87025700D02*
X79772600Y-101132800D01*
X85210000Y-81588300D02*
X79772600Y-87025700D01*
X84397000Y-79796900D02*
X84145500Y-79796900D01*
X85997000Y-81396900D02*
X84397000Y-79796900D01*
X85997000Y-98707300D02*
X85997000Y-81396900D01*
X95164600Y-107874900D02*
X85997000Y-98707300D01*
X95164600Y-110914300D02*
X95164600Y-107874900D01*
X85986400Y-120092500D02*
X95164600Y-110914300D01*
X84891600Y-120092500D02*
X85986400Y-120092500D01*
X77932700Y-127051400D02*
X84891600Y-120092500D01*
X77932700Y-127603600D02*
X77932700Y-127051400D01*
X74600000Y-130936300D02*
X77932700Y-127603600D01*
X74600000Y-145927000D02*
X74600000Y-130936300D01*
X92844100Y-97750500D02*
X95423600Y-100330000D01*
X92844100Y-86243600D02*
X92844100Y-97750500D01*
X93239500Y-85848200D02*
X92844100Y-86243600D01*
X94382300Y-57229000D02*
X94382300Y-56925600D01*
X95186700Y-58033400D02*
X94382300Y-57229000D01*
X95186700Y-62409400D02*
X95186700Y-58033400D01*
X93944300Y-63651800D02*
X95186700Y-62409400D01*
X93944300Y-67241800D02*
X93944300Y-63651800D01*
X95571300Y-68868800D02*
X93944300Y-67241800D01*
X93700200Y-70739900D02*
X93700200Y-75608700D01*
X95571300Y-68868800D02*
X93700200Y-70739900D01*
X98390500Y-3811500D02*
X100802000Y-6223000D01*
X95240700Y-3811500D02*
X98390500Y-3811500D01*
X90339000Y-8713200D02*
X95240700Y-3811500D01*
X90339000Y-18265700D02*
X90339000Y-8713200D01*
X90577800Y-18504500D02*
X90339000Y-18265700D01*
X90577800Y-25392800D02*
X90577800Y-18504500D01*
X89567600Y-74119200D02*
X89482700Y-74034300D01*
X89567600Y-88391400D02*
X89567600Y-74119200D01*
X89476400Y-88482600D02*
X89567600Y-88391400D01*
X93099200Y-68430800D02*
X93297500Y-68629100D01*
X93099200Y-60168100D02*
X93099200Y-68430800D01*
X94071400Y-59195900D02*
X93099200Y-60168100D01*
X125735000Y-12524900D02*
X127707500Y-14497400D01*
X116482200Y-12524900D02*
X125735000Y-12524900D01*
X113132100Y-15875000D02*
X116482200Y-12524900D01*
X112395000Y-15875000D02*
X113132100Y-15875000D01*
X147785100Y-17441900D02*
X147785100Y-18913400D01*
X149352000Y-15875000D02*
X147785100Y-17441900D01*
D29*
G36*
X62776100Y-64462200D02*
X62686927Y-64462200D01*
X62533586Y-64492702D01*
X62389142Y-64552533D01*
X62259146Y-64639393D01*
X62148593Y-64749946D01*
X62061733Y-64879942D01*
X62001902Y-65024386D01*
X61971400Y-65177727D01*
X61971400Y-65334073D01*
X62001902Y-65487414D01*
X62061733Y-65631858D01*
X62148593Y-65761854D01*
X62259146Y-65872407D01*
X62389142Y-65959267D01*
X62533586Y-66019098D01*
X62649100Y-66042076D01*
X62649100Y-71138465D01*
X62537673Y-71116300D01*
X62381327Y-71116300D01*
X62227986Y-71146802D01*
X62200710Y-71158100D01*
X58598200Y-71158100D01*
X58598200Y-67474963D01*
X58600708Y-67449499D01*
X58598200Y-67424035D01*
X58598200Y-67424026D01*
X58590694Y-67347817D01*
X58561034Y-67250042D01*
X58538613Y-67208096D01*
X58512869Y-67159931D01*
X58464288Y-67100736D01*
X58448050Y-67080950D01*
X58428264Y-67064712D01*
X58381900Y-67018348D01*
X58381900Y-62953900D01*
X62776100Y-62953900D01*
X62776100Y-64462200D01*
X62776100Y-64462200D01*
G37*
X62776100Y-64462200D02*
X62686927Y-64462200D01*
X62533586Y-64492702D01*
X62389142Y-64552533D01*
X62259146Y-64639393D01*
X62148593Y-64749946D01*
X62061733Y-64879942D01*
X62001902Y-65024386D01*
X61971400Y-65177727D01*
X61971400Y-65334073D01*
X62001902Y-65487414D01*
X62061733Y-65631858D01*
X62148593Y-65761854D01*
X62259146Y-65872407D01*
X62389142Y-65959267D01*
X62533586Y-66019098D01*
X62649100Y-66042076D01*
X62649100Y-71138465D01*
X62537673Y-71116300D01*
X62381327Y-71116300D01*
X62227986Y-71146802D01*
X62200710Y-71158100D01*
X58598200Y-71158100D01*
X58598200Y-67474963D01*
X58600708Y-67449499D01*
X58598200Y-67424035D01*
X58598200Y-67424026D01*
X58590694Y-67347817D01*
X58561034Y-67250042D01*
X58538613Y-67208096D01*
X58512869Y-67159931D01*
X58464288Y-67100736D01*
X58448050Y-67080950D01*
X58428264Y-67064712D01*
X58381900Y-67018348D01*
X58381900Y-62953900D01*
X62776100Y-62953900D01*
X62776100Y-64462200D01*
M02*
