M48
;DRILL file {KiCad 5.0.0-rc2-dev-unknown-c6ef0d5~62~ubuntu17.10.1} date Thu Mar 22 21:07:14 2018
;FORMAT={-:-/ absolute / inch / decimal}
FMAT,2
INCH,TZ
T1C0.0157
T2C0.0315
T3C0.0362
T4C0.0394
T5C0.0591
T6C0.0630
T7C0.0906
T8C0.0669
T9C0.1102
T10C0.1575
T11C0.1772
%
G90
G05
M72
T1
X0.0834Y-1.775
X0.0887Y-3.5013
X0.1639Y-2.8609
X0.215Y-3.535
X0.3057Y-3.565
X0.335Y-5.655
X0.3482Y-2.8491
X0.3722Y-2.9476
X0.4263Y-3.5183
X0.4505Y-2.2279
X0.4525Y-2.5314
X0.4672Y-2.917
X0.474Y-2.312
X0.4777Y-2.7337
X0.505Y-2.615
X0.5068Y-2.8696
X0.5115Y-1.8
X0.515Y-5.075
X0.535Y-5.605
X0.535Y-5.675
X0.6092Y-4.3424
X0.6098Y-3.2271
X0.635Y-2.7502
X0.6733Y-2.245
X0.7583Y-2.3872
X0.7742Y-2.3174
X0.7809Y-4.3957
X0.825Y-2.2
X0.825Y-2.675
X0.8498Y-3.1159
X0.8812Y-1.6195
X0.925Y-5.395
X0.9404Y-3.0633
X0.9785Y-4.369
X1.0091Y-3.7003
X1.01Y-3.6627
X1.011Y-3.4611
X1.035Y-4.445
X1.0459Y-2.7836
X1.0833Y-3.0859
X1.0956Y-2.025
X1.0956Y-2.125
X1.0956Y-2.225
X1.0956Y-2.325
X1.0956Y-2.425
X1.0956Y-2.525
X1.0956Y-2.625
X1.125Y-2.7773
X1.1621Y-3.1715
X1.1642Y-4.0966
X1.1921Y-2.7772
X1.2Y-4.165
X1.2535Y-2.025
X1.2537Y-2.125
X1.2537Y-2.325
X1.2537Y-2.625
X1.254Y-2.225
X1.2544Y-2.4029
X1.255Y-2.5352
X1.275Y-3.175
X1.275Y-3.215
X1.285Y-2.945
X1.285Y-2.985
X1.285Y-3.025
X1.325Y-2.945
X1.3412Y-1.9755
X1.365Y-2.005
X1.365Y-2.945
X1.395Y-3.285
X1.4248Y-1.8779
X1.425Y-3.105
X1.445Y-2.535
X1.4495Y-4.1809
X1.455Y-5.675
X1.4566Y-2.0716
X1.4587Y-2.4634
X1.4599Y-4.9862
X1.465Y-3.105
X1.4709Y-5.3363
X1.475Y-4.45
X1.485Y-2.045
X1.485Y-6.065
X1.495Y-2.245
X1.495Y-2.285
X1.5164Y-2.4005
X1.5217Y-2.3516
X1.525Y-3.035
X1.525Y-3.075
X1.525Y-4.735
X1.525Y-4.785
X1.545Y-2.425
X1.553Y-2.5486
X1.553Y-2.6512
X1.555Y-2.995
X1.555Y-4.995
X1.555Y-6.065
X1.5561Y-3.659
X1.5563Y-3.7055
X1.565Y-2.045
X1.5809Y-4.0089
X1.595Y-2.725
X1.595Y-2.995
X1.595Y-5.325
X1.595Y-5.675
X1.5973Y-4.0826
X1.6024Y-5.164
X1.6078Y-1.8768
X1.6152Y-3.5638
X1.6205Y-2.529
X1.6306Y-5.9759
X1.635Y-2.995
X1.645Y-2.495
X1.6578Y-3.8025
X1.6578Y-4.0601
X1.6646Y-5.2503
X1.665Y-4.725
X1.665Y-5.075
X1.665Y-5.425
X1.665Y-5.775
X1.6658Y-5.848
X1.6664Y-5.1224
X1.675Y-2.995
X1.675Y-3.035
X1.675Y-3.075
X1.675Y-3.125
X1.6762Y-2.0559
X1.685Y-1.995
X1.705Y-4.985
X1.7077Y-2.8032
X1.7207Y-1.5564
X1.725Y-3.505
X1.725Y-3.655
X1.7278Y-5.3551
X1.7325Y-3.34
X1.735Y-2.765
X1.745Y-5.675
X1.745Y-6.025
X1.7467Y-2.8753
X1.7524Y-2.6637
X1.755Y-2.525
X1.755Y-2.565
X1.765Y-1.875
X1.765Y-3.475
X1.7726Y-4.0789
X1.7896Y-3.5406
X1.7939Y-5.2363
X1.7939Y-5.2863
X1.7939Y-5.3363
X1.795Y-1.9675
X1.805Y-1.775
X1.805Y-1.815
X1.805Y-1.855
X1.811Y-3.6574
X1.8156Y-5.7472
X1.8189Y-5.6363
X1.8212Y-5.2091
X1.8305Y-2.8753
X1.8362Y-4.0404
X1.8439Y-5.5863
X1.8445Y-2.0025
X1.845Y-1.765
X1.845Y-2.045
X1.845Y-2.095
X1.845Y-2.145
X1.8471Y-2.2151
X1.8471Y-2.6793
X1.8617Y-3.567
X1.863Y-4.0138
X1.8674Y-3.704
X1.8701Y-2.9327
X1.885Y-1.765
X1.8903Y-2.1829
X1.8919Y-3.6754
X1.8926Y-2.0024
X1.8939Y-5.5613
X1.895Y-2.145
X1.895Y-2.775
X1.8954Y-2.5373
X1.897Y-2.2215
X1.8993Y-3.5666
X1.9003Y-2.6712
X1.9325Y-1.8933
X1.9366Y-3.7097
X1.9426Y-2.0024
X1.9439Y-5.5613
X1.945Y-2.145
X1.9528Y-5.9856
X1.955Y-5.675
X1.955Y-5.885
X1.9597Y-5.175
X1.965Y-5.925
X1.9675Y-1.8933
X1.9712Y-3.7282
X1.9921Y-2.2615
X1.9924Y-2.1873
X1.9935Y-3.5627
X1.995Y-2.0024
X1.995Y-2.145
X1.9996Y-5.2877
X2.005Y-3.4325
X2.005Y-3.655
X2.0064Y-2.9748
X2.0122Y-3.9084
X2.015Y-2.425
X2.0173Y-2.3866
X2.019Y-3.7096
X2.0191Y-2.865
X2.0194Y-2.5336
X2.0194Y-2.7849
X2.0196Y-2.6363
X2.045Y-2.0024
X2.045Y-2.045
X2.045Y-2.095
X2.045Y-2.145
X2.0478Y-3.4249
X2.075Y-2.2985
X2.075Y-2.375
X2.075Y-2.925
X2.075Y-3.0015
X2.075Y-3.505
X2.075Y-3.655
X2.0751Y-5.4186
X2.085Y-5.665
X2.0918Y-3.8576
X2.095Y-2.8285
X2.095Y-2.025
X2.095Y-2.865
X2.105Y-1.725
X2.105Y-1.765
X2.105Y-1.805
X2.105Y-2.565
X2.105Y-2.625
X2.1104Y-1.8313
X2.115Y-2.7325
X2.115Y-2.455
X2.115Y-3.475
X2.115Y-3.655
X2.1183Y-1.5591
X2.1196Y-5.4555
X2.1332Y-3.2706
X2.1342Y-1.9162
X2.135Y-1.975
X2.1395Y-3.7659
X2.1442Y-1.8438
X2.145Y-1.725
X2.145Y-1.765
X2.145Y-1.805
X2.1495Y-2.1146
X2.155Y-1.885
X2.1585Y-1.6472
X2.1609Y-2.0771
X2.1647Y-3.6961
X2.165Y-2.015
X2.165Y-2.285
X2.1656Y-4.9259
X2.1656Y-5.5112
X2.171Y-0.787
X2.1715Y-1.5134
X2.172Y-0.75
X2.175Y-5.735
X2.181Y-4.0138
X2.185Y-3.015
X2.1858Y-2.4275
X2.1938Y-5.9541
X2.1985Y-3.7228
X2.2081Y-5.0398
X2.209Y-2.7278
X2.21Y-3.451
X2.2143Y-3.6584
X2.219Y-0.749
X2.219Y-0.787
X2.2215Y-1.6698
X2.2227Y-3.0188
X2.2237Y-2.4292
X2.2265Y-3.7762
X2.232Y-0.519
X2.232Y-0.563
X2.2404Y-3.5683
X2.2442Y-5.3809
X2.247Y-0.357
X2.2582Y-3.522
X2.2594Y-5.4923
X2.2597Y-2.6881
X2.26Y-0.788
X2.2607Y-4.325
X2.261Y-0.75
X2.27Y-0.474
X2.27Y-0.518
X2.27Y-0.563
X2.2751Y-1.675
X2.2937Y-5.3878
X2.295Y-1.765
X2.295Y-2.285
X2.2967Y-3.9622
X2.3Y-0.615
X2.305Y-0.355
X2.3082Y-2.3347
X2.3101Y-4.1965
X2.315Y-0.84
X2.3194Y-2.8701
X2.325Y-1.225
X2.325Y-1.275
X2.325Y-1.425
X2.33Y-0.615
X2.335Y-2.505
X2.335Y-2.775
X2.3433Y-3.6988
X2.345Y-0.355
X2.345Y-2.375
X2.3455Y-2.1628
X2.355Y-0.275
X2.355Y-2.925
X2.355Y-3.655
X2.3585Y-2.4288
X2.36Y-0.885
X2.36Y-0.915
X2.365Y-0.315
X2.365Y-3.435
X2.3667Y-1.9463
X2.3693Y-6.017
X2.3734Y-2.2988
X2.3766Y-3.0012
X2.378Y-5.6398
X2.3787Y-3.8813
X2.38Y-0.665
X2.3803Y-5.4559
X2.3848Y-5.3611
X2.385Y-0.505
X2.385Y-0.545
X2.385Y-0.585
X2.385Y-0.995
X2.385Y-2.505
X2.385Y-2.775
X2.3892Y-5.592
X2.39Y-0.885
X2.39Y-0.915
X2.3927Y-3.3542
X2.395Y-2.085
X2.395Y-2.375
X2.3992Y-5.5386
X2.405Y-2.925
X2.405Y-5.705
X2.4069Y-5.3302
X2.4123Y-5.9226
X2.4131Y-5.3979
X2.415Y-0.615
X2.415Y-1.635
X2.422Y-0.087
X2.422Y-0.122
X2.425Y-0.3
X2.425Y-3.505
X2.425Y-3.655
X2.4328Y-2.3723
X2.435Y-2.505
X2.435Y-2.775
X2.44Y-3.3425
X2.445Y-2.285
X2.4472Y-2.3228
X2.4498Y-2.1757
X2.4506Y-3.6825
X2.455Y-0.615
X2.455Y-1.745
X2.459Y-2.8311
X2.462Y-0.087
X2.462Y-0.122
X2.4678Y-3.5383
X2.47Y-3.455
X2.4711Y-2.5691
X2.475Y-0.66
X2.4886Y-2.1342
X2.49Y-0.555
X2.5019Y-3.998
X2.502Y-0.087
X2.502Y-0.122
X2.5083Y-1.6925
X2.5219Y-2.4081
X2.525Y-5.665
X2.5308Y-1.5542
X2.535Y-0.485
X2.535Y-0.515
X2.535Y-1.665
X2.5359Y-3.7633
X2.542Y-0.087
X2.542Y-0.122
X2.5557Y-2.444
X2.5614Y-3.5679
X2.565Y-0.485
X2.565Y-0.515
X2.565Y-1.575
X2.565Y-2.285
X2.5669Y-2.9058
X2.582Y-0.087
X2.582Y-0.122
X2.585Y-3.015
X2.5871Y-2.0377
X2.59Y-4.0138
X2.5937Y-3.5294
X2.6083Y-2.3729
X2.6195Y-1.4688
X2.6196Y-2.2859
X2.622Y-0.087
X2.622Y-0.122
X2.625Y-2.335
X2.635Y-2.695
X2.6458Y-0.4822
X2.6485Y-4.5548
X2.6501Y-3.5685
X2.655Y-2.425
X2.655Y-2.725
X2.655Y-2.875
X2.662Y-0.087
X2.662Y-0.122
X2.6646Y-3.6563
X2.665Y-2.925
X2.6699Y-2.1762
X2.6726Y-2.4533
X2.675Y-2.2985
X2.675Y-3.0015
X2.679Y-2.5964
X2.6854Y-4.2066
X2.687Y-2.8243
X2.702Y-0.087
X2.702Y-0.122
X2.705Y-3.655
X2.715Y-3.435
X2.7159Y-1.7228
X2.7167Y-2.2884
X2.7259Y-2.7748
X2.7265Y-2.435
X2.7265Y-2.505
X2.7265Y-2.875
X2.73Y-2.6801
X2.735Y-2.345
X2.742Y-0.087
X2.742Y-0.122
X2.755Y-0.67
X2.755Y-0.71
X2.755Y-0.75
X2.755Y-0.79
X2.755Y-0.83
X2.755Y-0.87
X2.755Y-0.91
X2.755Y-0.95
X2.755Y-0.99
X2.7575Y-3.4225
X2.7578Y-3.81
X2.764Y-4.0722
X2.7642Y-2.1798
X2.7732Y-2.0537
X2.775Y-0.3
X2.775Y-3.505
X2.775Y-3.655
X2.7768Y-1.7024
X2.782Y-0.087
X2.782Y-0.122
X2.7862Y-1.5999
X2.7896Y-1.6389
X2.7916Y-2.1532
X2.7916Y-2.2341
X2.805Y-0.63
X2.805Y-0.67
X2.805Y-0.71
X2.805Y-0.75
X2.805Y-0.79
X2.805Y-0.83
X2.805Y-0.87
X2.805Y-0.91
X2.805Y-0.95
X2.805Y-0.99
X2.8115Y-1.425
X2.815Y-1.555
X2.815Y-3.475
X2.8235Y-3.6565
X2.825Y-1.325
X2.8294Y-2.1397
X2.855Y-2.525
X2.858Y-2.2847
X2.865Y-2.755
X2.8814Y-3.6568
X2.885Y-1.175
X2.885Y-1.425
X2.8904Y-1.6706
X2.8916Y-2.175
X2.895Y-2.2237
X2.8999Y-1.9896
X2.8999Y-2.1315
X2.9146Y-2.395
X2.93Y-2.108
X2.9309Y-2.0136
X2.937Y-5.7452
X2.9501Y-2.5237
X2.9538Y-2.7487
X2.9616Y-2.0621
X2.965Y-1.425
X2.965Y-1.475
X2.985Y-1.605
X2.985Y-2.165
X2.989Y-3.6564
X2.9895Y-2.3671
X2.9938Y-3.029
X2.9958Y-3.4323
X3.0031Y-1.9963
X3.0045Y-1.7663
X3.015Y-2.655
X3.0172Y-4.2012
X3.0225Y-3.4679
X3.025Y-1.605
X3.0259Y-5.0127
X3.0308Y-3.5582
X3.0333Y-2.9896
X3.0418Y-1.9953
X3.043Y-2.4206
X3.045Y-1.74
X3.0527Y-2.6824
X3.055Y-3.655
X3.0566Y-3.3296
X3.065Y-3.435
X3.075Y-2.325
X3.085Y-3.065
X3.085Y-3.5707
X3.0852Y-3.509
X3.105Y-1.415
X3.1124Y-4.0581
X3.1124Y-4.0966
X3.1207Y-3.1648
X3.135Y-1.455
X3.1407Y-3.9816
X3.145Y-2.025
X3.1506Y-2.6735
X3.155Y-2.405
X3.155Y-2.765
X3.1575Y-2.628
X3.1742Y-1.5735
X3.1802Y-2.4823
X3.205Y-1.525
X3.205Y-2.165
X3.2129Y-2.2037
X3.225Y-2.325
X3.225Y-2.365
X3.225Y-2.675
X3.225Y-2.715
X3.225Y-3.035
X3.225Y-3.075
X3.2257Y-2.7532
X3.2468Y-2.2879
X3.26Y-2.1425
X3.285Y-2.295
X3.2931Y-2.1666
X3.295Y-2.065
X3.295Y-2.425
X3.3025Y-2.38
X3.3119Y-3.1802
X3.3128Y-3.1416
X3.325Y-2.0225
X3.3312Y-3.3497
X3.3547Y-3.2121
X3.359Y-3.575
X3.375Y-2.695
X3.375Y-3.055
X3.385Y-0.835
X3.385Y-2.775
X3.385Y-3.005
X3.3943Y-2.5351
X3.395Y-2.455
X3.405Y-1.325
X3.4136Y-3.8742
X3.415Y-2.025
X3.4456Y-2.455
X3.4494Y-2.3528
X3.4696Y-2.0402
X3.475Y-0.835
X3.485Y-0.75
X3.495Y-2.295
X3.4984Y-1.8744
X3.4984Y-1.9521
X3.515Y-2.865
X3.52Y-2.175
X3.5227Y-3.4836
X3.5229Y-2.9147
X3.5365Y-0.75
X3.5503Y-1.757
X3.5514Y-2.4414
X3.555Y-1.675
X3.5592Y-2.5267
X3.565Y-1.145
X3.565Y-2.755
X3.5661Y-0.9997
X3.5667Y-3.5615
X3.575Y-3.625
X3.585Y-0.665
X3.585Y-3.165
X3.605Y-2.355
X3.625Y-1.905
X3.6254Y-3.6029
X3.641Y-1.7324
X3.6569Y-4.1951
X3.6592Y-1.1144
X3.6707Y-3.9989
X3.6708Y-3.3799
X3.6731Y-2.7019
X3.675Y-0.655
X3.675Y-1.055
X3.675Y-1.505
X3.675Y-2.305
X3.6819Y-4.05
X3.6822Y-3.4265
X3.685Y-3.155
X3.689Y-2.9767
X3.695Y-1.195
X3.695Y-1.995
X3.695Y-2.445
X3.7012Y-1.7324
X3.7017Y-3.5921
X3.7036Y-2.3305
X3.708Y-0.9
X3.7158Y-2.2412
X3.7176Y-1.5
X3.7258Y-3.0272
X3.7261Y-2.5479
X3.7279Y-1.25
X3.7287Y-1.364
X3.7334Y-2.15
X3.7361Y-4.0741
X3.7397Y-2.5026
X3.74Y-3.4188
X3.7466Y-3.775
X3.7498Y-3.8424
X3.7552Y-2.9211
X3.7568Y-3.95
X3.7589Y-0.1786
X3.7626Y-2.7114
X3.7674Y-2.6
X3.7677Y-2.2672
X3.7733Y-3.7413
X3.775Y-1.155
X3.775Y-1.955
X3.775Y-2.405
X3.779Y-3.3
X3.7792Y-3.55
X3.7794Y-2.5096
X3.7795Y-3.641
X3.7795Y-0.8534
X3.78Y-2.071
X3.7836Y-1.2751
X3.825Y-0.665
X3.8446Y-3.1594
X3.8453Y-1.5662
X3.855Y-2.945
X3.8586Y-4.2543
X3.875Y-0.545
X3.885Y-3.195
X3.905Y-1.725
X3.905Y-1.885
X3.905Y-3.025
X3.9364Y-5.0551
X3.9375Y-2.9026
X3.9438Y-2.9501
X3.945Y-1.625
X3.945Y-2.865
X3.9567Y-3.9214
X3.957Y-1.4221
X3.9571Y-3.3
X3.958Y-2.175
X3.9587Y-0.9214
X3.9609Y-2.05
X3.9617Y-2.3786
X3.962Y-2.6714
X3.9686Y-0.245
X3.9819Y-1.9439
X3.9837Y-1.5126
X3.986Y-0.5682
X3.9916Y-3.1325
X4.0044Y-4.1088
X4.0201Y-2.9479
X4.0537Y-4.5305
X4.095Y-0.195
X4.095Y-0.475
X4.095Y-0.545
X4.0962Y-5.6703
X4.125Y-3.065
X4.4419Y-1.725
X4.442Y-0.445
X4.4792Y-5.0153
X4.505Y-1.7225
X4.5075Y-0.485
X4.5636Y-0.42
X4.6264Y-0.3991
X4.655Y-0.3723
X4.7987Y-3.0176
X4.864Y-3.0613
X4.9135Y-1.6909
X4.995Y-2.955
X5.0025Y-1.7125
X5.0279Y-0.5708
X5.0425Y-2.83
X5.225Y-1.075
X5.246Y-0.476
X5.495Y-2.955
X5.515Y-2.81
X5.5264Y-2.6137
X5.6969Y-1.8001
X5.715Y-1.665
X5.7821Y-3.225
X5.8183Y-0.7446
X5.865Y-0.49
X5.8901Y-3.1721
X6.0778Y-1.7678
X6.0788Y-1.6874
X6.085Y-1.725
X6.0933Y-2.7807
X6.1309Y-1.3387
X6.215Y-2.885
X6.28Y-0.4853
X6.3469Y-3.1566
X6.4175Y-0.4025
X6.4775Y-0.325
X6.715Y-2.895
X6.9556Y-1.637
X6.985Y-2.945
X6.9864Y-2.8442
X7.0075Y-1.71
X7.143Y-0.4242
X7.205Y-0.4704
X7.3444Y-0.0817
X7.418Y-0.257
X7.4898Y-1.5567
X7.51Y-1.7
X7.5393Y-0.3595
X7.688Y-0.3889
X7.705Y-0.462
X7.9055Y-2.9756
X7.985Y-2.955
X8.0487Y-1.6081
X8.215Y-1.625
X8.595Y-1.695
X8.6256Y-1.5235
X8.7045Y-3.0261
X8.715Y-2.895
T2
X7.925Y-3.125
X7.925Y-3.725
X8.025Y-3.125
X8.025Y-3.725
X8.125Y-3.125
X8.125Y-3.725
X8.225Y-3.125
X8.225Y-3.725
X8.325Y-3.125
X8.325Y-3.725
X8.425Y-3.125
X8.425Y-3.725
X8.525Y-3.125
X8.525Y-3.725
X8.625Y-3.125
X8.625Y-3.725
X8.725Y-3.125
X8.725Y-3.725
X2.0016Y-0.175
X2.1Y-0.175
X5.78Y-0.625
X5.78Y-1.225
X5.88Y-0.625
X5.88Y-1.225
X5.98Y-0.625
X5.98Y-1.225
X6.08Y-0.625
X6.08Y-1.225
X6.18Y-0.625
X6.18Y-1.225
X6.28Y-0.625
X6.28Y-1.225
X6.38Y-0.625
X6.38Y-1.225
X6.48Y-0.625
X6.48Y-1.225
X6.58Y-0.625
X6.58Y-1.225
X4.425Y-3.125
X4.425Y-3.725
X4.525Y-3.125
X4.525Y-3.725
X4.625Y-3.125
X4.625Y-3.725
X4.725Y-3.125
X4.725Y-3.725
X4.825Y-3.125
X4.825Y-3.725
X4.925Y-3.125
X4.925Y-3.725
X5.025Y-3.125
X5.025Y-3.725
X5.125Y-3.125
X5.125Y-3.725
X5.225Y-3.125
X5.225Y-3.725
X0.4339Y-4.8763
X0.4339Y-4.9763
X0.4339Y-5.0763
X0.4339Y-5.1763
X0.4339Y-5.2763
X0.4339Y-5.3763
X0.4339Y-5.4763
X0.4339Y-5.5763
X0.4339Y-5.6763
X0.4339Y-5.7763
X0.4339Y-5.8763
X0.4339Y-5.9763
X0.4339Y-6.0763
X0.4339Y-6.1763
X0.4339Y-6.2763
X0.4339Y-6.3763
X0.4339Y-6.4763
X0.4339Y-6.5763
X0.4339Y-6.6763
X0.4339Y-6.7763
X1.0339Y-4.8763
X1.0339Y-4.9763
X1.0339Y-5.0763
X1.0339Y-5.1763
X1.0339Y-5.2763
X1.0339Y-5.3763
X1.0339Y-5.4763
X1.0339Y-5.5763
X1.0339Y-5.6763
X1.0339Y-5.7763
X1.0339Y-5.8763
X1.0339Y-5.9763
X1.0339Y-6.0763
X1.0339Y-6.1763
X1.0339Y-6.2763
X1.0339Y-6.3763
X1.0339Y-6.4763
X1.0339Y-6.5763
X1.0339Y-6.6763
X1.0339Y-6.7763
X0.2Y-0.3
X0.2Y-0.4
X0.2Y-0.5
X0.2Y-0.6
X0.2Y-0.7
X0.2Y-0.8
X0.2Y-0.9
X0.2Y-1.
X0.2Y-1.1
X0.2Y-1.2
X0.2Y-1.3
X0.2Y-1.4
X0.2Y-1.5
X0.2Y-1.6
X0.2Y-1.7
X0.2Y-1.8
X0.2Y-1.9
X0.2Y-2.
X0.2Y-2.1
X0.2Y-2.2
X0.2Y-2.3
X0.2Y-2.4
X0.2Y-2.5
X0.2Y-2.6
X0.2Y-2.7
X0.2Y-2.8
X0.2Y-2.9
X0.2Y-3.
X0.2Y-3.1
X0.2Y-3.2
X0.2Y-3.3
X0.2Y-3.4
X0.3Y-0.3
X0.3Y-0.4
X0.3Y-0.5
X0.3Y-0.6
X0.3Y-0.7
X0.3Y-0.8
X0.3Y-0.9
X0.3Y-1.
X0.3Y-1.1
X0.3Y-1.2
X0.3Y-1.3
X0.3Y-1.4
X0.3Y-1.5
X0.3Y-1.6
X0.3Y-1.7
X0.3Y-1.8
X0.3Y-1.9
X0.3Y-2.
X0.3Y-2.1
X0.3Y-2.2
X0.3Y-2.3
X0.3Y-2.4
X0.3Y-2.5
X0.3Y-2.6
X0.3Y-2.7
X0.3Y-2.8
X0.3Y-2.9
X0.3Y-3.
X0.3Y-3.1
X0.3Y-3.2
X0.3Y-3.3
X0.3Y-3.4
X0.4Y-0.3
X0.4Y-0.4
X0.4Y-0.5
X0.4Y-0.6
X0.4Y-0.7
X0.4Y-0.8
X0.4Y-0.9
X0.4Y-1.
X0.4Y-1.1
X0.4Y-1.2
X0.4Y-1.3
X0.4Y-1.4
X0.4Y-1.5
X0.4Y-1.6
X0.4Y-1.7
X0.4Y-1.8
X0.4Y-1.9
X0.4Y-2.
X0.4Y-2.1
X0.4Y-2.2
X0.4Y-2.3
X0.4Y-2.4
X0.4Y-2.5
X0.4Y-2.6
X0.4Y-2.7
X0.4Y-2.8
X0.4Y-2.9
X0.4Y-3.
X0.4Y-3.1
X0.4Y-3.2
X0.4Y-3.3
X0.4Y-3.4
X6.425Y-3.125
X6.425Y-3.725
X6.525Y-3.125
X6.525Y-3.725
X6.625Y-3.125
X6.625Y-3.725
X6.725Y-3.125
X6.725Y-3.725
X6.825Y-3.125
X6.825Y-3.725
X6.925Y-3.125
X6.925Y-3.725
X7.025Y-3.125
X7.025Y-3.725
X7.125Y-3.125
X7.125Y-3.725
X7.225Y-3.125
X7.225Y-3.725
X2.875Y-0.8
X3.0128Y-0.8
X5.425Y-1.875
X5.425Y-2.475
X5.525Y-1.875
X5.525Y-2.475
X5.625Y-1.875
X5.625Y-2.475
X5.725Y-1.875
X5.725Y-2.475
X5.825Y-1.875
X5.825Y-2.475
X5.925Y-1.875
X5.925Y-2.475
X6.025Y-1.875
X6.025Y-2.475
X6.125Y-1.875
X6.125Y-2.475
X6.225Y-1.875
X6.225Y-2.475
X7.13Y-0.625
X7.13Y-1.225
X7.23Y-0.625
X7.23Y-1.225
X7.33Y-0.625
X7.33Y-1.225
X7.43Y-0.625
X7.43Y-1.225
X7.53Y-0.625
X7.53Y-1.225
X7.63Y-0.625
X7.63Y-1.225
X7.73Y-0.625
X7.73Y-1.225
X7.83Y-0.625
X7.83Y-1.225
X7.93Y-0.625
X7.93Y-1.225
X4.425Y-1.875
X4.425Y-2.475
X4.525Y-1.875
X4.525Y-2.475
X4.625Y-1.875
X4.625Y-2.475
X4.725Y-1.875
X4.725Y-2.475
X4.825Y-1.875
X4.825Y-2.475
X4.925Y-1.875
X4.925Y-2.475
X5.025Y-1.875
X5.025Y-2.475
X5.125Y-1.875
X5.125Y-2.475
X5.225Y-1.875
X5.225Y-2.475
X4.425Y-0.625
X4.425Y-1.225
X4.525Y-0.625
X4.525Y-1.225
X4.625Y-0.625
X4.625Y-1.225
X4.725Y-0.625
X4.725Y-1.225
X4.825Y-0.625
X4.825Y-1.225
X4.925Y-0.625
X4.925Y-1.225
X5.025Y-0.625
X5.025Y-1.225
X5.125Y-0.625
X5.125Y-1.225
X5.225Y-0.625
X5.225Y-1.225
X2.95Y-0.35
X2.95Y-0.4878
X6.925Y-1.875
X6.925Y-2.475
X7.025Y-1.875
X7.025Y-2.475
X7.125Y-1.875
X7.125Y-2.475
X7.225Y-1.875
X7.225Y-2.475
X7.325Y-1.875
X7.325Y-2.475
X7.425Y-1.875
X7.425Y-2.475
X7.525Y-1.875
X7.525Y-2.475
X7.625Y-1.875
X7.625Y-2.475
X7.725Y-1.875
X7.725Y-2.475
X7.925Y-1.875
X7.925Y-2.475
X8.025Y-1.875
X8.025Y-2.475
X8.125Y-1.875
X8.125Y-2.475
X8.225Y-1.875
X8.225Y-2.475
X8.325Y-1.875
X8.325Y-2.475
X8.425Y-1.875
X8.425Y-2.475
X8.525Y-1.875
X8.525Y-2.475
X8.625Y-1.875
X8.625Y-2.475
X8.725Y-1.875
X8.725Y-2.475
X5.425Y-3.125
X5.425Y-3.725
X5.525Y-3.125
X5.525Y-3.725
X5.625Y-3.125
X5.625Y-3.725
X5.725Y-3.125
X5.725Y-3.725
X5.825Y-3.125
X5.825Y-3.725
X5.925Y-3.125
X5.925Y-3.725
X6.025Y-3.125
X6.025Y-3.725
X6.125Y-3.125
X6.125Y-3.725
X6.225Y-3.125
X6.225Y-3.725
T3
X3.3816Y-0.5113
X3.3816Y-0.59
X3.48Y-0.5113
X3.48Y-0.59
T4
X1.3939Y-4.2363
X1.4939Y-4.2363
X3.225Y-1.725
X3.225Y-1.825
X3.225Y-1.925
X2.225Y-1.9
X2.325Y-1.9
X2.425Y-1.9
X2.525Y-1.9
X2.625Y-1.9
X2.725Y-1.9
X2.825Y-1.9
X2.925Y-1.9
X3.025Y-1.9
X0.975Y-2.025
X0.975Y-2.125
X0.975Y-2.225
X0.975Y-2.325
X0.975Y-2.425
X0.975Y-2.525
X0.975Y-2.625
X0.975Y-2.725
X0.975Y-2.825
X1.3939Y-4.0363
X1.4939Y-4.0363
X3.45Y-3.2
X3.45Y-3.3
X3.45Y-3.4
X3.45Y-3.5
X3.45Y-3.6
X3.45Y-3.7
X2.987Y-1.247
X3.087Y-1.247
T5
X6.775Y-5.825
X7.025Y-5.725
X8.275Y-4.325
X8.525Y-4.225
X6.025Y-6.575
X6.275Y-6.475
X3.675Y-4.325
X3.925Y-4.225
X4.425Y-6.575
X4.675Y-6.475
X6.775Y-6.575
X7.025Y-6.475
X2.925Y-4.325
X3.175Y-4.225
X7.525Y-5.825
X7.775Y-5.725
X6.775Y-5.075
X7.025Y-4.975
X6.025Y-4.325
X6.275Y-4.225
X8.275Y-5.825
X8.525Y-5.725
X2.175Y-4.325
X2.425Y-4.225
X2.925Y-5.075
X3.175Y-4.975
X2.175Y-6.575
X2.425Y-6.475
X7.525Y-4.325
X7.775Y-4.225
X6.025Y-5.075
X6.275Y-4.975
X3.675Y-6.575
X3.925Y-6.475
X2.925Y-6.575
X3.175Y-6.475
X4.425Y-5.075
X4.675Y-4.975
X7.525Y-6.575
X7.775Y-6.475
X4.425Y-4.325
X4.675Y-4.225
X6.025Y-5.825
X6.275Y-5.725
X3.675Y-5.825
X3.925Y-5.725
X8.275Y-5.075
X8.525Y-4.975
X4.425Y-5.825
X4.675Y-5.725
X2.925Y-5.825
X3.175Y-5.725
X7.525Y-5.075
X7.775Y-4.975
X8.275Y-6.575
X8.525Y-6.475
X3.675Y-5.075
X3.925Y-4.975
X6.775Y-4.325
X7.025Y-4.225
T6
X0.79Y-0.4319
X0.975Y-0.3138
X0.975Y-0.55
T7
X3.1914Y-0.4022
X3.6654Y-0.4022
T8
X7.475Y-5.925
X7.875Y-5.925
X6.725Y-5.175
X7.125Y-5.175
X5.975Y-4.425
X6.375Y-4.425
X8.225Y-5.925
X8.625Y-5.925
X2.125Y-4.425
X2.525Y-4.425
X2.875Y-5.175
X3.275Y-5.175
X2.125Y-6.675
X2.525Y-6.675
X7.475Y-4.425
X7.875Y-4.425
X5.975Y-5.175
X6.375Y-5.175
X3.625Y-6.675
X4.025Y-6.675
X2.875Y-6.675
X3.275Y-6.675
X4.375Y-5.175
X4.775Y-5.175
X7.475Y-6.675
X7.875Y-6.675
X4.375Y-4.425
X4.775Y-4.425
X5.975Y-5.925
X6.375Y-5.925
X3.625Y-5.925
X4.025Y-5.925
X8.225Y-5.175
X8.625Y-5.175
X4.375Y-5.925
X4.775Y-5.925
X2.875Y-5.925
X3.275Y-5.925
X7.475Y-5.175
X7.875Y-5.175
X8.225Y-6.675
X8.625Y-6.675
X3.625Y-5.175
X4.025Y-5.175
X6.725Y-4.425
X7.125Y-4.425
X6.725Y-5.925
X7.125Y-5.925
X8.225Y-4.425
X8.625Y-4.425
X5.975Y-6.675
X6.375Y-6.675
X3.625Y-4.425
X4.025Y-4.425
X4.375Y-6.675
X4.775Y-6.675
X6.725Y-6.675
X7.125Y-6.675
X2.875Y-4.425
X3.275Y-4.425
T9
X0.1Y-0.1
X0.1Y-3.6
T10
X7.675Y-5.925
X6.925Y-5.175
X6.175Y-4.425
X8.425Y-5.925
X2.325Y-4.425
X3.075Y-5.175
X2.325Y-6.675
X7.675Y-4.425
X6.175Y-5.175
X3.825Y-6.675
X3.075Y-6.675
X4.575Y-5.175
X7.675Y-6.675
X4.575Y-4.425
X6.175Y-5.925
X3.825Y-5.925
X8.425Y-5.175
X4.575Y-5.925
X3.075Y-5.925
X7.675Y-5.175
X8.425Y-6.675
X3.825Y-5.175
X6.925Y-4.425
X6.925Y-5.925
X8.425Y-4.425
X6.175Y-6.675
X3.825Y-4.425
X4.575Y-6.675
X6.925Y-6.675
X3.075Y-4.425
T11
X7.3Y-5.55
X3.45Y-5.55
X8.8Y-7.05
X8.8Y-0.2
X1.5Y-7.05
X0.6Y-0.2
T0
M30
